<svg width="328" height="176" viewBox="0 0 328 176" fill="none" xmlns="http://www.w3.org/2000/svg">
<path d="M0 12C0 5.37258 5.37258 0 12 0H316C322.627 0 328 5.37258 328 12V176H0V12Z" fill="url(#paint0_linear)"/>
<mask id="mask0" mask-type="alpha" maskUnits="userSpaceOnUse" x="0" y="0" width="328" height="142">
<path d="M0 12C0 5.37258 5.37258 0 12 0H316C322.627 0 328 5.37258 328 12V142H0V12Z" fill="url(#paint1_linear)"/>
</mask>
<g mask="url(#mask0)">
<path d="M289.857 78L344 119L237 119L289.857 78Z" fill="url(#paint2_linear)"/>
<path d="M289.857 55L344 103L237 103L289.857 55Z" fill="url(#paint3_linear)"/>
<path d="M289.857 33L344 81L237 81L289.857 33Z" fill="url(#paint4_linear)"/>
<path d="M233.856 27.0789L205.702 -4.53777e-05H262.01L233.856 27.0789Z" fill="#FFBC02"/>
<path d="M233.856 27.079L223.333 38.0198L222.798 16.4497L233.856 27.079Z" fill="#105A60"/>
<path d="M233.856 27.079L244.379 38.0198L244.915 16.4497L233.856 27.079Z" fill="#105A60"/>
</g>
<defs>
<linearGradient id="paint0_linear" x1="4.5" y1="9.91549" x2="341.611" y2="108.285" gradientUnits="userSpaceOnUse">
<stop stop-color="#02AD8F"/>
<stop offset="1" stop-color="#095D77"/>
</linearGradient>
<linearGradient id="paint1_linear" x1="4.5" y1="8" x2="328" y2="125" gradientUnits="userSpaceOnUse">
<stop stop-color="#02AD8F"/>
<stop offset="1" stop-color="#095D77"/>
</linearGradient>
<linearGradient id="paint2_linear" x1="290.5" y1="78" x2="290.5" y2="119" gradientUnits="userSpaceOnUse">
<stop stop-color="#11778B"/>
<stop offset="1" stop-color="#0E7084" stop-opacity="0"/>
</linearGradient>
<linearGradient id="paint3_linear" x1="290.5" y1="55" x2="290.5" y2="103" gradientUnits="userSpaceOnUse">
<stop stop-color="#11778B"/>
<stop offset="1" stop-color="#0E7084" stop-opacity="0"/>
</linearGradient>
<linearGradient id="paint4_linear" x1="290.5" y1="33" x2="290.5" y2="81" gradientUnits="userSpaceOnUse">
<stop stop-color="#11778B"/>
<stop offset="1" stop-color="#0E7084" stop-opacity="0"/>
</linearGradient>
</defs>
</svg>
