<svg width="28" height="28" viewBox="0 0 28 28" fill="none" xmlns="http://www.w3.org/2000/svg">
<circle cx="14" cy="15" r="11" fill="white"/>
<path d="M15.1776 14.5L12.2957 13.777L11.4623 17.1158L14.2689 17.7936C14.7003 17.8582 15.1406 17.7654 15.5094 17.5322C15.8781 17.2989 16.1506 16.9409 16.2772 16.5234C16.343 16.3184 16.3666 16.1022 16.3466 15.8879C16.3265 15.6736 16.2631 15.4656 16.1604 15.2764C16.0576 15.0873 15.9175 14.9209 15.7486 14.7875C15.5797 14.654 15.3854 14.5562 15.1776 14.5Z" fill="#F9934A"/>
<path d="M14 0C11.2311 0 8.52431 0.821086 6.22202 2.35943C3.91973 3.89776 2.12532 6.08427 1.06569 8.64243C0.00606609 11.2006 -0.271181 14.0155 0.269012 16.7313C0.809205 19.447 2.14258 21.9416 4.10051 23.8995C6.05845 25.8574 8.55301 27.1908 11.2687 27.731C13.9845 28.2712 16.7994 27.9939 19.3576 26.9343C21.9157 25.8747 24.1022 24.0803 25.6406 21.778C27.1789 19.4757 28 16.7689 28 14C28 10.287 26.525 6.72601 23.8995 4.1005C21.274 1.475 17.713 0 14 0ZM20.1576 11.8709C19.8716 13.5915 18.0336 14.1634 18.0336 14.1634C18.6729 14.5332 19.1688 15.1078 19.4412 15.7944C19.7136 16.4809 19.7465 17.2392 19.5346 17.9468C18.8709 20.6069 15.8636 20.5762 15.0722 20.3771L13.8775 20.0759L13.2392 22.6287L11.6565 22.2305L12.2947 19.6776L11.2735 19.4223L10.6353 21.9752L8.97593 21.5565L9.61415 19.0036L6.49453 18.2276L6.93363 16.4661L8.62364 16.8848C8.7717 16.9256 8.78702 16.8848 8.81255 16.752C8.83808 16.6193 10.8549 8.58278 10.8549 8.52662C10.8549 8.47046 10.8957 8.37345 10.717 8.3275L8.9453 7.87308L9.34355 6.28519L12.5653 7.0919L13.229 4.41648L14.7608 4.79942L14.097 7.47483L15.3122 7.77607L15.981 5.10576L17.5128 5.48359L16.8439 8.17943C17.4407 8.36177 18.0145 8.61188 18.5543 8.92487C19.2283 9.36397 20.4384 10.1554 20.1576 11.8709Z" fill="#F9934A"/>
<path d="M15.3179 9.40205L13.4603 8.93512L12.667 12.1182L14.7004 12.6203C14.9133 12.6821 15.1365 12.7009 15.3568 12.6756C15.5771 12.6504 15.7901 12.5815 15.9836 12.4731C16.177 12.3647 16.3469 12.2189 16.4835 12.0442C16.62 11.8695 16.7205 11.6694 16.779 11.4555C17.1103 10.12 15.6342 9.47736 15.3179 9.40205Z" fill="#F9934A"/>
</svg>
