<svg width="24" height="24" viewBox="0 0 24 24" fill="none" xmlns="http://www.w3.org/2000/svg">
<g clip-path="url(#clip0)">
<path d="M18.3213 4.91666L17.1433 4.32764L15.9652 4.91666L14.7872 4.32764L13.6091 4.91666L12.4311 4.32764L11.253 4.91666L10.075 4.32764L8.89694 4.91666L7.12988 4.32764V13.752V13.7538H15.3762V18.7587C15.3762 19.8973 16.5936 20.8203 17.7323 20.8203H18.174C19.3127 20.8203 20.0884 19.8973 20.0884 18.7587V4.32764L18.3213 4.91666ZM11.8605 11.9849L11.8421 10.8069H17.7139L17.7323 11.9849H11.8605ZM9.50437 9.03982L9.48597 7.86177H17.7139L17.7323 9.03982H9.50437Z" fill="#02AD8F"/>
<path d="M14.1981 18.7587V14.9301H2.41763V16.1081C2.41763 17.9691 2.63041 18.7447 2.94995 19.3341C3.49222 20.3344 4.47405 20.8203 5.95176 20.8203H15.3761C15.3761 20.8203 14.1981 20.084 14.1981 18.7587Z" fill="#5B6888"/>
</g>
<defs>
<clipPath id="clip0">
<rect width="18.8487" height="18.8487" fill="white" transform="translate(1.8287 3.1496)"/>
</clipPath>
</defs>
</svg>
