<svg width="76" height="82" viewBox="0 0 76 82" fill="none" xmlns="http://www.w3.org/2000/svg">
<rect x="0.540283" y="1.74219" width="74.9193" height="74.9193" rx="19.1654" fill="#02AD8F"/>
<path d="M57.6038 49.257C56.9905 54.5047 55.0482 58.5597 51.7769 61.422C48.5283 64.2617 44.2007 65.6815 38.794 65.6815C32.933 65.6815 28.2305 63.5802 24.6866 59.3775C21.1655 55.1748 19.4049 49.5523 19.4049 42.51V37.7394C19.4049 33.1278 20.2227 29.0727 21.8583 25.5743C23.5167 22.0759 25.8566 19.3952 28.8779 17.5324C31.8993 15.6469 35.3978 14.7041 39.3733 14.7041C44.6437 14.7041 48.8691 16.1807 52.0495 19.134C55.2299 22.0645 57.0814 26.1309 57.6038 31.3331H51.0272C50.4593 27.3803 49.2212 24.5179 47.313 22.746C45.4274 20.9741 42.7809 20.0881 39.3733 20.0881C35.1933 20.0881 31.9107 21.6329 29.5254 24.7224C27.1628 27.8119 25.9815 32.2077 25.9815 37.9097V42.7144C25.9815 48.0984 27.106 52.3806 29.355 55.561C31.604 58.7414 34.7503 60.3316 38.794 60.3316C42.4288 60.3316 45.2116 59.5138 47.1426 57.8782C49.0963 56.2198 50.3911 53.3461 51.0272 49.257H57.6038Z" fill="white"/>
<path d="M42.3226 50.5567V39.9621C42.2267 36.1195 42.0304 35.282 37.8955 35.0858V34.3486H49.8073C56.6508 34.3486 59.3115 36.861 59.3115 41.1442C59.3115 45.4274 55.1722 47.4425 52.9565 47.9877L42.3226 50.5567ZM48.5293 47.787C53.9946 47.787 56.3063 45.4753 56.3063 41.5847C56.3063 39.4038 55.5168 35.3344 48.2807 35.3344C47.3768 35.3147 46.4724 35.3467 45.5721 35.4303C45.2275 35.4827 44.9833 35.5786 44.9833 36.5164V47.787H48.5293Z" fill="white"/>
<path d="M45.0089 44.9614V55.556C45.1092 59.3987 45.3055 60.2361 49.4404 60.4324V61.1521H37.5024C30.6589 61.1521 27.9983 58.6572 27.9983 54.374C27.9983 50.0908 32.1375 48.067 34.3533 47.5305L45.0089 44.9614ZM38.7848 47.7311C33.3196 47.7311 31.0035 50.0428 31.0035 53.9334C31.0035 56.1143 31.793 60.1838 39.029 60.1838C39.933 60.2035 40.8374 60.1714 41.7377 60.0878C42.0822 60.0355 42.3265 59.9395 42.3265 59.0017V47.7311H38.7848Z" fill="#D4DCDB"/>
</svg>
