<svg width="16" height="16" viewBox="0 0 16 16" fill="none" xmlns="http://www.w3.org/2000/svg">
<path d="M10.8112 7.99994H12.9582C13.146 7.99994 13.3262 8.07457 13.459 8.20741C13.5919 8.34025 13.6665 8.52042 13.6665 8.70828V14.375C13.6665 14.5629 13.5919 14.7431 13.459 14.8759C13.3262 15.0087 13.146 15.0834 12.9582 15.0834H3.04135C2.85349 15.0834 2.67332 15.0087 2.54048 14.8759C2.40764 14.7431 2.33301 14.5629 2.33301 14.375V8.70828C2.33301 8.52042 2.40764 8.34025 2.54048 8.20741C2.67332 8.07457 2.85349 7.99994 3.04135 7.99994H5.18834C5.93777 8.66118 6.92166 9.06246 7.99976 9.06246C9.07786 9.06246 10.0617 8.66118 10.8112 7.99994ZM5.15009 9.06246H3.39552V14.0272H12.6121V9.06246H10.8615C10.1269 9.77788 9.12602 10.1073 7.99976 10.1073C6.87349 10.1073 5.87508 9.78992 5.15009 9.06246ZM7.99976 0.916504C9.95585 0.916504 11.5415 2.50213 11.5415 4.45822C11.5415 6.41431 9.95585 7.99994 7.99976 7.99994C6.04367 7.99994 4.45804 6.41431 4.45804 4.45822C4.45804 2.50213 6.04367 0.916504 7.99976 0.916504ZM7.99976 1.97902C7.34223 1.97902 6.71164 2.24022 6.2467 2.70516C5.78175 3.1701 5.52055 3.8007 5.52055 4.45822C5.52055 5.11575 5.78175 5.74634 6.2467 6.21128C6.71164 6.67622 7.34223 6.93742 7.99976 6.93742C8.65728 6.93742 9.28788 6.67622 9.75282 6.21128C10.2178 5.74634 10.479 5.11575 10.479 4.45822C10.479 3.8007 10.2178 3.1701 9.75282 2.70516C9.28788 2.24022 8.65728 1.97902 7.99976 1.97902Z" fill="#21252F"/>
</svg>
