<svg width="14" height="14" viewBox="0 0 14 14" fill="none" xmlns="http://www.w3.org/2000/svg">
<path d="M10.2854 1.24807L9.81104 1.01838C9.4542 0.846112 9.0249 0.995135 8.85264 1.35334L7.2708 4.62639L7.17647 4.5799C6.3001 4.15744 5.24736 4.52385 4.8249 5.40021L4.68818 5.68322L9.81787 8.16057L9.95459 7.87756C10.3771 7.00119 10.0106 5.94846 9.13428 5.526L9.03994 5.48088L10.6204 2.20783C10.7927 1.84963 10.6437 1.42033 10.2854 1.24807ZM9.59775 8.6131L4.46123 6.13303C4.14814 6.54318 3.74346 7.00529 3.22939 7.46467C2.44326 8.1674 1.66396 8.63088 1.04736 8.93303C1.22646 9.49904 1.60518 9.77111 1.87178 10.0582C1.97021 10.1649 3.48916 8.52287 3.59854 8.62814C3.70791 8.73342 2.40908 10.5846 2.52803 10.6871C2.88213 10.9906 3.27998 11.2805 3.71338 11.5526C3.80225 11.6086 5.69717 9.02326 5.78193 9.06975C5.95146 9.16271 4.58018 12.042 4.75928 12.1281C4.93701 12.2143 5.11611 12.2949 5.29385 12.3701C5.91045 12.6299 6.52295 12.8213 7.10947 12.9471C7.28857 12.9854 8.23057 9.7424 8.40283 9.76838C8.57646 9.79435 7.98174 13.0893 8.14717 13.1029C8.64619 13.144 9.1124 13.1289 9.52666 13.0578C9.38311 12.3141 9.27783 11.3543 9.35576 10.2442C9.39951 9.63576 9.49111 9.08889 9.59775 8.6131Z" fill="#AFB6C3"/>
</svg>
