<svg width="26" height="26" viewBox="0 0 26 26" fill="none" xmlns="http://www.w3.org/2000/svg">
<path d="M16.6484 12.9924H9.88482C9.6855 12.9924 9.49435 12.9132 9.35341 12.7723C9.21248 12.6314 9.1333 12.4402 9.1333 12.2409V11.4894H17.4V12.2409C17.4 12.4402 17.3208 12.6314 17.1798 12.7723C17.0389 12.9132 16.8478 12.9924 16.6484 12.9924Z" fill="#02AD8F"/>
<path d="M12.6617 3.41925L5.89806 6.39149C5.63108 6.50888 5.40402 6.70141 5.24455 6.9456C5.08509 7.1898 5.00012 7.47511 5 7.76676V12.425C5 15.2782 6.27607 17.8277 8.5246 19.5847L12.4002 22.3195C12.6537 22.4983 12.9564 22.5944 13.2667 22.5944C13.5769 22.5944 13.8796 22.4983 14.1332 22.3195L17.9794 19.6065C20.2573 17.8273 21.5333 15.2778 21.5333 12.425V7.76714C21.5333 7.47536 21.4484 7.18988 21.289 6.94554C21.1295 6.7012 20.9024 6.50856 20.6353 6.39111L13.8716 3.41887C13.681 3.33504 13.4749 3.29175 13.2667 3.29175C13.0584 3.29175 12.8524 3.33504 12.6617 3.41887V3.41925ZM6.50303 7.76714L13.2667 4.7949L20.0303 7.76714V12.425C20.0303 14.8096 18.9718 16.9247 17.0832 18.4003L13.2667 21.0911L9.42041 18.3781C7.56154 16.9236 6.50303 14.8088 6.50303 12.4243V7.76714Z" fill="#727988"/>
<path d="M13.2667 8.10754C13.4562 8.10748 13.6389 8.17909 13.7779 8.30801C13.9169 8.43693 14.0021 8.61363 14.0163 8.8027L14.0182 8.85906V15.6227C14.019 15.8177 13.9441 16.0054 13.8091 16.1462C13.6741 16.2869 13.4897 16.3697 13.2949 16.377C13.1 16.3844 12.9099 16.3156 12.7647 16.1854C12.6196 16.0551 12.5308 15.8736 12.517 15.6791L12.5151 15.6227V8.85906C12.5151 8.76037 12.5346 8.66264 12.5723 8.57147C12.6101 8.48029 12.6655 8.39744 12.7352 8.32766C12.805 8.25787 12.8879 8.20252 12.9791 8.16475C13.0702 8.12698 13.168 8.10754 13.2667 8.10754Z" fill="#727988"/>
</svg>
