<svg width="26" height="26" viewBox="0 0 26 26" fill="none" xmlns="http://www.w3.org/2000/svg">
<path d="M19.8301 16.0229C19.8301 15.8995 19.8811 15.769 19.9848 15.6322C20.0884 15.4955 20.2015 15.3497 20.323 15.2005C20.4599 15.035 20.5903 14.8649 20.7136 14.6865C20.8336 14.5185 20.8983 14.3173 20.8987 14.1108C20.8987 13.7664 20.8102 13.4734 20.6314 13.2257C20.4641 12.9913 20.2785 12.7706 20.0762 12.5657C20.0092 12.4954 19.927 12.4088 19.8301 12.306C19.7333 12.2032 19.6862 12.1315 19.6862 12.0895L19.7479 11.8621C19.7901 11.7122 19.9124 11.4361 20.118 11.0397C20.2002 10.8609 20.2372 10.6888 20.2307 10.5257C20.2241 10.3627 20.1733 10.1968 20.076 10.0323C19.9872 9.88818 19.8679 9.7653 19.7265 9.67227C19.5855 9.58197 19.4211 9.53513 19.2536 9.5376H4.11316C3.70196 9.5376 3.35929 9.69585 3.08515 10.0123C2.81129 10.3279 2.67395 10.7208 2.67395 11.1867V20.4799C2.67395 20.9322 2.81109 21.3188 3.08515 21.6344C3.35922 21.95 3.70196 22.1089 4.11316 22.1089H19.2559C19.4393 22.1116 19.62 22.0651 19.7794 21.9744C19.9326 21.8898 20.052 21.7549 20.1174 21.5924C20.2124 21.4138 20.2543 21.2349 20.2407 21.056C20.2243 20.8678 20.1686 20.685 20.0773 20.5196C19.9823 20.4092 19.927 20.321 19.9128 20.2523L19.8922 20.1495C19.8922 19.9583 19.9418 19.7704 20.0362 19.604C20.1346 19.4286 20.2445 19.2597 20.3651 19.0987C20.4827 18.9287 20.5924 18.7536 20.6941 18.5734C20.7882 18.407 20.8378 18.2192 20.838 18.0281C20.8409 17.7382 20.7625 17.4534 20.6118 17.2057C20.4615 16.959 20.318 16.7378 20.1801 16.5457C20.0978 16.4485 20.0187 16.3492 19.9436 16.2478C19.8641 16.1395 19.8264 16.0689 19.8264 16.027L19.8301 16.0229ZM19.6048 18.5152C19.4318 18.7415 19.2739 18.979 19.1319 19.2259C18.9674 19.5084 18.8998 19.8263 18.9263 20.1841C18.9284 20.3177 18.9634 20.4489 19.0281 20.5659C19.0966 20.6962 19.1926 20.8574 19.3159 21.0494L19.3048 21.0803C19.2929 21.1076 19.2756 21.1324 19.254 21.153H4.11316C3.9898 21.153 3.87672 21.0803 3.77515 20.9368C3.6749 20.803 3.62066 20.6403 3.62054 20.4731V11.1799C3.62054 10.9879 3.67132 10.8267 3.77515 10.6966C3.87898 10.5664 3.99165 10.5 4.11316 10.5H19.2138V10.5411C18.9818 11.0225 18.8346 11.3691 18.7719 11.5809C18.7102 11.7928 18.6792 11.9629 18.6792 12.0862C18.6792 12.2918 18.7477 12.4837 18.8848 12.6619C19.0217 12.8408 19.1654 13.0129 19.3166 13.1759C19.4494 13.3224 19.5793 13.4711 19.7064 13.6219C19.8259 13.7545 19.8918 13.9267 19.8914 14.1052C19.8914 14.1464 19.8472 14.2179 19.759 14.3215C19.6781 14.4143 19.6056 14.514 19.5423 14.6195C19.366 14.8286 19.2078 15.0523 19.0694 15.2883C18.9215 15.5327 18.8566 15.8185 18.8844 16.1029C18.9117 16.2959 18.9778 16.4814 19.0789 16.6481C19.1751 16.8092 19.2813 16.964 19.3969 17.1118C19.5188 17.2593 19.6317 17.4141 19.735 17.5752C19.8388 17.7343 19.8896 17.8799 19.8896 18.0189C19.8896 18.0742 19.8521 18.1492 19.7769 18.2463C19.7126 18.3315 19.6552 18.4211 19.6048 18.5152ZM5.59349 9.20412C5.71685 9.25922 5.83651 9.24832 5.9535 9.17328C6.0077 9.1406 6.05479 9.09738 6.09197 9.04617C6.12916 8.99496 6.15569 8.93681 6.16999 8.87516L6.45784 7.90616C6.47706 7.83991 6.50973 7.77834 6.55381 7.72528C6.59788 7.67222 6.65242 7.62881 6.71402 7.59776C6.83596 7.53094 6.9775 7.50911 7.11391 7.53608L13.1956 9.34763H13.3395C13.4396 9.34587 13.5368 9.31351 13.6179 9.2549C13.7039 9.19636 13.7714 9.11437 13.8122 9.01867C13.8675 8.89531 13.8564 8.77585 13.7814 8.65886C13.7063 8.54188 13.6068 8.46909 13.483 8.44257L7.36084 6.67008C6.97636 6.54672 6.60011 6.58784 6.23003 6.79344C5.85995 6.99904 5.6268 7.29449 5.53201 7.67856L5.24417 8.62556C5.23156 8.74985 5.25618 8.87509 5.3149 8.98536C5.34171 9.04054 5.38072 9.0889 5.42899 9.12676C5.47726 9.16463 5.53351 9.19122 5.59349 9.20412ZM9.22996 6.04978C9.33705 6.11723 9.46653 6.13941 9.58997 6.11146C9.65131 6.09997 9.70955 6.07573 9.76094 6.04031C9.81233 6.00489 9.85571 5.95909 9.88829 5.90586L10.4229 5.08346C10.4913 4.9601 10.6019 4.88032 10.7518 4.84722C10.9017 4.81412 11.0458 4.8429 11.1836 4.93995L16.4433 8.40063L17.4507 9.09967C17.4935 9.12656 17.5377 9.15093 17.5833 9.17266C17.6324 9.19297 17.6849 9.20344 17.7379 9.2035C17.8085 9.20373 17.8785 9.18974 17.9435 9.16238C18.0168 9.1315 18.0806 9.08186 18.1286 9.01846C18.1971 8.92142 18.2213 8.80217 18.2016 8.65866C18.1818 8.51515 18.122 8.407 18.027 8.33854L17.0196 7.61667L11.6536 4.11384C11.3246 3.90824 10.9545 3.84656 10.5433 3.9288C10.1321 4.01104 9.81654 4.21788 9.59757 4.54684L9.08501 5.36924C9.00277 5.4926 8.9746 5.61597 9.00277 5.73933C9.03094 5.86269 9.10434 5.96672 9.22893 6.04773L9.22996 6.04978ZM15.3519 11.0782C15.2286 11.0782 15.1332 11.1135 15.0641 11.182C14.995 11.2505 14.9625 11.3475 14.9625 11.4711V12.7493C14.9626 12.8478 14.9988 12.9429 15.0641 13.0166C15.1326 13.0988 15.2286 13.1399 15.3519 13.1399H15.3931C15.4885 13.1398 15.5802 13.103 15.6492 13.0371C15.7245 12.9689 15.7621 12.8716 15.7621 12.7481V11.4688C15.7488 11.3455 15.7004 11.2482 15.6182 11.1797C15.5444 11.1145 15.4494 11.0784 15.3509 11.0782H15.3519ZM15.3519 13.716C15.2286 13.716 15.1332 13.7514 15.0641 13.8188C14.995 13.8863 14.9625 13.9833 14.9625 14.1079V15.3861C14.9627 15.4846 14.9988 15.5797 15.0641 15.6534C15.1326 15.7357 15.2286 15.7768 15.3519 15.7768H15.3931C15.4889 15.7769 15.5811 15.7401 15.6505 15.674C15.7257 15.6055 15.7634 15.5095 15.7634 15.3849V14.1069C15.75 13.9835 15.7017 13.8861 15.6194 13.8176C15.5457 13.7523 15.4504 13.7162 15.3519 13.716ZM15.3519 16.3518C15.2286 16.3518 15.1332 16.387 15.0641 16.4546C14.995 16.5223 14.9625 16.6191 14.9625 16.7439V18.0197C14.9627 18.1182 14.9988 18.2132 15.0641 18.287C15.1326 18.3692 15.2286 18.4103 15.3519 18.4103H15.3931C15.4885 18.4102 15.5802 18.3734 15.6492 18.3075C15.7245 18.2391 15.7621 18.143 15.7621 18.0182V16.7402C15.7488 16.6169 15.7004 16.5196 15.6182 16.4512C15.5432 16.3883 15.4488 16.3532 15.3509 16.3518H15.3519ZM15.3519 18.9895C15.2286 18.9895 15.1332 19.0249 15.0641 19.0923C14.995 19.1597 14.9625 19.258 14.9625 19.3816V20.6596C14.9627 20.7581 14.9988 20.8531 15.0641 20.9269C15.1326 21.0091 15.2286 21.0502 15.3519 21.0502H15.3931C15.4885 21.05 15.5801 21.0132 15.6492 20.9474C15.7245 20.879 15.7621 20.783 15.7621 20.6582V19.3804C15.7488 19.257 15.7004 19.1595 15.6182 19.0913C15.5439 19.0268 15.4492 18.9908 15.3509 18.9895H15.3519Z" fill="#727988"/>
<path d="M19.2559 22.207H4.11314C3.67419 22.207 3.30308 22.0357 3.00989 21.6975C2.72102 21.365 2.57422 20.9543 2.57422 20.4775V11.1843C2.57422 10.6943 2.72081 10.2772 3.00968 9.94431C3.30287 9.6063 3.67398 9.43504 4.11294 9.43504H13.1368L7.0847 7.6315C6.97353 7.61195 6.85902 7.63111 6.76026 7.68578C6.71033 7.71081 6.66614 7.74594 6.6305 7.78894C6.59486 7.83194 6.56855 7.88188 6.55322 7.93559L6.26538 8.90356C6.23207 9.04748 6.14469 9.1694 6.00673 9.25781C5.86466 9.34889 5.71067 9.36349 5.56037 9.29893C5.48823 9.28173 5.42075 9.24887 5.36273 9.20268C5.30471 9.15649 5.25756 9.0981 5.22462 9.03165C5.15711 8.90384 5.12912 8.75885 5.14423 8.6151L5.43516 7.64877C5.53508 7.24333 5.78653 6.92423 6.18047 6.70506C6.5744 6.48589 6.98231 6.4421 7.39146 6.57348L13.5108 8.34617C13.6547 8.3766 13.7752 8.46419 13.8656 8.60482C13.96 8.75162 13.973 8.90479 13.9039 9.05961C13.8634 9.1524 13.802 9.23456 13.7244 9.29965C13.6469 9.36475 13.5553 9.41102 13.4569 9.43483H19.2534C19.4401 9.43263 19.6234 9.48494 19.7808 9.58533C19.9342 9.68637 20.0637 9.81969 20.1603 9.97597C20.2681 10.1594 20.3232 10.3364 20.3304 10.5202C20.3378 10.6993 20.2966 10.8878 20.2088 11.0801C19.9607 11.5601 19.8743 11.7842 19.8451 11.8887L19.7896 12.0943C19.7964 12.1066 19.8211 12.1481 19.9044 12.2382C20 12.341 20.0808 12.4255 20.1486 12.4931C20.3546 12.7018 20.5435 12.9267 20.7136 13.1655C20.9036 13.4278 21 13.7453 21 14.1094C20.9995 14.3365 20.9283 14.5578 20.7965 14.7426C20.676 14.9168 20.5466 15.087 20.4005 15.2638C20.28 15.4125 20.1681 15.5572 20.0647 15.6933C19.9763 15.8101 19.9311 15.9195 19.9307 16.0223C19.9321 16.0303 19.9432 16.0694 20.0283 16.1851C20.1019 16.2848 20.1801 16.3825 20.2607 16.4783C20.3995 16.6721 20.5461 16.8962 20.7004 17.1504C20.8601 17.4144 20.9432 17.7176 20.9404 18.0261C20.9395 18.2335 20.8858 18.4372 20.7843 18.618C20.6815 18.8014 20.5684 18.9809 20.4496 19.1526C20.3308 19.3111 20.2225 19.4773 20.1254 19.6499C20.0398 19.8014 19.9948 19.9725 19.9948 20.1465L20.0129 20.2314C20.0193 20.2645 20.0491 20.3301 20.1537 20.4516C20.2683 20.6617 20.3271 20.8556 20.3415 21.0462C20.3556 21.2423 20.3102 21.4409 20.206 21.6371C20.1322 21.8168 19.9991 21.9658 19.8289 22.0594C19.6543 22.1584 19.4566 22.2094 19.2559 22.207ZM4.11314 9.6355C3.7299 9.6355 3.41862 9.77942 3.16183 10.0757C2.90503 10.372 2.7753 10.7439 2.7753 11.1841V20.4773C2.7753 20.9043 2.90544 21.2707 3.16183 21.5659C3.41821 21.8612 3.7299 22.0061 4.11314 22.0061H19.2559C19.4215 22.0082 19.5847 21.9664 19.7288 21.8848C19.8626 21.8109 19.9669 21.6932 20.0242 21.5515C20.1145 21.3807 20.1521 21.2183 20.1406 21.0606C20.1248 20.8862 20.073 20.7171 19.9884 20.5638C19.891 20.4544 19.832 20.3547 19.8151 20.2692L19.7946 20.165C19.7907 19.9506 19.844 19.739 19.949 19.5521C20.0497 19.3726 20.1622 19.2 20.2857 19.0354C20.3986 18.8721 20.5078 18.6978 20.6077 18.5214C20.6935 18.3702 20.7385 18.1994 20.7385 18.0257C20.7422 17.7538 20.6691 17.4864 20.5275 17.2543C20.3756 17.0042 20.2321 16.7845 20.1009 16.6004C20.0226 16.5079 19.942 16.407 19.8655 16.3038C19.7684 16.1716 19.7288 16.0903 19.7288 16.0235C19.7288 15.8773 19.7876 15.7254 19.9037 15.5712C20.0082 15.4335 20.1217 15.2871 20.2438 15.1362C20.3877 14.963 20.5131 14.7971 20.6303 14.6279C20.7387 14.4764 20.7973 14.295 20.7981 14.1088C20.7981 13.7835 20.7169 13.5125 20.5497 13.2825C20.3863 13.0524 20.2047 12.8359 20.0065 12.635C19.9375 12.5659 19.8552 12.4792 19.7569 12.3745C19.6336 12.2401 19.5861 12.1605 19.5861 12.0896L19.5898 12.0632L19.6515 11.8358C19.6971 11.6724 19.8272 11.3811 20.0281 10.9929C20.1007 10.8339 20.1357 10.676 20.1295 10.5288C20.1239 10.3785 20.0777 10.2322 19.9886 10.0808C19.9081 9.95034 19.8 9.83899 19.672 9.75454C19.5472 9.67456 19.4016 9.63328 19.2534 9.63591L4.11314 9.6355ZM13.2102 9.24732H13.3391C13.4191 9.24572 13.4966 9.21935 13.5609 9.17187C13.6311 9.12442 13.6861 9.05784 13.7195 8.98004C13.7606 8.88629 13.7536 8.80199 13.6966 8.71276C13.635 8.61756 13.5585 8.56123 13.4618 8.54046L7.33286 6.76613C6.97203 6.64996 6.62806 6.68759 6.27833 6.88126C5.93498 7.07206 5.71642 7.34859 5.62884 7.70367L5.341 8.6556C5.33546 8.75481 5.35759 8.85361 5.40494 8.94098C5.42507 8.98312 5.45465 9.02005 5.49138 9.0489C5.52811 9.07775 5.57099 9.09773 5.61671 9.10731L5.635 9.11327C5.7267 9.15439 5.81079 9.14678 5.89961 9.08963C5.94298 9.06377 5.98063 9.02937 6.01029 8.98851C6.03994 8.94765 6.06098 8.90119 6.07211 8.85195L6.35996 7.87699C6.38288 7.7976 6.42188 7.72378 6.47455 7.66012C6.52721 7.59645 6.59241 7.5443 6.6661 7.50691C6.80814 7.42944 6.97282 7.40413 7.13158 7.43536L13.2102 9.24732ZM19.2974 21.2532H4.11314C3.95586 21.2532 3.81461 21.1662 3.6931 20.9948C3.58091 20.8439 3.52022 20.661 3.51998 20.4729V11.1798C3.51998 10.9645 3.5794 10.7807 3.6968 10.6337C3.82016 10.4785 3.96079 10.3995 4.11314 10.3995H19.3143L19.3042 10.5846C19.0741 11.0618 18.9275 11.407 18.8681 11.6091C18.8087 11.8112 18.7795 11.9713 18.7795 12.0861C18.7795 12.2711 18.84 12.4391 18.9645 12.6013C19.1031 12.7818 19.246 12.9527 19.3897 13.1085C19.5235 13.2553 19.6546 13.4042 19.783 13.5553C19.9181 13.706 19.9928 13.9014 19.9926 14.1038C19.9926 14.1733 19.9473 14.2545 19.8363 14.3851C19.7595 14.4733 19.6907 14.5682 19.6307 14.6686C19.4548 14.8782 19.2966 15.102 19.1578 15.3378C19.021 15.5643 18.9607 15.8288 18.9857 16.0922C19.0113 16.2706 19.0727 16.4419 19.1662 16.5959C19.26 16.7531 19.3637 16.9042 19.4767 17.0482C19.6007 17.1988 19.7156 17.3568 19.8207 17.5211C19.9352 17.6961 19.9911 17.8591 19.9911 18.0187C19.9911 18.098 19.9486 18.1899 19.8573 18.3065C19.7967 18.3868 19.7425 18.4717 19.695 18.5604L19.6848 18.5765C19.5143 18.7989 19.3589 19.0324 19.2195 19.2755C19.0655 19.5428 19.0024 19.8368 19.0275 20.1754C19.0289 20.2953 19.06 20.4129 19.1179 20.5178C19.188 20.6512 19.2824 20.8114 19.4006 20.9939L19.4276 21.0351L19.3998 21.1122C19.3839 21.1527 19.3594 21.1894 19.328 21.2197L19.2974 21.2532ZM15.6811 21.0525H19.1983C19.0924 20.8862 19.0055 20.7382 18.9395 20.6123C18.867 20.481 18.828 20.3338 18.826 20.1839C18.7986 19.8163 18.8722 19.4745 19.0451 19.1764C19.1877 18.9281 19.3462 18.6893 19.5199 18.4615C19.5717 18.3655 19.6306 18.2735 19.6961 18.1862C19.7849 18.0715 19.7894 18.0261 19.7894 18.0181C19.7894 17.899 19.7442 17.7713 19.6508 17.6293C19.5498 17.4711 19.4392 17.3193 19.3196 17.1747C19.2009 17.0231 19.0918 16.8643 18.9929 16.6991C18.8851 16.5207 18.8144 16.3223 18.7853 16.1158C18.7551 15.809 18.8247 15.5005 18.9837 15.2363C19.1251 14.9956 19.2866 14.7672 19.4664 14.5537C19.5293 14.4479 19.6019 14.3481 19.6831 14.2556C19.781 14.1406 19.7911 14.1032 19.7919 14.0995C19.7919 13.9488 19.7388 13.8117 19.6303 13.6865C19.5029 13.5366 19.3733 13.3894 19.2413 13.2448C19.0939 13.0847 18.9469 12.9093 18.8048 12.7238C18.6547 12.5283 18.5786 12.3139 18.5786 12.0865C18.5786 11.9528 18.6113 11.7733 18.6755 11.5531C18.7343 11.3521 18.865 11.0391 19.0745 10.5998H4.11314C4.02371 10.5998 3.93879 10.6518 3.85368 10.7585C3.76444 10.8705 3.72086 11.0083 3.72086 11.1794V20.4725C3.72083 20.6187 3.76847 20.7609 3.85655 20.8776C3.94003 20.9954 4.02371 21.0521 4.11314 21.0521H15.0489C15.0264 21.0341 15.0057 21.0138 14.9872 20.9917C14.9067 20.9 14.8622 20.7822 14.862 20.6602V19.3826C14.862 19.2305 14.906 19.1092 14.9929 19.0224C15.0799 18.9357 15.202 18.8894 15.3513 18.8894C15.4726 18.8905 15.5896 18.9341 15.6819 19.0128C15.7857 19.0995 15.8464 19.2184 15.8622 19.3689V20.6578C15.8622 20.811 15.8131 20.9333 15.7167 21.0211C15.7058 21.0328 15.6936 21.0429 15.6811 21.0525ZM15.3521 19.0901C15.2569 19.0901 15.186 19.1143 15.1358 19.1645C15.0857 19.2147 15.0637 19.2842 15.0637 19.3826V20.6607C15.064 20.7355 15.0918 20.8075 15.1418 20.8632C15.1922 20.9232 15.259 20.951 15.3521 20.951H15.3933C15.4638 20.9507 15.5314 20.9229 15.5818 20.8737C15.6359 20.8243 15.662 20.754 15.662 20.6584V19.3804C15.655 19.3024 15.6195 19.2298 15.5623 19.1764C15.5051 19.123 15.4304 19.0917 15.3521 19.0901ZM15.3943 18.5121H15.3532C15.2004 18.5121 15.0779 18.4583 14.989 18.3526C14.9083 18.2612 14.8634 18.1437 14.8626 18.0218V16.7448C14.8626 16.5926 14.9066 16.4713 14.9936 16.3846C15.0805 16.2978 15.2027 16.2513 15.3519 16.2513C15.4722 16.2528 15.5883 16.2955 15.6809 16.3722C15.7862 16.4602 15.8466 16.5797 15.8626 16.7294V18.0183C15.8626 18.1717 15.8135 18.294 15.7171 18.3818C15.6299 18.4648 15.5147 18.5117 15.3943 18.5121ZM15.3532 16.4526C15.258 16.4526 15.187 16.4769 15.1369 16.527C15.0867 16.5772 15.0647 16.6467 15.0647 16.7452V18.0218C15.0651 18.0965 15.0929 18.1685 15.1428 18.2241C15.1932 18.2841 15.26 18.3119 15.3532 18.3119H15.3943C15.4648 18.3117 15.5324 18.2839 15.5828 18.2346C15.6369 18.1854 15.663 18.1149 15.663 18.0193V16.7403C15.6562 16.6581 15.6174 16.5819 15.5551 16.5281C15.4981 16.4802 15.4263 16.4534 15.3519 16.4522L15.3532 16.4526ZM15.3943 15.8786H15.3532C15.2004 15.8786 15.0779 15.8249 14.989 15.719C14.9086 15.6273 14.8641 15.5094 14.8638 15.3874V14.109C14.8638 13.9568 14.9078 13.8357 14.9948 13.749C15.0818 13.6622 15.2037 13.6159 15.3532 13.6159C15.4753 13.6162 15.5932 13.6606 15.6852 13.7409C15.788 13.8263 15.848 13.9465 15.8641 14.096V15.3849C15.8641 15.5379 15.8149 15.6602 15.7185 15.748C15.6312 15.8317 15.5152 15.8787 15.3943 15.8786ZM15.3532 13.817C15.2578 13.817 15.1868 13.8413 15.1369 13.8912C15.0869 13.9412 15.0647 14.0113 15.0647 14.1094V15.3874C15.0651 15.4623 15.0929 15.5344 15.1428 15.5901C15.1932 15.6502 15.26 15.6779 15.3532 15.6779H15.3943C15.4648 15.6775 15.5324 15.6497 15.5828 15.6004C15.6369 15.5511 15.663 15.4809 15.663 15.3853V14.1069C15.6559 14.0249 15.6173 13.9489 15.5553 13.8947C15.4994 13.8446 15.427 13.8168 15.3519 13.8166L15.3532 13.817ZM15.3943 13.2413H15.3532C15.2004 13.2413 15.0779 13.1877 14.989 13.0818C14.9086 12.99 14.8641 12.8722 14.8638 12.7502V11.4711C14.8638 11.319 14.9078 11.1979 14.9948 11.1111C15.0818 11.0243 15.2039 10.9779 15.3532 10.9779C15.4753 10.9781 15.5933 11.0226 15.6852 11.1031C15.788 11.1888 15.848 11.3087 15.8641 11.4582V12.7471C15.8641 12.9002 15.8149 13.0226 15.7183 13.1104C15.631 13.1939 15.5147 13.2405 15.3939 13.2403L15.3943 13.2413ZM15.3532 11.1798C15.258 11.1798 15.187 11.204 15.1369 11.2542C15.0867 11.3044 15.0647 11.3739 15.0647 11.4721V12.7502C15.0651 12.825 15.0929 12.8971 15.1428 12.9529C15.1932 13.0129 15.26 13.0407 15.3532 13.0407H15.3943C15.4648 13.0403 15.5324 13.0125 15.5828 12.9632C15.6369 12.914 15.663 12.8439 15.663 12.7481V11.4688C15.6559 11.3869 15.617 11.3111 15.5547 11.2575C15.499 11.2072 15.4269 11.1792 15.3519 11.1787L15.3532 11.1798ZM17.7381 9.30551C17.6721 9.30552 17.6067 9.29253 17.5457 9.26726C17.4948 9.24336 17.4453 9.21638 17.3977 9.18646L16.3861 8.48392L11.1272 5.02324C11.0111 4.941 10.897 4.91612 10.7746 4.94429C10.6523 4.97246 10.5651 5.0327 10.5104 5.13139L9.97216 5.96078C9.93247 6.02527 9.87974 6.08074 9.81736 6.12366C9.75497 6.16657 9.68431 6.19597 9.60989 6.20997C9.46117 6.24274 9.30553 6.2158 9.17649 6.13493L9.17423 6.13328C9.02845 6.03747 8.9382 5.91247 8.90694 5.76176C8.87569 5.61106 8.90489 5.46282 9.00316 5.31437L9.51347 4.4932C9.7497 4.13875 10.0892 3.91752 10.5248 3.82993C10.9605 3.74235 11.3565 3.8104 11.7066 4.02875L17.0749 7.53302L18.086 8.25715C18.2036 8.34226 18.278 8.47632 18.3013 8.64532C18.3245 8.81433 18.2945 8.95845 18.2108 9.07708C18.1512 9.1564 18.0714 9.21824 17.9797 9.25616C17.9031 9.28798 17.8209 9.30433 17.7379 9.30427L17.7381 9.30551ZM10.8711 4.73293C11.0046 4.73464 11.1341 4.77854 11.2411 4.85835L16.4986 8.31739L17.5081 9.01869C17.5464 9.04229 17.5859 9.06384 17.6265 9.08325C17.7087 9.11656 17.8115 9.10936 17.9047 9.07009C17.9625 9.04573 18.0129 9.0065 18.0506 8.9564C18.1006 8.88526 18.1189 8.79191 18.1025 8.67349C18.086 8.55506 18.0408 8.47344 17.9686 8.4206L16.9612 7.69914L11.5987 4.19796C11.2903 4.00572 10.9519 3.95 10.5641 4.02669C10.1825 4.10236 9.88561 4.29583 9.68247 4.60238L9.17155 5.42334C9.10268 5.52799 9.08047 5.6238 9.10247 5.71879C9.12303 5.81851 9.18307 5.8989 9.28402 5.96551C9.32613 5.99205 9.3731 6.00997 9.42219 6.01823C9.47128 6.02649 9.52153 6.02492 9.57001 6.01362C9.61808 6.00489 9.66374 5.98604 9.70397 5.95832C9.7442 5.9306 9.77808 5.89465 9.80337 5.85284L10.3379 5.02859C10.4175 4.88467 10.5505 4.78865 10.7298 4.74897C10.7761 4.73781 10.8236 4.73208 10.8713 4.73191L10.8711 4.73293Z" fill="#727988"/>
<path d="M6.792 13.288H7.584L9 15.912L10.416 13.288H11.208L9.576 16.16H10.768V16.56H9.352V17.344H10.768V17.744H9.352V19H8.648V17.744H7.24V17.344H8.648V16.56H7.24V16.16H8.424L6.792 13.288Z" fill="#02AD8F"/>
</svg>
