<svg width="26" height="26" viewBox="0 0 26 26" fill="none" xmlns="http://www.w3.org/2000/svg">
<path d="M18.7999 7.89968C19.224 7.89968 19.3998 7.72419 19.3998 7.29976C19.3998 6.87561 19.224 6.69983 18.7999 6.69983H7.9958C7.57166 6.69983 7.39587 6.87561 7.39587 7.29976C7.39587 7.72416 7.57166 7.89968 7.9958 7.89968H18.7999Z" fill="#02AD8F"/>
<path d="M19.4001 8.79996H7.59979C6.8335 8.79996 6.20009 8.13439 6.20009 7.29977C6.20009 6.46512 6.8335 5.79985 7.59979 5.79985H19.3998C19.8242 5.79985 20 5.6241 20 5.19992C20 4.77549 19.8242 4.59973 19.3998 4.59973H7.59979C6.15748 4.59973 5 5.81482 5 7.29974C5 7.40236 5.01849 7.50015 5.02892 7.59984H5V18.3996C5 20.0501 6.28529 21.3997 7.88596 21.3997H19.4001C19.8242 21.3997 20 21.224 20 20.7998V9.39956C20 8.97542 19.8242 8.79996 19.4001 8.79996ZM11.8999 9.99978H15.1998V13.2284C14.7738 12.8927 14.3475 12.5573 13.9215 12.2215C13.7037 12.05 13.3966 12.05 13.1791 12.2215C12.7528 12.5572 12.3262 12.8927 11.8999 13.2284V9.99978ZM18.7999 20.1997H7.88596C6.96158 20.1997 6.20009 19.3999 6.20009 18.3996V9.56891C6.60387 9.83819 7.08186 9.99978 7.59979 9.99978H10.7001V14.4644C10.6999 14.7956 10.9683 15.0644 11.2995 15.0646C11.4344 15.0649 11.5655 15.0196 11.6714 14.936C12.2976 14.4427 12.9238 13.9495 13.5499 13.4564C14.1761 13.9495 14.8023 14.4427 15.4284 14.936C15.6889 15.141 16.0659 15.0962 16.2711 14.8361C16.3546 14.7302 16.4001 14.5993 16.4 14.4644V9.99978H18.7999L18.7999 20.1997Z" fill="#727988"/>
</svg>
