<svg width="19" height="20" viewBox="0 0 19 20" fill="none" xmlns="http://www.w3.org/2000/svg">
<path d="M9.50009 18.9062C9.45071 18.9084 9.40127 18.9038 9.35314 18.8926C8.25856 18.6491 6.48325 17.8375 4.96147 16.5793C3.07928 15.037 2.07822 13.238 2.07822 11.384V3.60586C2.07675 3.5174 2.09295 3.42953 2.12586 3.34741C2.15877 3.26528 2.20773 3.19054 2.26988 3.12757C2.33202 3.06459 2.40611 3.01465 2.48779 2.98065C2.56947 2.94666 2.65712 2.92929 2.74559 2.92958C5.01521 2.92622 7.24379 2.3243 9.20648 1.18455C9.30753 1.12479 9.42277 1.09326 9.54017 1.09326C9.65757 1.09326 9.77281 1.12479 9.87386 1.18455C11.8102 2.31749 14.0112 2.91943 16.2546 2.92958C16.3431 2.92929 16.4307 2.94666 16.5124 2.98065C16.5941 3.01465 16.6682 3.06459 16.7303 3.12757C16.7924 3.19054 16.8414 3.26528 16.8743 3.34741C16.9072 3.42953 16.9234 3.5174 16.922 3.60586V11.384C16.922 13.2374 15.9343 15.0356 14.0788 16.5793C13.9421 16.6902 13.7672 16.7424 13.5921 16.7247C13.4171 16.7069 13.2561 16.6206 13.1445 16.4846C13.0349 16.3452 12.9834 16.1688 13.0009 15.9923C13.0183 15.8158 13.1033 15.6529 13.238 15.5376C14.3193 14.6449 15.6009 13.211 15.6009 11.3982V4.26938C13.4817 4.15841 11.4148 3.57118 9.55382 2.55136C7.66778 3.5821 5.57348 4.17402 3.42692 4.28304V11.4122C3.42692 14.7535 7.88539 17.1885 9.66129 17.5943C9.83563 17.6357 9.98664 17.7441 10.0816 17.896C10.1766 18.0479 10.2079 18.2311 10.1687 18.406C10.1249 18.5496 10.0364 18.6755 9.91621 18.7655C9.79599 18.8554 9.65023 18.9047 9.50009 18.9062Z" fill="#C93F54"/>
<path d="M8.3125 13.9722C8.3125 14.2577 8.42591 14.5315 8.62779 14.7334C8.82967 14.9353 9.10347 15.0487 9.38897 15.0487C9.67447 15.0487 9.94827 14.9353 10.1501 14.7334C10.352 14.5315 10.4654 14.2577 10.4654 13.9722C10.4654 13.6867 10.352 13.4129 10.1501 13.211C9.94827 13.0092 9.67447 12.8958 9.38897 12.8958C9.10347 12.8958 8.82967 13.0092 8.62779 13.211C8.42591 13.4129 8.3125 13.6867 8.3125 13.9722Z" fill="#C93F54"/>
<path d="M9.389 11.5438C9.29322 11.5447 9.19821 11.5265 9.10953 11.4903C9.02086 11.4541 8.9403 11.4006 8.87257 11.3328C8.80484 11.2651 8.7513 11.1845 8.71508 11.0959C8.67887 11.0072 8.6607 10.9122 8.66166 10.8164V5.68047C8.66166 5.48757 8.73829 5.30256 8.87469 5.16616C9.01109 5.02976 9.1961 4.95313 9.389 4.95313C9.5819 4.95312 9.76691 5.02976 9.90331 5.16616C10.0397 5.30256 10.1163 5.48757 10.1163 5.68047V10.8164C10.1158 11.0091 10.039 11.1938 9.9027 11.3301C9.76642 11.4664 9.58174 11.5432 9.389 11.5438Z" fill="#C93F54"/>
</svg>
