<svg width="24" height="24" viewBox="0 0 24 24" fill="none" xmlns="http://www.w3.org/2000/svg">
<circle cx="12" cy="12" r="12" fill="#4B5262"/>
<g clip-path="url(#clip0)">
<path d="M19.0021 15.4998C18.9993 15.7943 18.9212 16.0832 18.7751 16.339L14.3534 11.3952L18.729 7.58966C18.9062 7.86692 19.0008 8.1888 19.0021 8.5178V15.4978V15.4998ZM12.001 12.2944L18.0829 6.96657C17.8265 6.8234 17.5376 6.74834 17.2438 6.74854H6.74326C6.44824 6.74827 6.15804 6.82332 5.90013 6.96657L12.001 12.2944ZM13.6813 11.9673L12.2741 13.2055C12.1963 13.2789 12.0934 13.3197 11.9865 13.3197C11.8796 13.3197 11.7768 13.2789 11.699 13.2055L10.2908 11.9673L5.83912 16.9781C6.11541 17.1536 6.43593 17.2469 6.76326 17.2471H17.2648C17.5922 17.2469 17.9127 17.1536 18.189 16.9781L13.7013 11.9673H13.6813ZM5.27304 7.58966C5.09915 7.86248 5.00461 8.17831 5 8.5018V15.5028C5.00259 15.7974 5.08077 16.0863 5.22703 16.342L9.64569 11.3982L5.27404 7.59766L5.27304 7.58966Z" fill="#A7ACB8"/>
</g>
<defs>
<clipPath id="clip0">
<rect width="14" height="14" fill="white" transform="translate(5 5)"/>
</clipPath>
</defs>
</svg>
