<svg width="24" height="25" viewBox="0 0 24 25" fill="none" xmlns="http://www.w3.org/2000/svg">
<g clip-path="url(#clip0)">
<path d="M16.245 8.63899C16.521 8.63899 16.7925 8.65999 17.0655 8.68999C16.3305 5.26699 12.672 2.72449 8.4945 2.72449C3.825 2.72449 0 5.90599 0 9.94849C0 12.281 1.272 14.1965 3.399 15.6845L2.55 18.239L5.52 16.751C6.582 16.9595 7.434 17.1755 8.4945 17.1755C8.7615 17.1755 9.0255 17.1635 9.2865 17.144C9.1215 16.5755 9.024 15.9815 9.024 15.362C9.0255 11.651 12.2115 8.63899 16.245 8.63899ZM11.679 6.33649C12.321 6.33649 12.7425 6.75799 12.7425 7.39699C12.7425 8.03299 12.321 8.45899 11.679 8.45899C11.0445 8.45899 10.4055 8.03299 10.4055 7.39699C10.4055 6.75649 11.043 6.33649 11.679 6.33649ZM5.7345 8.45899C5.097 8.45899 4.455 8.03299 4.455 7.39699C4.455 6.75799 5.097 6.33649 5.7345 6.33649C6.372 6.33649 6.795 6.75649 6.795 7.39699C6.795 8.03299 6.372 8.45899 5.7345 8.45899ZM24 15.26C24 11.864 20.601 9.09649 16.7835 9.09649C12.741 9.09649 9.5595 11.8655 9.5595 15.26C9.5595 18.665 12.7425 21.4235 16.7835 21.4235C17.6295 21.4235 18.483 21.212 19.332 20.999L21.6615 22.277L21.0225 20.153C22.728 18.872 24 17.1755 24 15.26ZM14.4405 14.1965C14.019 14.1965 13.5915 13.7765 13.5915 13.3475C13.5915 12.9245 14.019 12.4985 14.4405 12.4985C15.0855 12.4985 15.504 12.9245 15.504 13.3475C15.504 13.7765 15.0855 14.1965 14.4405 14.1965ZM19.113 14.1965C18.6945 14.1965 18.2685 13.7765 18.2685 13.3475C18.2685 12.9245 18.693 12.4985 19.113 12.4985C19.752 12.4985 20.1765 12.9245 20.1765 13.3475C20.1765 13.7765 19.752 14.1965 19.113 14.1965Z" fill="white"/>
</g>
<defs>
<clipPath id="clip0">
<rect width="24" height="24" fill="white" transform="translate(0 0.5)"/>
</clipPath>
</defs>
</svg>
