<svg width="16" height="16" viewBox="0 0 16 16" fill="none" xmlns="http://www.w3.org/2000/svg">
<path d="M16 0H0V16H16V0Z" fill="white" fill-opacity="0.01"/>
<path d="M8.0009 6.99996C8.96735 6.99996 9.75081 6.2165 9.75081 5.25004C9.75081 4.28359 8.96735 3.50012 8.0009 3.50012C7.03444 3.50012 6.25098 4.28359 6.25098 5.25004C6.25098 6.2165 7.03444 6.99996 8.0009 6.99996Z" stroke="#21252F" stroke-width="0.749965" stroke-linecap="round" stroke-linejoin="round"/>
<path d="M5.00045 3.81396C4.5471 4.13019 4.25049 4.65556 4.25049 5.25023C4.25049 5.88677 4.59037 6.44395 5.09855 6.75016" stroke="#21252F" stroke-width="0.749965" stroke-linecap="round" stroke-linejoin="round"/>
<path d="M11.0005 3.81396C11.4538 4.13019 11.7505 4.65556 11.7505 5.25023C11.7505 5.84488 11.4538 6.37028 11.0005 6.68649" stroke="#21252F" stroke-width="0.749965" stroke-linecap="round" stroke-linejoin="round"/>
<path d="M5.00049 11.9996V12.4996H11.0002V11.9996C11.0002 11.0678 11.0002 10.6019 10.848 10.2343C10.645 9.7443 10.2557 9.35496 9.76564 9.152C9.39811 8.99976 8.93218 8.99976 8.00035 8.99976C7.06852 8.99976 6.60259 8.99976 6.23506 9.152C5.74503 9.35496 5.3557 9.7443 5.15273 10.2343C5.00049 10.6019 5.00049 11.0678 5.00049 11.9996Z" stroke="#21252F" stroke-width="0.749965" stroke-linecap="round" stroke-linejoin="round"/>
<path d="M13.0002 12.4998V12.1998C13.0002 11.0797 13.0002 10.5197 12.7822 10.0919C12.5905 9.7156 12.2845 9.40964 11.9082 9.2179" stroke="#21252F" stroke-width="0.749965" stroke-linecap="round" stroke-linejoin="round"/>
<path d="M3 12.4998V12.1998C3 11.0797 3 10.5197 3.21798 10.0919C3.40971 9.7156 3.71566 9.40964 4.09197 9.2179" stroke="#21252F" stroke-width="0.749965" stroke-linecap="round" stroke-linejoin="round"/>
</svg>
