<svg width="14" height="14" viewBox="0 0 14 14" fill="none" xmlns="http://www.w3.org/2000/svg">
<path d="M10.3436 2.33331H1.49786C0.745619 2.33331 0.139648 2.93928 0.139648 3.69152V12.5373C0.139648 13.2895 0.745619 13.8955 1.49786 13.8955H10.3436C11.0959 13.8955 11.7018 13.2895 11.7018 12.5373V3.69152C11.7018 2.93928 11.0959 2.33331 10.3436 2.33331ZM10.6571 12.5373C10.6571 12.7114 10.5178 12.8507 10.3436 12.8507H1.49786C1.32373 12.8507 1.18442 12.7114 1.18442 12.5373V3.69152C1.18442 3.51739 1.32373 3.37809 1.49786 3.37809H10.3436C10.5178 3.37809 10.6571 3.51739 10.6571 3.69152V12.5373Z" fill="#868D9A"/>
<path d="M12.5024 0.174072H3.65667C3.37109 0.174072 3.13428 0.410888 3.13428 0.69646C3.13428 0.982032 3.37109 1.21885 3.65667 1.21885H12.5024C12.6766 1.21885 12.8159 1.35815 12.8159 1.53228V10.3781C12.8159 10.6636 13.0527 10.9004 13.3383 10.9004C13.6238 10.9004 13.8606 10.6636 13.8606 10.3781V1.53228C13.8606 0.780042 13.2547 0.174072 12.5024 0.174072Z" fill="#868D9A"/>
</svg>
