<svg width="32" height="32" viewBox="0 0 32 32" fill="none" xmlns="http://www.w3.org/2000/svg">
<rect width="32" height="32" rx="4" fill="#F1A139"/>
<g clip-path="url(#clip0)">
<path d="M6.22217 12.7009V13.9585H25.7837V12.7009H6.22217ZM16.9676 19.3798H15.8671L14.6851 21.6992H15.8129L16.9676 19.3798ZM19.4128 19.3798H18.3123L17.185 21.6992H18.3123L19.4128 19.3798ZM23.9774 19.3798H20.7167L19.6297 21.6992H22.8355L23.9774 19.3798ZM23.4878 8.92834C23.7946 8.93277 24.0974 8.99877 24.3782 9.12243C24.659 9.24608 24.9121 9.42488 25.1225 9.64821C25.555 10.1067 25.7922 10.7154 25.7837 11.3456V21.6014C25.7922 22.2318 25.5551 22.8408 25.1225 23.2994C24.9121 23.5226 24.6589 23.7013 24.3781 23.8249C24.0973 23.9484 23.7945 24.0143 23.4878 24.0187H8.54496C8.23819 24.0143 7.93542 23.9484 7.65461 23.8249C7.37379 23.7013 7.12064 23.5226 6.91018 23.2994C6.4776 22.8408 6.24047 22.2318 6.249 21.6014V11.3456C6.23333 10.723 6.46451 10.1194 6.89212 9.66657C7.31972 9.21373 7.90905 8.94836 8.53155 8.92834H23.4878Z" fill="white"/>
</g>
<defs>
<clipPath id="clip0">
<rect width="19.5556" height="19.5556" fill="white" transform="translate(6.22217 6.69568)"/>
</clipPath>
</defs>
</svg>
