<svg width="44" height="44" viewBox="0 0 44 44" fill="none" xmlns="http://www.w3.org/2000/svg">
<g clip-path="url(#clip0)">
<path d="M15.0325 30.202C14.8523 30.203 14.6736 30.1685 14.5068 30.1003C14.34 30.0322 14.1882 29.9318 14.0603 29.8049C13.932 29.6776 13.8301 29.5262 13.7606 29.3593C13.6911 29.1924 13.6553 29.0135 13.6553 28.8327C13.6553 28.652 13.6911 28.473 13.7606 28.3061C13.8301 28.1393 13.932 27.9878 14.0603 27.8605L19.9756 21.9863L14.1698 16.0985C14.0274 15.9747 13.9122 15.8228 13.8312 15.6524C13.7503 15.4819 13.7055 15.2966 13.6996 15.108C13.6937 14.9194 13.7268 14.7316 13.7969 14.5565C13.867 14.3813 13.9725 14.2225 14.1069 14.09C14.2412 13.9575 14.4015 13.8543 14.5777 13.7867C14.7538 13.7191 14.942 13.6886 15.1305 13.6972C15.319 13.7058 15.5037 13.7533 15.673 13.8366C15.8422 13.9199 15.9925 14.0373 16.1142 14.1815L21.8789 20.0146L27.753 14.1678C28.0109 13.9099 28.3606 13.7651 28.7252 13.7651C29.0899 13.7651 29.4396 13.9099 29.6974 14.1678C29.9553 14.4256 30.1001 14.7753 30.1001 15.14C30.1001 15.5046 29.9553 15.8543 29.6974 16.1122L23.8369 21.9863L29.6974 27.9016C29.8398 28.0254 29.9551 28.1773 30.036 28.3477C30.1169 28.5182 30.1618 28.7035 30.1677 28.8921C30.1736 29.0807 30.1405 29.2684 30.0704 29.4436C30.0003 29.6188 29.8948 29.7776 29.7604 29.9101C29.626 30.0425 29.4658 30.1458 29.2896 30.2134C29.1135 30.281 28.9252 30.3114 28.7367 30.3029C28.5483 30.2943 28.3636 30.2468 28.1943 30.1635C28.025 30.0801 27.8748 29.9627 27.753 29.8186L21.8789 23.9033L16.0047 29.8049C15.8767 29.9318 15.725 30.0322 15.5582 30.1003C15.3913 30.1685 15.2127 30.203 15.0325 30.202Z" fill="url(#paint0_linear)"/>
</g>
<circle cx="22" cy="22" r="20" stroke="url(#paint1_linear)" stroke-width="4"/>
<defs>
<linearGradient id="paint0_linear" x1="13.8818" y1="14.6315" x2="31.8629" y2="17.4307" gradientUnits="userSpaceOnUse">
<stop stop-color="#02AD8F"/>
<stop offset="1" stop-color="#095D77"/>
</linearGradient>
<linearGradient id="paint1_linear" x1="0.603659" y1="2.47887" x2="48.5022" y2="9.97864" gradientUnits="userSpaceOnUse">
<stop stop-color="#02AD8F"/>
<stop offset="1" stop-color="#095D77"/>
</linearGradient>
<clipPath id="clip0">
<rect width="16.6897" height="16.6897" fill="white" transform="translate(13.6553 13.6552)"/>
</clipPath>
</defs>
</svg>
