<svg width="24" height="24" viewBox="0 0 24 24" fill="none" xmlns="http://www.w3.org/2000/svg">
<circle cx="12" cy="12" r="12" fill="#4B5262"/>
<path d="M16.5229 17.0271C15.4233 18.04 13.9229 18.6358 12.1327 18.6358C9.54083 18.6358 7.29833 17.149 6.20688 14.9823C5.75729 14.0858 5.5 13.0729 5.5 12.0004C5.5 10.9279 5.75729 9.91501 6.20688 9.01855C7.29833 6.84918 9.54083 5.3623 12.1327 5.3623C13.9202 5.3623 15.4206 6.02043 16.5717 7.09022L14.6704 8.99418C13.9825 8.33605 13.1077 8.00293 12.1354 8.00293C10.4075 8.00293 8.945 9.17022 8.42229 10.7383C8.28958 11.1365 8.21375 11.5617 8.21375 12.0004C8.21375 12.4392 8.28958 12.8644 8.42229 13.2625C8.945 14.8306 10.4075 15.9979 12.1327 15.9979C13.0265 15.9979 13.7848 15.7623 14.3779 15.3642C15.0821 14.8929 15.5479 14.1915 15.7023 13.36H12.1327V10.7925H18.3808C18.4594 11.2286 18.5 11.6808 18.5 12.1494C18.5 14.1725 17.7769 15.8706 16.5229 17.0271Z" fill="#A7ACB8"/>
</svg>
