<svg width="24" height="24" viewBox="0 0 24 24" fill="none" xmlns="http://www.w3.org/2000/svg">
<circle cx="12" cy="12" r="12" fill="#4B5262"/>
<path d="M17.5625 15.7703V17.6391C17.5625 18.3734 16.9672 18.9688 16.2328 18.9688H7.89219C7.15781 18.9688 6.5625 18.3734 6.5625 17.6391V15.7703H17.5625ZM12.0625 16.525C11.6059 16.525 11.2357 16.8951 11.2357 17.3516C11.2357 17.8081 11.6059 18.1781 12.0625 18.1781C12.5191 18.1781 12.8893 17.8081 12.8893 17.3516C12.8893 16.8951 12.5191 16.525 12.0625 16.525ZM16.2328 4.95312C16.9672 4.95312 17.5625 5.54844 17.5625 6.28281V14.8H6.5625V6.28281C6.5625 5.54844 7.15781 4.95312 7.89219 4.95312H16.2328ZM13.9398 6.03125H10.1932L10.1822 6.03137C9.92919 6.03723 9.72591 6.24411 9.72591 6.49844C9.72591 6.75645 9.93512 6.96563 10.1932 6.96563H13.9398L13.9508 6.9655C14.2038 6.95964 14.4071 6.75277 14.4071 6.49844C14.4071 6.24042 14.1979 6.03125 13.9398 6.03125Z" fill="#A7ACB8"/>
</svg>
