<svg width="6" height="11" viewBox="0 0 6 11" fill="none" xmlns="http://www.w3.org/2000/svg">
<path d="M4.94979 6.87512C5.02512 6.87518 5.09916 6.89469 5.16473 6.93175C5.23031 6.96882 5.28521 7.02219 5.3241 7.0867C5.363 7.15121 5.38459 7.22467 5.38677 7.29996C5.38894 7.37526 5.37165 7.44984 5.33654 7.51649L5.3081 7.56331L3.0856 10.7382C3.04792 10.7921 2.99861 10.8367 2.94132 10.8688C2.88403 10.901 2.82023 10.9198 2.75467 10.9239C2.68911 10.928 2.62346 10.9173 2.5626 10.8926C2.50174 10.8679 2.44722 10.8298 2.4031 10.7811L2.36898 10.7382L0.146479 7.56331C0.103137 7.50129 0.07662 7.42909 0.0695181 7.35376C0.0624161 7.27843 0.074972 7.20255 0.105959 7.13352C0.136946 7.06449 0.185305 7.00468 0.246314 6.95993C0.307323 6.91518 0.378895 6.88701 0.454042 6.87818L0.505229 6.87512H4.94979ZM2.95173 0.787743C3.01331 0.82469 3.06485 0.876227 3.10179 0.937806L5.39167 4.75412C5.43155 4.8205 5.45309 4.89627 5.45411 4.9737C5.45512 5.05113 5.43557 5.12744 5.39744 5.19484C5.35932 5.26224 5.30398 5.31831 5.2371 5.35733C5.17021 5.39635 5.09416 5.41692 5.01673 5.41693H0.437417C0.359981 5.41692 0.283936 5.39635 0.217049 5.35733C0.150162 5.31831 0.09483 5.26224 0.0567036 5.19484C0.0185772 5.12744 -0.000977136 5.05113 3.75732e-05 4.9737C0.00105228 4.89627 0.0225998 4.8205 0.0624793 4.75412L2.35235 0.937806C2.41205 0.838427 2.50875 0.766804 2.62121 0.738668C2.73367 0.710532 2.85227 0.728182 2.95173 0.787743Z" fill="#636B77"/>
<path d="M4.94983 6.875C5.02516 6.87506 5.0992 6.89457 5.16477 6.93163C5.23035 6.9687 5.28525 7.02207 5.32414 7.08658C5.36304 7.15109 5.38463 7.22455 5.38681 7.29985C5.38898 7.37514 5.37169 7.44973 5.33658 7.51638L5.30814 7.56319L3.08564 10.7381C3.04796 10.7919 2.99865 10.8366 2.94136 10.8687C2.88407 10.9009 2.82027 10.9197 2.75471 10.9238C2.68915 10.9279 2.6235 10.9172 2.56264 10.8925C2.50178 10.8678 2.44726 10.8297 2.40314 10.781L2.36902 10.7381L0.14652 7.56319C0.103178 7.50117 0.0766606 7.42897 0.0695586 7.35364C0.0624566 7.27831 0.0750125 7.20243 0.106 7.1334C0.136987 7.06437 0.185346 7.00456 0.246355 6.95981C0.307363 6.91506 0.378936 6.88689 0.454082 6.87806L0.505269 6.875H4.94983Z" fill="white"/>
</svg>
