<svg width="32" height="32" viewBox="0 0 32 32" fill="none" xmlns="http://www.w3.org/2000/svg">
<rect width="32" height="32" rx="4" fill="#02AD8F"/>
<path d="M14.0125 18.2419C13.0159 18.8444 12.8676 17.9037 12.8676 17.9037L11.6181 14.7463C11.1376 13.2459 12.0346 14.0698 12.0346 14.0698C12.0346 14.0698 12.8036 14.6996 13.3877 15.0846C13.9719 15.4686 14.6373 15.1974 14.6373 15.1974L22.8028 11.1146C21.2963 9.08283 18.8074 7.7561 15.9894 7.7561C11.3915 7.7561 7.66431 11.2893 7.66431 15.6494C7.66431 18.1566 8.89758 20.3875 10.8206 21.8341L10.4742 23.9928C10.4742 23.9928 10.3046 24.6226 10.8907 24.3311C11.29 24.132 12.3068 23.4168 12.9123 22.983C13.8962 23.3536 14.939 23.5429 15.9904 23.5418C20.5882 23.5418 24.3165 20.0085 24.3165 15.6484C24.3165 14.3867 24.0016 13.1941 23.4459 12.1355C20.8442 13.831 14.7917 17.7716 14.0125 18.2409V18.2419Z" fill="white"/>
</svg>
