<svg width="21" height="20" viewBox="0 0 21 20" fill="none" xmlns="http://www.w3.org/2000/svg">
<path d="M20 0H0V20H20V0Z" fill="white" fill-opacity="0.01"/>
<path d="M10.8333 19.1663C15.8959 19.1663 20 15.0623 20 9.99966C20 4.93706 15.8959 0.833008 10.8333 0.833008C5.77074 0.833008 1.66669 4.93706 1.66669 9.99966C1.66669 15.0623 5.77074 19.1663 10.8333 19.1663Z" fill="#02AD8F" stroke="#02AD8F" stroke-width="1.375" stroke-linecap="round" stroke-linejoin="round"/>
<path d="M10.7843 6.78411V5.17627M8.77453 6.78411V9.99979H11.5882C12.4762 9.99979 13.1961 9.27992 13.1961 8.39195C13.1961 7.50398 12.4762 6.78411 11.5882 6.78411H10.7843H8.77453ZM8.77453 6.78411H7.16669H8.77453ZM8.77453 6.78411V5.17627V6.78411ZM8.77453 6.78411H10.7843H8.77453Z" stroke="white" stroke-width="1.20588" stroke-linecap="round" stroke-linejoin="round"/>
<path d="M10.7843 13.2157V14.8235M8.77453 13.2157V10H12.3922C13.2801 10 14 10.7199 14 11.6078C14 12.4958 13.2801 13.2157 12.3922 13.2157H10.7843H8.77453ZM8.77453 13.2157V14.8235V13.2157ZM8.77453 13.2157H7.16669H10.7843H8.77453ZM8.77453 13.2157H10.7843H8.77453Z" stroke="white" stroke-width="1.20588" stroke-linecap="round" stroke-linejoin="round"/>
</svg>
