<svg width="20" height="20" viewBox="0 0 20 20" fill="none" xmlns="http://www.w3.org/2000/svg">
<path d="M10 20C4.47688 20 0 15.5231 0 10C0 4.47688 4.47688 0 10 0C15.5231 0 20 4.47688 20 10C20 15.5231 15.5231 20 10 20ZM13.2362 8.32063C13.495 8.15 13.8419 7.7975 13.9237 7.45062C13.6673 7.62482 13.3631 7.71502 13.0531 7.70875C13.4062 7.53875 13.665 7.28 13.7531 6.83813C13.4125 7.02063 13.1538 7.19125 12.7125 7.28C11.7531 6.1375 9.475 7.02063 9.91625 8.76312C8.3325 8.68062 7.3725 7.89125 6.59 7.02063C6.155 7.72062 6.5025 8.85688 7.115 9.20438C6.76062 9.20438 6.58375 9.1225 6.41375 9.03375C6.41375 9.905 6.94375 10.4288 7.645 10.6938H6.94375C7.20312 11.2938 7.64437 11.735 8.42688 11.735C7.90937 12.265 6.85563 12.5238 6.07312 12.435C6.77313 12.9594 7.55625 13.3063 8.69812 13.2181C11.3994 13.1294 13.2362 11.1163 13.2362 8.32063Z" fill="#868D9A"/>
</svg>
