<svg width="14" height="14" viewBox="0 0 14 14" fill="none" xmlns="http://www.w3.org/2000/svg">
<path d="M12.4114 6.38607L11.3286 5.32376V3.98392C11.3272 3.50677 11.4694 2.64544 10.995 2.64407H8.32622L7.65903 1.64056C7.32271 1.30423 6.71841 1.22083 6.38208 1.55716L5.65747 2.64544H3.65454C3.17876 2.64681 2.63052 3.02142 2.62915 3.49857V5.25267L1.56958 6.38743C1.23462 6.72513 1.23462 7.272 1.56958 7.6097L2.62915 8.7595V10.5136C2.63052 10.9908 2.84517 11.3517 3.32095 11.3531H5.32251L6.38071 12.4386C6.71704 12.7749 7.26255 12.7749 7.59888 12.4386L8.65845 11.3531H10.3264C10.8022 11.3517 11.3258 10.8253 11.3272 10.3482V8.67337L12.41 7.6097C12.7463 7.27064 12.7463 6.72513 12.4114 6.38607ZM6.99868 9.63587L3.94028 5.2513H6.12505L6.99048 7.86263L7.87231 5.2513H10.0571L6.99868 9.63587Z" fill="#29F3AA"/>
</svg>
