<svg width="20" height="20" viewBox="0 0 20 20" fill="none" xmlns="http://www.w3.org/2000/svg">
<path d="M20 0H0V20H20V0Z" fill="white" fill-opacity="0.01"/>
<path d="M3.99293 11.3259C3.27799 11.8141 2.92053 12.6222 2.92053 13.75C2.92053 15.4417 5.00004 18.3333 6.87525 18.3333C8.75042 18.3333 9.83796 18.3333 11.6733 18.3333C13.5087 18.3333 14.6235 16.7288 14.6235 15.4417C14.6235 13.7111 14.6235 11.9805 14.6235 10.25C14.6235 9.50287 14.019 8.89662 13.2719 8.89454C12.5275 8.89245 11.9223 9.49425 11.9202 10.2387C11.9202 10.2399 11.9202 10.2412 11.9202 10.2425V10.2847" stroke="white" stroke-width="1.25" stroke-linecap="round"/>
<path d="M4.5755 12.2687V3.19253C4.5755 2.4522 5.17567 1.85205 5.91596 1.85205C6.65629 1.85205 7.25646 2.4522 7.25646 3.19253V9.85311" stroke="white" stroke-width="1.25" stroke-linecap="round"/>
<path d="M7.25646 10.0003V8.25338C7.25646 7.60804 7.77959 7.08496 8.42488 7.08496C9.07017 7.08496 9.59329 7.60804 9.59329 8.25338V10.1782" stroke="white" stroke-width="1.25" stroke-linecap="round" stroke-linejoin="round"/>
<path d="M9.58334 10.2741V9.08639C9.58334 8.44105 10.1065 7.91797 10.7518 7.91797C11.397 7.91797 11.9202 8.44105 11.9202 9.08639V10.418" stroke="white" stroke-width="1.25" stroke-linecap="round" stroke-linejoin="round"/>
<path d="M4.58334 3.3335H17.0833" stroke="white" stroke-width="1.25" stroke-linecap="round"/>
<path d="M15 5.20848L15.6945 4.58348L17.0833 3.3335L15.6945 2.0835L15 1.4585" stroke="white" stroke-width="1.25" stroke-linecap="round" stroke-linejoin="round"/>
</svg>
