<svg width="26" height="26" viewBox="0 0 26 26" fill="none" xmlns="http://www.w3.org/2000/svg">
<path d="M23.1472 2.85278H2.85278V9.09016H6.13561V23.1439H19.8611V9.09016H23.1439V2.85278H23.1472ZM18.5513 21.8341H7.44874V6.79218H18.548V21.8341H18.5513ZM21.8341 7.77703H19.8644V6.79218H20.521V5.47905H5.47905V6.79218H6.13561V7.77703H4.16591V4.16591H21.8308V7.77703H21.8341Z" fill="#727988"/>
<path d="M9.16968 17.7892L15.9014 11.0574L16.8299 11.986L10.0982 18.7177L9.16968 17.7892ZM15.1896 15.1076C14.103 15.1076 13.2199 15.9906 13.2199 17.0773C13.2199 18.1639 14.103 19.047 15.1896 19.047C16.2762 19.047 17.1593 18.1639 17.1593 17.0773C17.1593 15.9906 16.2762 15.1076 15.1896 15.1076ZM15.1896 17.7338C14.8285 17.7338 14.5331 17.4384 14.5331 17.0773C14.5331 16.7162 14.8285 16.4207 15.1896 16.4207C15.5507 16.4207 15.8462 16.7162 15.8462 17.0773C15.8462 17.4384 15.5507 17.7338 15.1896 17.7338ZM10.8103 14.6677C11.897 14.6677 12.78 13.7846 12.78 12.698C12.78 11.6114 11.897 10.7283 10.8103 10.7283C9.72372 10.7283 8.84064 11.6114 8.84064 12.698C8.84064 13.7846 9.72372 14.6677 10.8103 14.6677ZM10.8103 12.0414C11.1714 12.0414 11.4669 12.3369 11.4669 12.698C11.4669 13.0591 11.1714 13.3545 10.8103 13.3545C10.4492 13.3545 10.1538 13.0591 10.1538 12.698C10.1538 12.3369 10.4492 12.0414 10.8103 12.0414Z" fill="#727988"/>
<path d="M15.1896 15.1075C14.103 15.1075 13.2199 15.9906 13.2199 17.0772C13.2199 18.1639 14.103 19.0469 15.1896 19.0469C16.2762 19.0469 17.1593 18.1639 17.1593 17.0772C17.1593 15.9906 16.2762 15.1075 15.1896 15.1075ZM15.1896 17.7338C14.8285 17.7338 14.533 17.4384 14.533 17.0772C14.533 16.7161 14.8285 16.4207 15.1896 16.4207C15.5507 16.4207 15.8462 16.7161 15.8462 17.0772C15.8462 17.4384 15.5507 17.7338 15.1896 17.7338Z" fill="#02AD8F"/>
</svg>
