<svg width="28" height="28" viewBox="0 0 28 28" fill="none" xmlns="http://www.w3.org/2000/svg">
<path d="M14.0699 17.9199C13.9258 17.9199 13.7847 17.8781 13.6639 17.7995L2.65991 10.6399L3.47191 9.37988L14.0699 16.2757L24.6679 9.37988L25.4799 10.6399L14.4759 17.7995C14.3551 17.8781 14.2141 17.9199 14.0699 17.9199Z" fill="#02AD8F"/>
<path d="M24.878 22.68H2.98272C2.78737 22.6813 2.5995 22.605 2.46037 22.4679C2.32124 22.3307 2.24224 22.144 2.24072 21.9486V6.19134C2.24224 5.99599 2.32124 5.80924 2.46037 5.6721C2.5995 5.53497 2.78737 5.45867 2.98272 5.45998H24.878C25.0734 5.45867 25.2612 5.53497 25.4004 5.6721C25.5395 5.80924 25.6185 5.99599 25.62 6.19134V21.9486C25.6185 22.144 25.5395 22.3307 25.4004 22.4679C25.2612 22.605 25.0734 22.6813 24.878 22.68ZM3.72542 21.2171H24.1346V6.92284H3.72542V21.2168V21.2171Z" fill="#868D9A"/>
</svg>
