<svg width="26" height="26" viewBox="0 0 26 26" fill="none" xmlns="http://www.w3.org/2000/svg">
<path d="M15.8936 4.53833C16.4115 4.53833 16.9082 4.74406 17.2744 5.11027C17.6406 5.47647 17.8463 5.97315 17.8463 6.49104V13.664H17.7949V14.3149H17.1954C17.0228 14.3149 16.8572 14.2463 16.7352 14.1243C16.6131 14.0022 16.5445 13.8366 16.5445 13.664V6.49104C16.5445 6.31841 16.476 6.15285 16.3539 6.03078C16.2318 5.90871 16.0663 5.84014 15.8936 5.84014H8.08279C7.91016 5.84014 7.7446 5.90871 7.62253 6.03078C7.50047 6.15285 7.43189 6.31841 7.43189 6.49104V13.664C7.43189 13.8366 7.36331 14.0022 7.24124 14.1243C7.11918 14.2463 6.95362 14.3149 6.78099 14.3149H4.90443L12.3944 20.3026L12.2531 20.4796L12.7172 21.0622L12.3937 21.3199C12.2784 21.4119 12.1353 21.4619 11.9879 21.4619C11.8404 21.4619 11.6973 21.4119 11.582 21.3199L3.367 14.7517C3.20888 14.6254 3.09392 14.453 3.038 14.2585C2.98209 14.0641 2.988 13.857 3.0549 13.666C3.1218 13.475 3.2464 13.3095 3.41146 13.1925C3.57651 13.0754 3.77388 13.0125 3.97624 13.0124H6.13008V6.49104C6.13008 5.97315 6.33581 5.47647 6.70202 5.11027C7.06822 4.74406 7.5649 4.53833 8.08279 4.53833H15.8936ZM14.4603 8.49061C14.5712 8.6228 14.625 8.79358 14.61 8.96542C14.5949 9.13726 14.5123 9.29611 14.3803 9.40709L12.9483 10.608L13.9455 10.6087C14.1049 10.6087 14.2588 10.6672 14.3779 10.7731C14.4971 10.8791 14.5732 11.0251 14.5918 11.1834L14.5964 11.2596C14.5963 11.4191 14.5377 11.573 14.4316 11.6922C14.3256 11.8113 14.1794 11.8874 14.021 11.9059L13.9455 11.9105H12.6391V12.9532L13.9409 12.9539C14.1004 12.9539 14.2544 13.0125 14.3736 13.1186C14.4927 13.2247 14.5688 13.3708 14.5873 13.5293L14.5918 13.6048C14.5918 13.7642 14.5333 13.9181 14.4273 14.0372C14.3214 14.1563 14.1754 14.2325 14.0171 14.2511L13.9409 14.2563H12.6391V16.9888C12.6391 17.1482 12.5806 17.3021 12.4746 17.4212C12.3687 17.5404 12.2227 17.6165 12.0644 17.6352L11.9882 17.6397C11.8287 17.6397 11.6747 17.581 11.5556 17.475C11.4364 17.3689 11.3604 17.2228 11.3419 17.0643L11.3373 16.9882V14.255L10.0355 14.2557C9.87607 14.2556 9.7222 14.1971 9.60306 14.0912C9.48392 13.9852 9.40781 13.8392 9.38915 13.6809L9.3846 13.6048C9.38462 13.4453 9.44315 13.2915 9.54909 13.1723C9.65503 13.0532 9.80101 12.9771 9.95935 12.9584L10.0355 12.9539H11.3373V11.9098L10.0401 11.9105C9.88063 11.9104 9.72675 11.8519 9.60762 11.746C9.48848 11.64 9.41236 11.494 9.39371 11.3357L9.38915 11.2596C9.38918 11.1001 9.44771 10.9463 9.55365 10.8271C9.65959 10.708 9.80557 10.6319 9.9639 10.6132L10.0401 10.6087H11.0275L9.59614 9.40709C9.47483 9.30524 9.39481 9.16266 9.37109 9.00605C9.34736 8.84944 9.38156 8.68956 9.46726 8.55636L9.51608 8.49061C9.61795 8.36913 9.76066 8.289 9.91741 8.26527C10.0742 8.24155 10.2342 8.27584 10.3675 8.36174L10.4326 8.4099L11.9882 9.71496L13.5439 8.4099C13.6761 8.29916 13.847 8.24546 14.0188 8.2606C14.1907 8.27573 14.3495 8.35846 14.4603 8.49061Z" fill="#727988"/>
<path d="M11.5827 20.3019C11.4513 20.4106 11.3679 20.5665 11.3503 20.7362C11.3327 20.9058 11.3824 21.0755 11.4886 21.2089C11.5949 21.3423 11.7492 21.4286 11.9185 21.4494C12.0878 21.4701 12.2584 21.4236 12.3937 21.3199L20.6322 14.7529C20.7906 14.6267 20.9057 14.4544 20.9618 14.2599C21.0179 14.0653 21.0121 13.8582 20.9453 13.667C20.8784 13.4759 20.7538 13.3103 20.5887 13.1932C20.4236 13.076 20.2261 13.0131 20.0236 13.0131H17.1954C17.0228 13.0131 16.8573 13.0816 16.7352 13.2037C16.6131 13.3258 16.5445 13.4913 16.5445 13.664C16.5445 13.8366 16.6131 14.0022 16.7352 14.1242C16.8573 14.2463 17.0228 14.3149 17.1954 14.3149H19.0928L11.5827 20.3019Z" fill="#02AD8F"/>
</svg>
