<svg width="26" height="26" viewBox="0 0 26 26" fill="none" xmlns="http://www.w3.org/2000/svg">
<path d="M20.51 5H5.64625C5.28879 5 5 5.28879 5 5.64625V20.51C5 20.8675 5.28879 21.1562 5.64625 21.1562H20.51C20.8675 21.1562 21.1562 20.8675 21.1562 20.51V5.64625C21.1562 5.28879 20.8675 5 20.51 5ZM19.7022 19.7022H6.45406V6.45406H19.7022V19.7022ZM9.60453 16.5315V18.0866C9.60453 18.1754 9.67723 18.2481 9.76609 18.2481H10.7355C10.8243 18.2481 10.897 18.1754 10.897 18.0866V16.5315C10.6931 16.5982 10.477 16.6325 10.2508 16.6325C10.0246 16.6325 9.8085 16.5961 9.60453 16.5315ZM10.897 12.5329V8.06969C10.897 7.98083 10.8243 7.90812 10.7355 7.90812H9.76609C9.67723 7.90812 9.60453 7.98083 9.60453 8.06969V12.5329C9.8085 12.4662 10.0246 12.4319 10.2508 12.4319C10.477 12.4319 10.6931 12.4682 10.897 12.5329ZM9.60453 16.5315C9.8085 16.5982 10.0246 16.6325 10.2508 16.6325C10.477 16.6325 10.6931 16.5961 10.897 16.5315C11.7412 16.2589 12.3511 15.4672 12.3511 14.5322C12.3511 13.5971 11.7412 12.8055 10.897 12.5329C10.6931 12.4662 10.477 12.4319 10.2508 12.4319C10.0246 12.4319 9.8085 12.4682 9.60453 12.5329C8.76037 12.8055 8.15047 13.5971 8.15047 14.5322C8.15047 15.4672 8.76037 16.2589 9.60453 16.5315ZM9.60655 14.1949C9.61261 14.1828 9.62069 14.1707 9.62675 14.1586V14.1566L9.65098 14.1202C9.653 14.1162 9.65502 14.1141 9.65704 14.1101C9.6631 14.1 9.67118 14.0919 9.67723 14.0818C9.67925 14.0798 9.68127 14.0758 9.68329 14.0738C9.69339 14.0616 9.70147 14.0515 9.71157 14.0414L9.71763 14.0354L9.74186 14.0111L9.74994 14.0031C9.76004 13.993 9.77013 13.9849 9.78225 13.9748C9.79437 13.9647 9.80446 13.9566 9.81658 13.9485C9.82062 13.9465 9.82264 13.9445 9.82668 13.9425C9.83678 13.9364 9.84486 13.9283 9.85495 13.9223C9.85697 13.9203 9.86101 13.9183 9.86303 13.9162C9.87515 13.9082 9.88727 13.9021 9.9014 13.894C9.90342 13.892 9.90746 13.892 9.90948 13.89C9.91958 13.8839 9.92968 13.8799 9.94179 13.8738L9.95391 13.8678C9.96805 13.8617 9.98016 13.8556 9.9943 13.8516C10.0084 13.8455 10.0226 13.8415 10.0367 13.8375C10.0408 13.8354 10.0448 13.8355 10.0488 13.8334C10.0609 13.8294 10.071 13.8274 10.0832 13.8254C10.0872 13.8254 10.0892 13.8233 10.0933 13.8233C10.1074 13.8193 10.1236 13.8173 10.1377 13.8153C10.1417 13.8153 10.1437 13.8153 10.1478 13.8132C10.1599 13.8112 10.172 13.8112 10.1841 13.8092H10.1963C10.2124 13.8092 10.2265 13.8072 10.2427 13.8072C10.2589 13.8072 10.273 13.8072 10.2892 13.8092H10.3013C10.3134 13.8092 10.3255 13.8112 10.3376 13.8132C10.3417 13.8132 10.3437 13.8132 10.3477 13.8153C10.3619 13.8173 10.378 13.8193 10.3921 13.8233C10.3962 13.8233 10.3982 13.8254 10.4022 13.8254C10.4144 13.8274 10.4265 13.8314 10.4366 13.8334C10.4406 13.8355 10.4447 13.8354 10.4487 13.8375C10.4628 13.8415 10.477 13.8455 10.4911 13.8516C10.5052 13.8556 10.5174 13.8617 10.5315 13.8678L10.5436 13.8738C10.5537 13.8779 10.5658 13.8839 10.5759 13.89C10.5779 13.892 10.582 13.892 10.584 13.894C10.5961 13.9001 10.6103 13.9082 10.6224 13.9162C10.6244 13.9183 10.6284 13.9203 10.6305 13.9223C10.6406 13.9283 10.6506 13.9344 10.6587 13.9425C10.6628 13.9445 10.6648 13.9465 10.6688 13.9485C10.6809 13.9566 10.6931 13.9667 10.7032 13.9748C10.7133 13.9829 10.7254 13.993 10.7355 14.0031L10.7435 14.0111L10.7678 14.0354L10.7738 14.0414C10.7839 14.0515 10.794 14.0637 10.8021 14.0738C10.8041 14.0758 10.8062 14.0798 10.8082 14.0818C10.8163 14.0899 10.8223 14.1 10.8284 14.1101C10.8304 14.1141 10.8324 14.1162 10.8344 14.1202L10.8587 14.1566C10.8587 14.1566 10.8587 14.1586 10.8607 14.1586C10.8688 14.1707 10.8748 14.1828 10.8809 14.1949C10.9334 14.2959 10.9637 14.411 10.9637 14.5322C10.9637 14.6534 10.9334 14.7685 10.8809 14.8694C10.8748 14.8816 10.8667 14.8937 10.8607 14.9058C10.8607 14.9058 10.8607 14.9078 10.8587 14.9078L10.8344 14.9442C10.8324 14.9482 10.8304 14.9502 10.8284 14.9543C10.8223 14.9644 10.8142 14.9724 10.8082 14.9825C10.8062 14.9846 10.8041 14.9886 10.8021 14.9906C10.792 15.0027 10.7839 15.0128 10.7738 15.0229L10.7678 15.029L10.7435 15.0532L10.7355 15.0613C10.7254 15.0714 10.7153 15.0795 10.7032 15.0896C10.691 15.0997 10.6809 15.1078 10.6688 15.1158C10.6648 15.1179 10.6628 15.1199 10.6587 15.1219C10.6486 15.1279 10.6406 15.136 10.6305 15.1421C10.6284 15.1441 10.6244 15.1461 10.6224 15.1481C10.6103 15.1562 10.5981 15.1623 10.584 15.1704C10.582 15.1724 10.5779 15.1724 10.5759 15.1744C10.5658 15.1805 10.5557 15.1845 10.5436 15.1906L10.5315 15.1966C10.5174 15.2027 10.5052 15.2087 10.4911 15.2128C10.477 15.2188 10.4628 15.2229 10.4487 15.2269C10.4447 15.2289 10.4406 15.2289 10.4366 15.2309C10.4245 15.235 10.4144 15.237 10.4022 15.239C10.3982 15.239 10.3962 15.241 10.3921 15.241C10.378 15.2451 10.3619 15.2471 10.3477 15.2491C10.3437 15.2491 10.3417 15.2491 10.3376 15.2511C10.3255 15.2532 10.3134 15.2532 10.3013 15.2552H10.2892C10.273 15.2552 10.2589 15.2572 10.2427 15.2572C10.2265 15.2572 10.2124 15.2572 10.1963 15.2552H10.1841C10.172 15.2552 10.1599 15.2532 10.1478 15.2511C10.1437 15.2511 10.1417 15.2511 10.1377 15.2491C10.1236 15.2471 10.1074 15.2451 10.0933 15.241C10.0892 15.241 10.0872 15.239 10.0832 15.239C10.071 15.237 10.0589 15.233 10.0488 15.2309C10.0448 15.2289 10.0408 15.2289 10.0367 15.2269C10.0226 15.2229 10.0084 15.2188 9.9943 15.2128C9.98016 15.2087 9.96805 15.2027 9.95391 15.1966L9.94179 15.1906C9.9317 15.1865 9.91958 15.1805 9.90948 15.1744C9.90746 15.1724 9.90342 15.1724 9.9014 15.1704C9.88929 15.1643 9.87515 15.1562 9.86303 15.1481C9.86101 15.1461 9.85697 15.1441 9.85495 15.1421C9.84486 15.136 9.83476 15.13 9.82668 15.1219C9.82264 15.1199 9.82062 15.1179 9.81658 15.1158C9.80446 15.1078 9.79235 15.0977 9.78225 15.0896C9.77215 15.0815 9.76004 15.0714 9.74994 15.0613L9.74186 15.0532L9.71763 15.029L9.71157 15.0229C9.70147 15.0128 9.69137 15.0007 9.68329 14.9906C9.68127 14.9886 9.67925 14.9846 9.67723 14.9825C9.66916 14.9745 9.6631 14.9644 9.65704 14.9543C9.65502 14.9502 9.653 14.9482 9.65098 14.9442L9.62675 14.9078V14.9058C9.61867 14.8937 9.61261 14.8816 9.60655 14.8694C9.55404 14.7685 9.52375 14.6534 9.52375 14.5322C9.52375 14.411 9.55404 14.2959 9.60655 14.1949ZM15.2592 13.6234V18.0866C15.2592 18.1754 15.3319 18.2481 15.4208 18.2481H16.3902C16.479 18.2481 16.5517 18.1754 16.5517 18.0866V13.6234C16.3477 13.69 16.1317 13.7244 15.9055 13.7244C15.6793 13.7244 15.4632 13.688 15.2592 13.6234ZM16.5517 9.62473V8.06969C16.5517 7.98083 16.479 7.90812 16.3902 7.90812H15.4208C15.3319 7.90812 15.2592 7.98083 15.2592 8.06969V9.62473C15.4632 9.55808 15.6793 9.52375 15.9055 9.52375C16.1317 9.52375 16.3477 9.5601 16.5517 9.62473ZM15.2592 13.6234C15.4632 13.69 15.6793 13.7244 15.9055 13.7244C16.1317 13.7244 16.3477 13.688 16.5517 13.6234C17.3959 13.3508 18.0058 12.5591 18.0058 11.6241C18.0058 10.689 17.3959 9.89736 16.5517 9.62473C16.3477 9.55808 16.1317 9.52375 15.9055 9.52375C15.6793 9.52375 15.4632 9.5601 15.2592 9.62473C14.4151 9.89736 13.8052 10.689 13.8052 11.6241C13.8052 12.5591 14.4151 13.3508 15.2592 13.6234ZM15.2612 11.2868C15.2673 11.2747 15.2754 11.2626 15.2814 11.2504V11.2484L15.3057 11.2121C15.3077 11.208 15.3097 11.206 15.3117 11.202C15.3178 11.1919 15.3259 11.1838 15.3319 11.1737C15.3339 11.1717 15.336 11.1676 15.338 11.1656C15.3481 11.1535 15.3562 11.1434 15.3663 11.1333L15.3723 11.1273L15.3965 11.103L15.4046 11.0949C15.4147 11.0848 15.4248 11.0768 15.4369 11.0667C15.4491 11.0566 15.4592 11.0485 15.4713 11.0404C15.4753 11.0384 15.4773 11.0364 15.4814 11.0344C15.4915 11.0283 15.4995 11.0202 15.5096 11.0142C15.5117 11.0121 15.5157 11.0101 15.5177 11.0081C15.5298 11 15.542 10.994 15.5561 10.9859C15.5581 10.9839 15.5621 10.9839 15.5642 10.9819C15.5743 10.9758 15.5844 10.9718 15.5965 10.9657L15.6086 10.9596C15.6227 10.9536 15.6349 10.9475 15.649 10.9435C15.6631 10.9374 15.6773 10.9334 15.6914 10.9293C15.6954 10.9273 15.6995 10.9273 15.7035 10.9253C15.7156 10.9213 15.7257 10.9192 15.7378 10.9172C15.7419 10.9172 15.7439 10.9152 15.7479 10.9152C15.7621 10.9112 15.7782 10.9091 15.7924 10.9071C15.7964 10.9071 15.7984 10.9071 15.8025 10.9051C15.8146 10.9031 15.8267 10.9031 15.8388 10.9011H15.8509C15.8671 10.9011 15.8812 10.8991 15.8974 10.8991C15.9135 10.8991 15.9277 10.8991 15.9438 10.9011H15.956C15.9681 10.9011 15.9802 10.9031 15.9923 10.9051C15.9963 10.9051 15.9984 10.9051 16.0024 10.9071C16.0165 10.9091 16.0327 10.9112 16.0468 10.9152C16.0509 10.9152 16.0529 10.9172 16.0569 10.9172C16.0691 10.9192 16.0812 10.9233 16.0913 10.9253C16.0953 10.9273 16.0993 10.9273 16.1034 10.9293C16.1175 10.9334 16.1317 10.9374 16.1458 10.9435C16.1599 10.9475 16.172 10.9536 16.1862 10.9596L16.1983 10.9657C16.2084 10.9697 16.2205 10.9758 16.2306 10.9819C16.2326 10.9839 16.2367 10.9839 16.2387 10.9859C16.2508 10.9919 16.2649 11 16.2771 11.0081C16.2791 11.0101 16.2831 11.0121 16.2851 11.0142C16.2952 11.0202 16.3053 11.0263 16.3134 11.0344C16.3175 11.0364 16.3195 11.0384 16.3235 11.0404C16.3356 11.0485 16.3477 11.0586 16.3578 11.0667C16.3679 11.0747 16.3801 11.0848 16.3902 11.0949L16.3982 11.103L16.4225 11.1273L16.4285 11.1333C16.4386 11.1434 16.4487 11.1555 16.4568 11.1656C16.4588 11.1676 16.4608 11.1717 16.4629 11.1737C16.4709 11.1818 16.477 11.1919 16.4831 11.202C16.4851 11.206 16.4871 11.208 16.4891 11.2121L16.5133 11.2484V11.2504C16.5214 11.2626 16.5275 11.2747 16.5335 11.2868C16.5861 11.3878 16.6163 11.5029 16.6163 11.6241C16.6163 11.7452 16.5861 11.8603 16.5335 11.9613C16.5275 11.9734 16.5194 11.9856 16.5133 11.9977V11.9997L16.4891 12.036C16.4871 12.0401 16.4851 12.0421 16.4831 12.0461C16.477 12.0562 16.4689 12.0643 16.4629 12.0744C16.4608 12.0764 16.4588 12.0805 16.4568 12.0825C16.4467 12.0946 16.4386 12.1047 16.4285 12.1148L16.4225 12.1209L16.3982 12.1451L16.3902 12.1532C16.3801 12.1633 16.37 12.1714 16.3578 12.1815C16.3457 12.1916 16.3356 12.1996 16.3235 12.2077C16.3195 12.2097 16.3175 12.2117 16.3134 12.2138C16.3033 12.2198 16.2952 12.2279 16.2851 12.234C16.2831 12.236 16.2791 12.238 16.2771 12.24C16.2649 12.2481 16.2528 12.2542 16.2387 12.2622C16.2367 12.2643 16.2326 12.2643 16.2306 12.2663C16.2205 12.2723 16.2104 12.2764 16.1983 12.2824L16.1862 12.2885C16.172 12.2945 16.1599 12.3006 16.1458 12.3046C16.1317 12.3107 16.1175 12.3147 16.1034 12.3188C16.0993 12.3208 16.0953 12.3208 16.0913 12.3228C16.0791 12.3269 16.0691 12.3289 16.0569 12.3309C16.0529 12.3309 16.0509 12.3329 16.0468 12.3329C16.0327 12.337 16.0165 12.339 16.0024 12.341C15.9984 12.341 15.9963 12.341 15.9923 12.343C15.9802 12.345 15.9681 12.345 15.956 12.3471H15.9438C15.9277 12.3471 15.9135 12.3491 15.8974 12.3491C15.8812 12.3491 15.8671 12.3491 15.8509 12.3471H15.8388C15.8267 12.3471 15.8146 12.345 15.8025 12.343C15.7984 12.343 15.7964 12.343 15.7924 12.341C15.7782 12.339 15.7621 12.337 15.7479 12.3329C15.7439 12.3329 15.7419 12.3309 15.7378 12.3309C15.7257 12.3289 15.7136 12.3248 15.7035 12.3228C15.6995 12.3208 15.6954 12.3208 15.6914 12.3188C15.6773 12.3147 15.6631 12.3107 15.649 12.3046C15.6349 12.3006 15.6227 12.2945 15.6086 12.2885L15.5965 12.2824C15.5864 12.2784 15.5743 12.2723 15.5642 12.2663C15.5621 12.2643 15.5581 12.2643 15.5561 12.2622C15.544 12.2562 15.5298 12.2481 15.5177 12.24C15.5157 12.238 15.5117 12.236 15.5096 12.234C15.4995 12.2279 15.4894 12.2218 15.4814 12.2138C15.4773 12.2117 15.4753 12.2097 15.4713 12.2077C15.4592 12.1996 15.447 12.1895 15.4369 12.1815C15.4268 12.1734 15.4147 12.1633 15.4046 12.1532L15.3965 12.1451L15.3723 12.1209L15.3663 12.1148C15.3562 12.1047 15.3461 12.0926 15.338 12.0825C15.336 12.0805 15.3339 12.0764 15.3319 12.0744C15.3238 12.0663 15.3178 12.0562 15.3117 12.0461C15.3097 12.0421 15.3077 12.0401 15.3057 12.036L15.2814 11.9997V11.9977C15.2734 11.9856 15.2673 11.9734 15.2612 11.9613C15.2087 11.8603 15.1784 11.7452 15.1784 11.6241C15.1784 11.5029 15.2087 11.3878 15.2612 11.2868Z" fill="#727988"/>
<path d="M15.2592 13.6234V18.0865C15.2592 18.1754 15.3319 18.2481 15.4208 18.2481H16.3902C16.479 18.2481 16.5517 18.1754 16.5517 18.0865V13.6234C16.3478 13.69 16.1317 13.7243 15.9055 13.7243C15.6793 13.7243 15.4632 13.688 15.2592 13.6234ZM16.5517 9.62468V8.06964C16.5517 7.98078 16.479 7.90808 16.3902 7.90808H15.4208C15.3319 7.90808 15.2592 7.98078 15.2592 8.06964V9.62468C15.4632 9.55804 15.6793 9.52371 15.9055 9.52371C16.1317 9.52371 16.3478 9.56006 16.5517 9.62468ZM15.2592 13.6234C15.4632 13.69 15.6793 13.7243 15.9055 13.7243C16.1317 13.7243 16.3478 13.688 16.5517 13.6234C17.3959 13.3507 18.0058 12.5591 18.0058 11.624C18.0058 10.689 17.3959 9.89732 16.5517 9.62468C16.3478 9.55804 16.1317 9.52371 15.9055 9.52371C15.6793 9.52371 15.4632 9.56006 15.2592 9.62468C14.4151 9.89732 13.8052 10.689 13.8052 11.624C13.8052 12.5591 14.4151 13.3507 15.2592 13.6234ZM15.2613 11.2868C15.2673 11.2746 15.2754 11.2625 15.2815 11.2504V11.2484L15.3057 11.212C15.3077 11.208 15.3097 11.206 15.3117 11.2019C15.3178 11.1918 15.3259 11.1838 15.3319 11.1737C15.334 11.1716 15.336 11.1676 15.338 11.1656C15.3481 11.1535 15.3562 11.1434 15.3663 11.1333L15.3723 11.1272L15.3966 11.103L15.4046 11.0949C15.4147 11.0848 15.4248 11.0767 15.437 11.0666C15.4491 11.0565 15.4592 11.0485 15.4713 11.0404C15.4753 11.0384 15.4773 11.0363 15.4814 11.0343C15.4915 11.0283 15.4996 11.0202 15.5097 11.0141C15.5117 11.0121 15.5157 11.0101 15.5177 11.0081C15.5299 11 15.542 10.9939 15.5561 10.9858C15.5581 10.9838 15.5622 10.9838 15.5642 10.9818C15.5743 10.9757 15.5844 10.9717 15.5965 10.9657L15.6086 10.9596C15.6228 10.9535 15.6349 10.9475 15.649 10.9434C15.6631 10.9374 15.6773 10.9333 15.6914 10.9293C15.6955 10.9273 15.6995 10.9273 15.7035 10.9253C15.7157 10.9212 15.7258 10.9192 15.7379 10.9172C15.7419 10.9172 15.7439 10.9152 15.748 10.9152C15.7621 10.9111 15.7783 10.9091 15.7924 10.9071C15.7964 10.9071 15.7985 10.9071 15.8025 10.9051C15.8146 10.903 15.8267 10.903 15.8388 10.901H15.851C15.8671 10.901 15.8813 10.899 15.8974 10.899C15.9136 10.899 15.9277 10.899 15.9439 10.901H15.956C15.9681 10.901 15.9802 10.903 15.9923 10.9051C15.9964 10.9051 15.9984 10.9051 16.0024 10.9071C16.0166 10.9091 16.0327 10.9111 16.0469 10.9152C16.0509 10.9152 16.0529 10.9172 16.057 10.9172C16.0691 10.9192 16.0812 10.9232 16.0913 10.9253C16.0953 10.9273 16.0994 10.9273 16.1034 10.9293C16.1175 10.9333 16.1317 10.9374 16.1458 10.9434C16.1599 10.9475 16.1721 10.9535 16.1862 10.9596L16.1983 10.9657C16.2084 10.9697 16.2205 10.9757 16.2306 10.9818C16.2327 10.9838 16.2367 10.9838 16.2387 10.9858C16.2508 10.9919 16.265 11 16.2771 11.0081C16.2791 11.0101 16.2831 11.0121 16.2852 11.0141C16.2953 11.0202 16.3054 11.0262 16.3134 11.0343C16.3175 11.0363 16.3195 11.0384 16.3235 11.0404C16.3356 11.0485 16.3478 11.0585 16.3579 11.0666C16.368 11.0747 16.3801 11.0848 16.3902 11.0949L16.3983 11.103L16.4225 11.1272L16.4285 11.1333C16.4386 11.1434 16.4487 11.1555 16.4568 11.1656C16.4588 11.1676 16.4609 11.1716 16.4629 11.1737C16.471 11.1817 16.477 11.1918 16.4831 11.2019C16.4851 11.206 16.4871 11.208 16.4891 11.212L16.5134 11.2484V11.2504C16.5214 11.2625 16.5275 11.2746 16.5336 11.2868C16.5861 11.3877 16.6164 11.5028 16.6164 11.624C16.6164 11.7452 16.5861 11.8603 16.5336 11.9613C16.5275 11.9734 16.5194 11.9855 16.5134 11.9976V11.9997L16.4891 12.036C16.4871 12.04 16.4851 12.0421 16.4831 12.0461C16.477 12.0562 16.4689 12.0643 16.4629 12.0744C16.4609 12.0764 16.4588 12.0804 16.4568 12.0825C16.4467 12.0946 16.4386 12.1047 16.4285 12.1148L16.4225 12.1208L16.3983 12.1451L16.3902 12.1531C16.3801 12.1632 16.37 12.1713 16.3579 12.1814C16.3457 12.1915 16.3356 12.1996 16.3235 12.2077C16.3195 12.2097 16.3175 12.2117 16.3134 12.2137C16.3033 12.2198 16.2953 12.2279 16.2852 12.2339C16.2831 12.2359 16.2791 12.238 16.2771 12.24C16.265 12.2481 16.2528 12.2541 16.2387 12.2622C16.2367 12.2642 16.2327 12.2642 16.2306 12.2662C16.2205 12.2723 16.2104 12.2763 16.1983 12.2824L16.1862 12.2884C16.1721 12.2945 16.1599 12.3006 16.1458 12.3046C16.1317 12.3107 16.1175 12.3147 16.1034 12.3187C16.0994 12.3208 16.0953 12.3208 16.0913 12.3228C16.0792 12.3268 16.0691 12.3288 16.057 12.3309C16.0529 12.3309 16.0509 12.3329 16.0469 12.3329C16.0327 12.3369 16.0166 12.3389 16.0024 12.341C15.9984 12.341 15.9964 12.341 15.9923 12.343C15.9802 12.345 15.9681 12.345 15.956 12.347H15.9439C15.9277 12.347 15.9136 12.349 15.8974 12.349C15.8813 12.349 15.8671 12.349 15.851 12.347H15.8388C15.8267 12.347 15.8146 12.345 15.8025 12.343C15.7985 12.343 15.7964 12.343 15.7924 12.341C15.7783 12.3389 15.7621 12.3369 15.748 12.3329C15.7439 12.3329 15.7419 12.3309 15.7379 12.3309C15.7258 12.3288 15.7136 12.3248 15.7035 12.3228C15.6995 12.3208 15.6955 12.3208 15.6914 12.3187C15.6773 12.3147 15.6631 12.3107 15.649 12.3046C15.6349 12.3006 15.6228 12.2945 15.6086 12.2884L15.5965 12.2824C15.5864 12.2783 15.5743 12.2723 15.5642 12.2662C15.5622 12.2642 15.5581 12.2642 15.5561 12.2622C15.544 12.2561 15.5299 12.2481 15.5177 12.24C15.5157 12.238 15.5117 12.2359 15.5097 12.2339C15.4996 12.2279 15.4895 12.2218 15.4814 12.2137C15.4773 12.2117 15.4753 12.2097 15.4713 12.2077C15.4592 12.1996 15.4471 12.1895 15.437 12.1814C15.4269 12.1733 15.4147 12.1632 15.4046 12.1531L15.3966 12.1451L15.3723 12.1208L15.3663 12.1148C15.3562 12.1047 15.3461 12.0926 15.338 12.0825C15.336 12.0804 15.334 12.0764 15.3319 12.0744C15.3239 12.0663 15.3178 12.0562 15.3117 12.0461C15.3097 12.0421 15.3077 12.04 15.3057 12.036L15.2815 11.9997V11.9976C15.2734 11.9855 15.2673 11.9734 15.2613 11.9613C15.2087 11.8603 15.1785 11.7452 15.1785 11.624C15.1785 11.5028 15.2087 11.3877 15.2613 11.2868Z" fill="#02AD8F"/>
</svg>
