<svg width="28" height="28" viewBox="0 0 28 28" fill="none" xmlns="http://www.w3.org/2000/svg">
<path d="M28 0H0V28H28V0Z" fill="white" fill-opacity="0.01"/>
<path d="M12.25 20.4125C12.25 20.8872 12.25 21.2747 12.25 21.575C12.25 22.0916 12.25 22.8667 12.25 23.9C12.25 24.2314 12.0034 24.5 11.6991 24.5H2.8843C2.58003 24.5 2.33337 24.2314 2.33337 23.9V4.1C2.33337 3.76863 2.58003 3.5 2.8843 3.5H11.6991C12.0034 3.5 12.25 3.76863 12.25 4.1C12.25 5.13333 12.25 5.90835 12.25 6.42501C12.25 6.72525 12.25 7.11276 12.25 7.58747" stroke="#DADEE5" stroke-width="2.33333" stroke-linecap="round"/>
<path d="M15.75 7.58747C15.75 7.11276 15.75 6.72525 15.75 6.42501C15.75 5.90835 15.75 5.13333 15.75 4.1C15.75 3.76863 15.9966 3.5 16.3009 3.5H25.1158C25.42 3.5 25.6667 3.76863 25.6667 4.1V23.9C25.6667 24.2314 25.42 24.5 25.1158 24.5H16.3009C15.9966 24.5 15.75 24.2314 15.75 23.9C15.75 22.8667 15.75 22.0916 15.75 21.575C15.75 21.2747 15.75 20.8872 15.75 20.4125" stroke="#DADEE5" stroke-width="2.33333" stroke-linecap="round"/>
<path d="M7.29167 22.1663C7.93602 22.1663 8.45833 21.644 8.45833 20.9997C8.45833 20.3553 7.93602 19.833 7.29167 19.833C6.64732 19.833 6.125 20.3553 6.125 20.9997C6.125 21.644 6.64732 22.1663 7.29167 22.1663Z" fill="#DADEE5"/>
<path d="M20.7083 22.1663C21.3526 22.1663 21.875 21.644 21.875 20.9997C21.875 20.3553 21.3526 19.833 20.7083 19.833C20.0639 19.833 19.5416 20.3553 19.5416 20.9997C19.5416 21.644 20.0639 22.1663 20.7083 22.1663Z" fill="#DADEE5"/>
<path d="M9.33337 13.708H18.6667" stroke="#DADEE5" stroke-width="2.33333" stroke-linecap="round"/>
<path d="M15.8801 16.4923L16.8081 15.5642L18.6643 13.7081L16.8081 11.8519L15.8801 10.9238" stroke="#DADEE5" stroke-width="2.33333" stroke-linecap="round" stroke-linejoin="round"/>
</svg>
