<svg width="93" height="64" viewBox="0 0 93 64" fill="none" xmlns="http://www.w3.org/2000/svg">
<path d="M86.6535 63.55V62.3363H91.7836V57.1973H93V63.55H86.6535ZM91.7836 1.21639H91.7926V1.21483H86.6535V0H93V6.34494H91.7836V1.21639ZM87.241 5.0755C87.5626 5.39603 87.8175 5.77703 87.9912 6.19653C88.165 6.61604 88.254 7.06577 88.2531 7.51981L88.262 55.2307C88.26 56.1488 87.8941 57.0286 87.2445 57.6774C86.5949 58.3261 85.7147 58.691 84.7966 58.6919H7.61439C6.69626 58.6908 5.81604 58.3256 5.16671 57.6765C4.51738 57.0274 4.15193 56.1473 4.15048 55.2292V7.5272C4.15131 6.60877 4.51652 5.72819 5.16595 5.07877C5.81538 4.42935 6.69596 4.06416 7.61439 4.06335H84.7966C85.7064 4.06335 86.6001 4.43143 87.241 5.0755ZM84.7966 5.54281H7.61439C7.08838 5.54362 6.58414 5.75295 6.21222 6.12493C5.8403 6.49691 5.63104 7.00118 5.63032 7.5272V55.2308C5.63134 55.7566 5.84074 56.2605 6.21264 56.6322C6.58454 57.0038 7.08861 57.2129 7.61439 57.2136H84.7966C85.2939 57.213 85.7729 57.0258 86.1389 56.6891C86.5049 56.3523 86.7312 55.8906 86.7732 55.395V7.51987C86.772 6.99573 86.5641 6.49321 86.1947 6.1214C85.8233 5.75152 85.3207 5.54354 84.7966 5.54287V5.54281ZM28.9063 42.0778H74.6472V45.1352H28.9063V42.0778ZM37.8153 26.3H74.6457V29.357H37.8153V26.3ZM37.8153 18.6767H74.6457V21.7426H37.8153V18.6767ZM37.8153 10.981H74.6457V14.0465H37.8153V10.981ZM30.1374 26.3H36.053V29.357H30.1374V26.3ZM30.1374 18.6767H36.053V21.7337H30.1374V18.6767ZM30.1374 11.0608H36.053V14.1178H30.1374V11.0608ZM23.8425 25.4049L25.1232 27.7725C24.8478 27.5686 24.5235 27.4411 24.183 27.4027C23.8425 27.3643 23.498 27.4165 23.1841 27.554C22.5106 28.0086 22.0082 28.6753 21.7569 29.4481L20.7328 27.8818V28.6831H14.0372V27.8818L13.1227 29.448C12.8714 28.6753 12.3693 28.0087 11.6959 27.5539C10.7445 27.044 9.72004 27.9546 9.72004 27.9546L11.0736 25.3685C8.02747 21.9627 8.22854 16.7687 11.5293 13.6066C14.8297 10.4447 20.05 10.4447 23.3503 13.6066C26.6511 16.7686 26.8522 21.9627 23.806 25.3685L23.8425 25.4049ZM13.4153 17.5359L13.1959 16.9167L12.8666 17.4631H12.3543L12.8297 17.8638V18.483L13.342 18.1551L13.8543 18.483L13.5617 17.9366L14.0372 17.5359H13.4153ZM13.2688 24.8581H22.0131L21.135 23.474H14.1473L13.2689 24.8581H13.2688ZM19.0863 23.4375L18.7937 22.5265H16.3424L16.013 23.4375H19.0863H19.0863ZM14.8056 19.139L15.281 19.5397V20.1589L15.7934 19.8311L16.3056 20.1589L16.013 19.6126L16.5253 19.2118H15.8666L15.6473 18.5194L15.4276 19.139H14.8056ZM17.9885 15.8239L17.4762 14.5122L16.9644 15.8239H15.574L16.635 16.7346L16.3056 18.1187L17.4762 17.3538L18.6473 18.1187L18.3179 16.7346L19.3789 15.8239H17.9885ZM20.1837 19.2118L19.928 18.5194L19.7083 19.139H19.0863L19.5618 19.5397V20.1589L20.074 19.8311L20.5863 20.1589L20.1837 19.6126L20.6596 19.2118H20.1837ZM22.1596 17.2081L21.9403 16.5888L21.7206 17.2081H21.0986L21.574 17.6087V18.228L22.0863 17.9002L22.5986 18.228L22.306 17.6087L22.7815 17.2081H22.1596ZM25.8889 45.1352H12.4279V42.0778H25.8889V45.1352ZM25.8889 51.1144H12.4279V48.0574H25.8889V51.1144ZM74.6457 51.1144H28.9063V48.0574H74.6457V51.1144ZM1.21483 6.34494H0V0H6.35227V1.21483H1.21483V6.34494ZM1.21483 62.3363H6.35227V63.55H0V57.1973H1.21483V62.3363Z" fill="#02AD8F"/>
</svg>
