<svg width="18" height="18" viewBox="0 0 18 18" fill="none" xmlns="http://www.w3.org/2000/svg">
<path d="M15.3562 7.4813H11.5875C11.25 7.4813 11.025 7.2563 11.025 6.9188C11.025 6.5813 11.25 6.3563 11.5875 6.3563H15.3562C15.6937 6.3563 15.9187 6.5813 15.9187 6.9188C15.9187 7.2563 15.6937 7.4813 15.3562 7.4813ZM15.3562 4.1063H11.5875C11.25 4.1063 11.025 3.8813 11.025 3.5438C11.025 3.2063 11.25 2.9813 11.5875 2.9813H15.3562C15.6937 2.9813 15.9187 3.2063 15.9187 3.5438C15.9187 3.8813 15.6937 4.1063 15.3562 4.1063ZM7.48125 8.6063H3.76875C2.925 8.6063 2.25 7.9313 2.25 7.08755V3.3188C2.25 2.47505 2.925 1.80005 3.76875 1.80005H7.5375C8.38125 1.80005 9.05625 2.47505 9.05625 3.3188V7.08755C9 7.9313 8.325 8.6063 7.48125 8.6063ZM3.76875 2.9813C3.54375 2.9813 3.375 3.15005 3.375 3.3188V7.08755C3.375 7.31255 3.54375 7.4813 3.76875 7.4813H7.5375C7.7625 7.4813 7.93125 7.31255 7.93125 7.08755V3.3188C7.93125 3.0938 7.7625 2.92505 7.5375 2.92505H3.76875V2.9813ZM15.3562 15.3563H11.5875C11.25 15.3563 11.025 15.1313 11.025 14.7938C11.025 14.4563 11.25 14.2313 11.5875 14.2313H15.3562C15.6937 14.2313 15.9187 14.4563 15.9187 14.7938C15.9187 15.1313 15.6937 15.3563 15.3562 15.3563ZM15.3562 11.925H11.5875C11.25 11.925 11.025 11.7 11.025 11.3625C11.025 11.025 11.25 10.8 11.5875 10.8H15.3562C15.6937 10.8 15.9187 11.025 15.9187 11.3625C15.9187 11.7 15.6937 11.925 15.3562 11.925ZM7.48125 16.4813H3.76875C2.925 16.4813 2.25 15.8063 2.25 14.9625V11.1938C2.25 10.35 2.925 9.67505 3.76875 9.67505H7.5375C8.38125 9.67505 9.05625 10.35 9.05625 11.1938V14.9625C9 15.8063 8.325 16.4813 7.48125 16.4813ZM3.76875 10.8C3.54375 10.8 3.375 10.9688 3.375 11.1938V14.9625C3.375 15.1875 3.54375 15.3563 3.76875 15.3563H7.5375C7.7625 15.3563 7.93125 15.1875 7.93125 14.9625V11.1938C7.93125 10.9688 7.7625 10.8 7.5375 10.8H3.76875Z" fill="#868D9A"/>
</svg>
