<svg width="104" height="114" viewBox="0 0 104 114" fill="none" xmlns="http://www.w3.org/2000/svg">
<circle cx="45" cy="58" r="45" fill="url(#paint0_linear)"/>
<circle cx="45" cy="58" r="32" fill="#02AD8F"/>
<path d="M45 70.5C44.475 70.5 44.125 70.325 43.775 69.975L35.025 61.225C34.325 60.525 34.325 59.475 35.025 58.775C35.725 58.075 36.775 58.075 37.475 58.775L45 66.3L61.275 50.025C61.975 49.325 63.025 49.325 63.725 50.025C64.425 50.725 64.425 51.775 63.725 52.475L46.225 69.975C45.875 70.325 45.525 70.5 45 70.5Z" fill="white"/>
<path d="M44.825 61.925C44.3 61.925 43.95 61.75 43.6 61.4C42.9 60.7 42.9 59.65 43.6 58.95L52.525 50.025C53.225 49.325 54.275 49.325 54.975 50.025C55.675 50.725 55.675 51.775 54.975 52.475L46.05 61.4C45.7 61.75 45.175 61.925 44.825 61.925ZM36.25 70.5C35.725 70.5 35.375 70.325 35.025 69.975L26.275 61.225C25.575 60.525 25.575 59.475 26.275 58.775C26.975 58.075 28.025 58.075 28.725 58.775L37.475 67.525C38.175 68.225 38.175 69.275 37.475 69.975C37.125 70.325 36.775 70.5 36.25 70.5Z" fill="white"/>
<circle cx="8" cy="3" r="3" fill="#02AD8F"/>
<circle cx="101" cy="16" r="3" fill="#02AD8F"/>
<circle cx="16" cy="111" r="3" fill="#02AD8F"/>
<circle cx="95" cy="74" r="3" fill="#02AD8F"/>
<defs>
<linearGradient id="paint0_linear" x1="14.4643" y1="26.3929" x2="77.1429" y2="91.2143" gradientUnits="userSpaceOnUse">
<stop stop-color="#191D24"/>
<stop offset="1" stop-color="#058871"/>
</linearGradient>
</defs>
</svg>
