<svg width="22" height="23" viewBox="0 0 22 23" fill="none" xmlns="http://www.w3.org/2000/svg">
<path d="M17.0413 3.10645C17.2071 3.10645 17.3661 3.17229 17.4833 3.2895C17.6005 3.40671 17.6663 3.56569 17.6663 3.73145V13.9398H12.0413C11.886 13.9398 11.7362 13.9977 11.6212 14.1021C11.5062 14.2066 11.4342 14.3501 11.4193 14.5048L11.4163 14.5648V19.7731H4.95801C4.79225 19.7731 4.63328 19.7073 4.51607 19.5901C4.39886 19.4728 4.33301 19.3139 4.33301 19.1481V3.73145C4.33301 3.56569 4.39886 3.40671 4.51607 3.2895C4.63328 3.17229 4.79225 3.10645 4.95801 3.10645H17.0413V3.10645ZM17.2901 15.1898L13.4593 19.3681C13.2527 19.5933 12.9707 19.735 12.6668 19.7664L12.6663 15.6064L12.6693 15.5577C12.6802 15.4647 12.7222 15.3781 12.7884 15.3119C12.8547 15.2456 12.9413 15.2037 13.0343 15.1927L13.083 15.1898H17.2901V15.1898ZM10.7913 11.8564H7.87467C7.70891 11.8564 7.54994 11.9223 7.43273 12.0395C7.31552 12.1567 7.24967 12.3157 7.24967 12.4814C7.24967 12.6472 7.31552 12.8062 7.43273 12.9234C7.54994 13.0406 7.70891 13.1064 7.87467 13.1064H10.7913C10.9571 13.1064 11.1161 13.0406 11.2333 12.9234C11.3505 12.8062 11.4163 12.6472 11.4163 12.4814C11.4163 12.3157 11.3505 12.1567 11.2333 12.0395C11.1161 11.9223 10.9571 11.8564 10.7913 11.8564V11.8564ZM14.1247 8.93978H7.87467C7.71417 8.93986 7.55984 9.00169 7.44368 9.11245C7.32752 9.22321 7.25842 9.37442 7.25071 9.53474C7.24299 9.69506 7.29725 9.85221 7.40225 9.97361C7.50724 10.095 7.65492 10.1714 7.81467 10.1869L7.87467 10.1898H14.1247C14.2904 10.1898 14.4494 10.1239 14.5666 10.0067C14.6838 9.88951 14.7497 9.73054 14.7497 9.56478C14.7497 9.39902 14.6838 9.24005 14.5666 9.12284C14.4494 9.00563 14.2904 8.93978 14.1247 8.93978ZM14.1247 6.02311H7.87467C7.71417 6.02319 7.55984 6.08502 7.44368 6.19578C7.32752 6.30655 7.25842 6.45775 7.25071 6.61808C7.24299 6.7784 7.29725 6.93554 7.40225 7.05695C7.50724 7.17835 7.65492 7.25471 7.81467 7.2702L7.87467 7.27311H14.1247C14.2904 7.27311 14.4494 7.20726 14.5666 7.09005C14.6838 6.97284 14.7497 6.81387 14.7497 6.64811C14.7497 6.48235 14.6838 6.32338 14.5666 6.20617C14.4494 6.08896 14.2904 6.02311 14.1247 6.02311V6.02311Z" fill="white"/>
</svg>
