<svg width="12" height="13" viewBox="0 0 12 13" fill="none" xmlns="http://www.w3.org/2000/svg">
<path d="M8.60812 7.25037C8.68039 7.24691 8.75191 7.26634 8.8125 7.30587C8.9025 7.36362 8.96287 7.457 8.98763 7.5605C9.0136 7.66658 9.00028 7.77848 8.95012 7.8755L7.82513 9.2915C7.72125 9.491 7.49175 9.55925 7.3125 9.44412C7.13325 9.329 7.07175 9.074 7.17525 8.8745L7.81275 8.072H3.41138C3.30237 8.072 3.19783 8.0287 3.12075 7.95162C3.04368 7.87454 3.00038 7.77 3.00038 7.661C3.00038 7.552 3.04368 7.44746 3.12075 7.37038C3.19783 7.2933 3.30237 7.25 3.41138 7.25H8.58938L8.6085 7.25037H8.60812ZM3.39188 5.75C3.31961 5.75346 3.24809 5.73404 3.1875 5.6945C3.09839 5.63547 3.03562 5.5442 3.01237 5.43987C2.9864 5.33379 2.99972 5.22189 3.04988 5.12487L4.17525 3.70887C4.27875 3.50937 4.50825 3.44112 4.6875 3.55625C4.86675 3.67137 4.92825 3.92637 4.82475 4.12587L4.18725 4.92837H8.589C8.64297 4.92837 8.69642 4.93901 8.74628 4.95966C8.79615 4.98031 8.84146 5.01059 8.87962 5.04875C8.91779 5.08692 8.94806 5.13223 8.96871 5.18209C8.98937 5.23196 9 5.2854 9 5.33937C9 5.39335 8.98937 5.44679 8.96871 5.49666C8.94806 5.54652 8.91779 5.59183 8.87962 5.63C8.84146 5.66816 8.79615 5.69843 8.74628 5.71909C8.69642 5.73974 8.64297 5.75037 8.589 5.75037H3.411L3.39225 5.75H3.39188ZM0.75 1.99625C0.75 1.58412 1.0875 1.25 1.49662 1.25H10.5037C10.9159 1.25 11.25 1.5875 11.25 1.99662V11.0037C11.25 11.4162 10.9125 11.7504 10.5034 11.7504H1.49625C1.08413 11.75 0.75 11.4125 0.75 11.0034V1.99625ZM1.5 2.375V10.6242C1.4999 10.6736 1.50953 10.7224 1.52833 10.768C1.54713 10.8136 1.57474 10.855 1.60957 10.8899C1.6444 10.9248 1.68577 10.9525 1.73132 10.9714C1.77687 10.9903 1.82569 11 1.875 11H10.125C10.2245 11 10.3198 10.9605 10.3902 10.8902C10.4605 10.8198 10.5 10.7245 10.5 10.625V2.375C10.5 2.27554 10.4605 2.18016 10.3902 2.10983C10.3198 2.03951 10.2245 2 10.125 2H1.875C1.77554 2 1.68016 2.03951 1.60984 2.10983C1.53951 2.18016 1.5 2.27554 1.5 2.375Z" fill="#02AD8F"/>
</svg>
