<svg width="16" height="16" viewBox="0 0 16 16" fill="none" xmlns="http://www.w3.org/2000/svg">
<rect width="15.4778" height="15.4778" rx="1.71976" fill="#F1A139"/>
<g clip-path="url(#clip0)">
<path d="M3.00952 6.14315V6.75139H12.4711V6.14315H3.00952ZM8.20689 9.3736H7.67461L7.10286 10.4955H7.64839L8.20689 9.3736ZM9.38959 9.3736H8.85731L8.31205 10.4955H8.85731L9.38959 9.3736ZM11.5974 9.3736H10.0203L9.49448 10.4955H11.0451L11.5974 9.3736ZM11.3606 4.31842C11.509 4.32056 11.6554 4.35248 11.7913 4.41229C11.9271 4.4721 12.0495 4.55859 12.1513 4.66661C12.3605 4.88835 12.4752 5.18279 12.4711 5.4876V10.4482C12.4752 10.7531 12.3605 11.0476 12.1513 11.2694C12.0495 11.3774 11.927 11.4638 11.7912 11.5236C11.6554 11.5834 11.5089 11.6152 11.3606 11.6173H4.13301C3.98464 11.6152 3.83819 11.5834 3.70236 11.5236C3.56654 11.4638 3.4441 11.3774 3.3423 11.2694C3.13307 11.0476 3.01837 10.7531 3.0225 10.4482V5.4876C3.01492 5.18645 3.12674 4.89452 3.33356 4.67549C3.54039 4.45646 3.82543 4.3281 4.12653 4.31842H11.3606Z" fill="white"/>
</g>
<defs>
<clipPath id="clip0">
<rect width="9.45866" height="9.45866" fill="white" transform="translate(3.00952 3.23853)"/>
</clipPath>
</defs>
</svg>
