<svg width="16" height="16" viewBox="0 0 16 16" fill="none" xmlns="http://www.w3.org/2000/svg">
<rect x="0.0231934" y="0.00012207" width="15.4778" height="15.4778" rx="1.71976" fill="#3961F1"/>
<path d="M8.83953 8.99723C8.83953 8.99723 9.10555 8.59953 9.38904 7.81893C9.67254 7.03966 9.71284 6.60972 9.71284 6.60972L7.47447 6.59091V5.82643L10.1858 5.80762V5.26751H7.47447V4.0368H6.14569V5.26751H3.61711V5.80762L6.14569 5.78881V6.60972H4.11692V7.03966H8.2927C8.2927 7.03966 8.24702 7.38764 8.08713 7.81893C7.92725 8.25155 7.76199 8.63044 7.76199 8.63044C7.76199 8.63044 5.80174 7.94388 4.7672 7.94388C3.734 7.94388 2.47777 8.35904 2.35551 9.56287C2.23459 10.7667 2.9413 11.4197 3.93688 11.6602C4.93246 11.9007 5.85145 11.6575 6.65221 11.2652C7.45297 10.8742 8.23761 9.9834 8.23761 9.9834L12.3892 12.0001C12.3892 12.0001 12.6499 11.6064 12.838 11.2396C13.0261 10.8742 13.1819 10.4563 13.1819 10.4563L8.83953 8.99723ZM4.55492 11.0018C3.09044 11.0018 2.78276 10.283 2.78276 9.76574C2.78276 9.24847 3.08775 8.68687 4.33323 8.60491C5.58005 8.52429 7.26219 9.48763 7.26219 9.48763C7.26219 9.48763 6.02074 11.0018 4.55492 11.0018Z" fill="white"/>
</svg>
