<svg width="16" height="16" viewBox="0 0 16 16" fill="none" xmlns="http://www.w3.org/2000/svg">
<path d="M8.67646 11.1875C8.86553 11.0031 8.95928 10.7797 8.95928 10.5156C8.95928 10.2547 8.86396 10.0281 8.67646 9.83906C8.4874 9.65 8.26084 9.55469 7.9999 9.55469C7.73896 9.55469 7.5124 9.65 7.32334 9.83906C7.13428 10.0281 7.04053 10.2547 7.04053 10.5156C7.04053 10.7781 7.13584 11.0016 7.32334 11.1875C7.46865 11.3281 7.63584 11.4156 7.82178 11.4484C7.88115 11.4516 7.93896 11.4531 7.9999 11.4531C8.06084 11.4531 8.11865 11.4516 8.17803 11.4484C8.36553 11.4156 8.53115 11.3297 8.67646 11.1875ZM8.45928 8.97969C8.58428 7.64531 8.95928 5.81094 8.95928 5.56094C8.95928 5.27031 8.87021 5.02969 8.69053 4.83594C8.51084 4.64375 8.28115 4.54688 8.00146 4.54688C7.72178 4.54688 7.49209 4.64531 7.31084 4.84062C7.13115 5.03437 7.04209 5.275 7.04209 5.56094C7.04209 5.81094 7.44834 7.64531 7.55771 8.97969H8.45928Z" fill="#6A7B98"/>
<path d="M8 15.0078C7.05469 15.0078 6.13594 14.8219 5.27187 14.4563C4.4375 14.1031 3.6875 13.5984 3.04531 12.9547C2.40156 12.3125 1.89688 11.5625 1.54375 10.7281C1.17813 9.86406 0.992188 8.94531 0.992188 8C0.992188 7.05469 1.17813 6.13594 1.54375 5.27187C1.89688 4.4375 2.40156 3.6875 3.04531 3.04375C3.68906 2.4 4.4375 1.89531 5.27344 1.54219C6.13594 1.17812 7.05469 0.992188 8 0.992188C8.94531 0.992188 9.86406 1.17813 10.7281 1.54375C11.5625 1.89688 12.3125 2.40156 12.9563 3.04531C13.6 3.68906 14.1047 4.4375 14.4578 5.27344C14.8234 6.1375 15.0094 7.05625 15.0094 8.00156C15.0094 8.94687 14.8234 9.86563 14.4578 10.7297C14.1031 11.5625 13.5984 12.3125 12.9547 12.9547C12.3109 13.5984 11.5625 14.1031 10.7266 14.4563C9.86406 14.8219 8.94531 15.0078 8 15.0078ZM8 2.00781C4.69531 2.00781 2.00781 4.69531 2.00781 8C2.00781 11.3047 4.69531 13.9922 8 13.9922C11.3047 13.9922 13.9922 11.3047 13.9922 8C13.9922 4.69531 11.3047 2.00781 8 2.00781Z" fill="#6A7B98"/>
</svg>
