<svg width="24" height="24" viewBox="0 0 24 24" fill="none" xmlns="http://www.w3.org/2000/svg">
<path d="M13.7831 15.7915C13.0609 15.7915 12.5193 15.2721 12.5193 14.5277V13.2639C12.5193 12.5193 13.0609 12.0002 13.7831 12.0002H21.9977V15.7915H13.7831ZM15.0469 12.632C14.5054 12.632 13.7831 13.3372 13.7831 13.8958C13.7831 14.4541 14.5054 15.1596 15.0469 15.1596C15.5884 15.1596 16.3107 14.4541 16.3107 13.8958C16.3107 13.3372 15.5884 12.632 15.0469 12.632ZM11.8875 13.2639V14.5277C11.8875 15.6443 12.7001 16.4234 13.7831 16.4234H20.7339V18.9509C20.7339 20.0675 19.9213 20.8466 18.8382 20.8466H4.93669C3.85363 20.8466 3.04103 20.0675 3.04103 18.9509L3.04071 6.52359C3.04071 5.40672 3.85363 4.4175 4.93669 4.4175H10.6237L9.35991 5.68128H4.93669C4.39516 5.68128 3.69471 5.71193 3.69471 6.2702C3.69471 6.82879 3.76327 6.94506 4.3048 6.94506H20.7339V11.3683H13.7831C12.7001 11.3683 11.8875 12.1471 11.8875 13.2639ZM9.9918 6.31317L15.9518 3.15341L16.9426 6.31317H9.9918ZM17.5745 4.4175H18.8382C19.4104 4.4175 19.7434 5.27814 20.102 5.68128H17.5745V4.4175Z" fill="#02AD8F"/>
<path d="M13.7855 15.7915C13.0632 15.7915 12.5217 15.272 12.5217 14.5277V13.2639C12.5217 12.5192 13.0632 12.0001 13.7855 12.0001H22V15.7915H13.7855ZM15.0492 12.632C14.5077 12.632 13.7855 13.3372 13.7855 13.8958C13.7855 14.4541 14.5077 15.1596 15.0492 15.1596C15.5908 15.1596 16.313 14.4541 16.313 13.8958C16.313 13.3372 15.5908 12.632 15.0492 12.632ZM9.99413 6.31314L15.9541 3.15338L16.9449 6.31314H9.99413Z" fill="#5B6888"/>
</svg>
