<svg width="23" height="22" viewBox="0 0 23 22" fill="none" xmlns="http://www.w3.org/2000/svg">
<path d="M5.34473 9.7603C5.34473 9.90109 5.37246 10.0405 5.42633 10.1706C5.48021 10.3006 5.55918 10.4188 5.65873 10.5184C5.75828 10.6179 5.87646 10.6969 6.00653 10.7508C6.1366 10.8046 6.27601 10.8324 6.4168 10.8324C6.55758 10.8324 6.69699 10.8046 6.82706 10.7508C6.95713 10.6969 7.07531 10.6179 7.17487 10.5184C7.27442 10.4188 7.35338 10.3006 7.40726 10.1706C7.46114 10.0405 7.48887 9.90109 7.48887 9.7603C7.48887 9.47597 7.37592 9.20329 7.17487 9.00223C6.97381 8.80118 6.70113 8.68823 6.4168 8.68823C6.13247 8.68823 5.85978 8.80118 5.65873 9.00223C5.45768 9.20329 5.34473 9.47597 5.34473 9.7603Z" fill="white"/>
<path d="M10.29 9.7603C10.29 9.90109 10.3178 10.0405 10.3716 10.1706C10.4255 10.3006 10.5045 10.4188 10.604 10.5184C10.7036 10.6179 10.8218 10.6969 10.9518 10.7508C11.0819 10.8046 11.2213 10.8324 11.3621 10.8324C11.5029 10.8324 11.6423 10.8046 11.7724 10.7508C11.9024 10.6969 12.0206 10.6179 12.1202 10.5184C12.2197 10.4188 12.2987 10.3006 12.3526 10.1706C12.4065 10.0405 12.4342 9.90109 12.4342 9.7603C12.4342 9.47597 12.3212 9.20329 12.1202 9.00223C11.9191 8.80118 11.6464 8.68823 11.3621 8.68823C11.0778 8.68823 10.8051 8.80118 10.604 9.00223C10.403 9.20329 10.29 9.47597 10.29 9.7603Z" fill="white"/>
<path d="M15.6211 9.7603C15.6211 10.0446 15.734 10.3173 15.9351 10.5184C16.1361 10.7194 16.4088 10.8324 16.6932 10.8324C16.9775 10.8324 17.2502 10.7194 17.4512 10.5184C17.6523 10.3173 17.7652 10.0446 17.7652 9.7603C17.7652 9.47597 17.6523 9.20329 17.4512 9.00223C17.2502 8.80118 16.9775 8.68823 16.6932 8.68823C16.4088 8.68823 16.1361 8.80118 15.9351 9.00223C15.734 9.20329 15.6211 9.47597 15.6211 9.7603Z" fill="white"/>
<path d="M20.3318 2.57812H3.04551C2.5084 2.57812 2.07227 3.01426 2.07227 3.55137V15.8941C2.07227 16.4312 2.5084 16.8674 3.04551 16.8674H8.51543L10.8014 19.192C10.9926 19.3875 11.2439 19.4842 11.4953 19.4842C11.7316 19.4842 11.968 19.3982 12.157 19.2242L14.7094 16.8674H20.334C20.8711 16.8674 21.3072 16.4312 21.3072 15.8941V3.55137C21.3072 3.01426 20.8689 2.57812 20.3318 2.57812ZM19.9516 15.5139H14.3635V15.5182C14.226 15.5332 14.0928 15.5912 13.9832 15.6922L11.5082 17.9803L9.28242 15.7158C9.15781 15.5891 8.99668 15.5225 8.8334 15.5139H3.42578V3.93164H19.9516V15.5139Z" fill="white"/>
</svg>
