<svg width="28" height="28" viewBox="0 0 28 28" fill="none" xmlns="http://www.w3.org/2000/svg">
<path d="M22.5313 22.5312H5.46875C5.11055 22.5312 4.78242 22.3289 4.6211 22.009C4.45977 21.6891 4.49258 21.3062 4.70586 21.0191L6.82774 18.1508V12.5781C6.82774 8.65703 10.0461 5.46875 14 5.46875C17.9539 5.46875 21.1723 8.65703 21.1723 12.5781V18.1508L23.2941 21.0191C23.5074 21.3062 23.5402 21.6891 23.3789 22.009C23.2176 22.3289 22.8895 22.5312 22.5313 22.5312ZM7.34727 20.6363H20.65L19.4605 19.0285C19.3402 18.8645 19.2746 18.6676 19.2746 18.4652V12.5781C19.2746 9.7043 16.9066 7.36367 13.9973 7.36367C11.0879 7.36367 8.72266 9.7043 8.72266 12.5781V18.4625C8.72266 18.6648 8.65703 18.8617 8.53672 19.0258L7.34727 20.6363ZM16.3707 25.375H11.6293C11.107 25.375 10.6805 24.9512 10.6805 24.4262C10.6805 23.9012 11.1043 23.4773 11.6293 23.4773H16.368C16.8902 23.4773 17.3168 23.9012 17.3168 24.4262C17.3168 24.9512 16.893 25.375 16.3707 25.375ZM14.473 4.51992H13.5242C13.002 4.51992 12.5754 4.09609 12.5754 3.57109C12.5754 3.04609 13.002 2.625 13.527 2.625H14.4758C14.998 2.625 15.4246 3.04883 15.4246 3.57383C15.4246 4.09883 14.998 4.51992 14.473 4.51992Z" fill="#676D79"/>
</svg>
