<svg width="36" height="31" viewBox="0 0 36 31" fill="none" xmlns="http://www.w3.org/2000/svg">
<rect x="1.52588e-05" y="13.5129" width="16.5011" height="16.5011" rx="1.83346" fill="#02AD8F"/>
<path d="M7.2254 22.9196C6.7115 23.2302 6.63502 22.7451 6.63502 22.7451L5.99069 21.117C5.74292 20.3433 6.20547 20.7681 6.20547 20.7681C6.20547 20.7681 6.60202 21.0929 6.90323 21.2915C7.20444 21.4895 7.54756 21.3496 7.54756 21.3496L11.7582 19.2443C10.9814 18.1966 9.69794 17.5124 8.2448 17.5124C5.87388 17.5124 3.95189 19.3344 3.95189 21.5827C3.95189 22.8756 4.58784 24.0259 5.57948 24.7719L5.40084 25.885C5.40084 25.885 5.31336 26.2098 5.61562 26.0595C5.82149 25.9568 6.34586 25.588 6.65807 25.3643C7.16541 25.5555 7.70318 25.6531 8.24532 25.6525C10.6162 25.6525 12.5388 23.8305 12.5388 21.5822C12.5388 20.9316 12.3764 20.3166 12.0898 19.7707C10.7483 20.645 7.62719 22.677 7.2254 22.919V22.9196Z" fill="white"/>
<rect x="9.62074" y="-1.52588e-05" width="16.5011" height="16.5011" rx="1.83346" fill="#F1A139"/>
<g clip-path="url(#clip0)">
<path d="M12.8293 6.54925V7.1977H22.9164V6.54925H12.8293ZM18.3703 9.99328H17.8028L17.1933 11.1893H17.7749L18.3703 9.99328ZM19.6312 9.99328H19.0637L18.4824 11.1893H19.0637L19.6312 9.99328ZM21.985 9.99328H20.3036L19.743 11.1893H21.3962L21.985 9.99328ZM21.7325 4.60388C21.8907 4.60616 22.0468 4.64019 22.1916 4.70396C22.3365 4.76772 22.467 4.85992 22.5755 4.97508C22.7985 5.21148 22.9208 5.52539 22.9164 5.85035V11.1389C22.9208 11.4639 22.7985 11.778 22.5755 12.0144C22.467 12.1296 22.3364 12.2217 22.1916 12.2854C22.0468 12.3491 21.8907 12.3831 21.7325 12.3854H14.0271C13.8689 12.3831 13.7128 12.3491 13.568 12.2854C13.4232 12.2217 13.2926 12.1296 13.1841 12.0144C12.961 11.778 12.8388 11.4639 12.8431 11.1389V5.85035C12.8351 5.52929 12.9543 5.21806 13.1748 4.98455C13.3953 4.75104 13.6992 4.6142 14.0202 4.60388H21.7325Z" fill="white"/>
</g>
<rect x="19.4989" y="13.5553" width="16.5011" height="16.5011" rx="1.83346" fill="#3961F1"/>
<path d="M28.8982 23.1473C28.8982 23.1473 29.1819 22.7233 29.4841 21.8911C29.7863 21.0603 29.8293 20.6019 29.8293 20.6019L27.4429 20.5819V19.7669L30.3335 19.7468V19.171H27.4429V17.8589H26.0263V19.171H23.3305V19.7468L26.0263 19.7268V20.6019H23.8634V21.0603H28.3153C28.3153 21.0603 28.2666 21.4313 28.0961 21.8911C27.9256 22.3523 27.7495 22.7563 27.7495 22.7563C27.7495 22.7563 25.6596 22.0243 24.5567 22.0243C23.4552 22.0243 22.1159 22.4669 21.9855 23.7503C21.8566 25.0338 22.6101 25.7299 23.6715 25.9863C24.7329 26.2427 25.7126 25.9834 26.5663 25.5652C27.42 25.1484 28.2565 24.1987 28.2565 24.1987L32.6826 26.3487C32.6826 26.3487 32.9605 25.929 33.161 25.538C33.3616 25.1483 33.5277 24.7029 33.5277 24.7029L28.8982 23.1473ZM24.3304 25.2844C22.7691 25.2844 22.441 24.5181 22.441 23.9666C22.441 23.4152 22.7662 22.8164 24.094 22.729C25.4233 22.6431 27.2166 23.6701 27.2166 23.6701C27.2166 23.6701 25.8931 25.2844 24.3304 25.2844Z" fill="white"/>
<defs>
<clipPath id="clip0">
<rect width="10.084" height="10.084" fill="white" transform="translate(12.8293 3.45261)"/>
</clipPath>
</defs>
</svg>
