<svg width="10" height="10" viewBox="0 0 10 10" fill="none" xmlns="http://www.w3.org/2000/svg">
<path d="M0 5C0 2.23862 2.23862 0 5 0C7.76138 0 10 2.23862 10 5C10 7.76138 7.76138 10 5 10C2.23862 10 0 7.76138 0 5ZM4.09482 6.90068C4.15763 6.96545 4.24331 7.00303 4.3335 7.00535C4.42369 7.00767 4.51119 6.97455 4.57725 6.91311L7.85379 3.86689C7.92078 3.80464 7.96029 3.71832 7.96364 3.62693C7.96699 3.53553 7.93389 3.44656 7.87164 3.37957C7.80938 3.31258 7.72306 3.27306 7.63167 3.26971C7.54028 3.26637 7.4513 3.29946 7.38431 3.36172L4.36553 6.18932L2.94827 4.72793C2.91683 4.69508 2.87919 4.66877 2.83754 4.65052C2.79588 4.63227 2.75103 4.62244 2.70556 4.6216C2.66009 4.62076 2.61491 4.62892 2.5726 4.64561C2.5303 4.6623 2.49172 4.6872 2.45908 4.71886C2.42643 4.75052 2.40038 4.78833 2.38241 4.83011C2.36444 4.87188 2.35491 4.9168 2.35437 4.96228C2.35383 5.00775 2.36229 5.05288 2.37926 5.09507C2.39624 5.13726 2.42139 5.17568 2.45327 5.20811L4.095 6.90068H4.09482Z" fill="#AEC5BD"/>
</svg>
