<svg width="20" height="20" viewBox="0 0 20 20" fill="none" xmlns="http://www.w3.org/2000/svg">
<path d="M2.66667 0H17.3333C18.8 0 20 1.2 20 2.66667V17.3333C20 18.8 18.8 20 17.3333 20H2.66667C1.2 20 0 18.8 0 17.3333V2.66667C0 1.2 1.2 0 2.66667 0ZM14 8C15.0667 8 16 7.06667 16 6C16 4.93333 15.0667 4 14 4C12.9333 4 12 4.93333 12 6C12 7.06667 12.9333 8 14 8ZM8.66667 13.2L7.33333 11.0667C7.33333 10.9333 7.2 10.9333 7.06667 10.8C6.66667 10.6667 6.26667 10.6667 6.13333 11.0667L2.66667 16.4V16.6667C2.66667 17.0667 2.93333 17.3333 3.33333 17.3333H16.9333C17.2 17.3333 17.4667 17.0667 17.4667 16.8C17.4667 16.6667 17.4667 16.5333 17.3333 16.5333L14.4 12.4C14.2667 12.1333 13.8667 12.1333 13.6 12.2667L13.4667 12.4L13.2 12.6667L11.3333 15.6C11.0667 15.8667 10.6667 16 10.4 15.7333C10.2667 15.7333 10.2667 15.6 10.2667 15.4667L8.66667 13.2Z" fill="#575F71"/>
</svg>
