<svg width="16" height="16" viewBox="0 0 16 16" fill="none" xmlns="http://www.w3.org/2000/svg">
<path d="M13 1.25C13.2761 1.25 13.5 1.47386 13.5 1.75V14.25C13.5 14.5261 13.2761 14.75 13 14.75H4.5625C3.42342 14.75 2.5 13.8266 2.5 12.6875V3.3125C2.5 2.17341 3.42341 1.25 4.5625 1.25H13ZM12.5 11.625H4.5625C3.98156 11.625 3.50953 12.0912 3.50016 12.6699L3.5 12.6875C3.5 13.2743 3.9757 13.75 4.5625 13.75H12.5V11.625ZM12.5 2.25H4.5625C3.98156 2.25 3.50953 2.71623 3.50016 3.29492L3.5 3.3125L3.49997 10.9194C3.8012 10.738 4.15258 10.6314 4.52838 10.6253L4.5625 10.625H12.5V2.25Z" fill="#868D9A"/>
</svg>
