<svg width="40" height="40" viewBox="0 0 40 40" fill="none" xmlns="http://www.w3.org/2000/svg">
<circle cx="20" cy="20" r="20" fill="#33D1B5"/>
<path d="M19.606 26.7052C19.3333 26.7052 19.1514 26.6143 18.9696 26.4324L14.4236 21.8865C14.06 21.5228 14.06 20.9773 14.4236 20.6136C14.7873 20.2499 15.3328 20.2499 15.6965 20.6136L19.606 24.5231L28.0615 16.0676C28.4252 15.7039 28.9707 15.7039 29.3344 16.0676C29.6981 16.4313 29.6981 16.9768 29.3344 17.3405L20.2425 26.4324C20.0606 26.6143 19.8788 26.7052 19.606 26.7052Z" fill="white"/>
<path d="M19.5147 22.2501C19.2419 22.2501 19.0601 22.1592 18.8783 21.9774C18.5146 21.6137 18.5146 21.0682 18.8783 20.7045L23.5152 16.0676C23.8788 15.7039 24.4244 15.7039 24.788 16.0676C25.1517 16.4313 25.1517 16.9768 24.788 17.3405L20.1511 21.9774C19.9693 22.1592 19.6965 22.2501 19.5147 22.2501ZM15.0597 26.7052C14.7869 26.7052 14.6051 26.6143 14.4232 26.4324L9.87725 21.8865C9.51357 21.5228 9.51357 20.9773 9.87725 20.6136C10.2409 20.2499 10.7864 20.2499 11.1501 20.6136L15.6961 25.1596C16.0598 25.5232 16.0598 26.0688 15.6961 26.4324C15.5143 26.6143 15.3324 26.7052 15.0597 26.7052Z" fill="white"/>
</svg>
