<svg width="27" height="21" viewBox="0 0 27 21" fill="none" xmlns="http://www.w3.org/2000/svg">
<path d="M16.184 12.6699C16.184 12.6699 16.8466 11.6793 17.5527 9.73498C18.2588 7.79398 18.3592 6.72309 18.3592 6.72309L12.7839 6.67623V4.77205L19.5372 4.7252V3.37989H12.7839V0.314453H9.47415V3.37989H3.17595V4.7252L9.47415 4.67835V6.72309H4.42087V7.79398H14.8219C14.8219 7.79398 14.7081 8.66074 14.3099 9.73498C13.9117 10.8126 13.5 11.7563 13.5 11.7563C13.5 11.7563 8.61743 10.0462 6.04059 10.0462C3.4671 10.0462 0.338082 11.0803 0.0335464 14.0788C-0.267643 17.0773 1.49264 18.7037 3.97243 19.3027C6.45222 19.9018 8.74125 19.2961 10.7358 18.3189C12.7303 17.345 14.6847 15.1263 14.6847 15.1263L25.0255 20.1494C25.0255 20.1494 25.6748 19.1689 26.1433 18.2553C26.6118 17.345 27 16.3042 27 16.3042L16.184 12.6699ZM5.51184 17.6629C1.86411 17.6629 1.09775 15.8725 1.09775 14.5841C1.09775 13.2957 1.85741 11.8968 4.95966 11.6927C8.06525 11.4919 12.2551 13.8914 12.2551 13.8914C12.2551 13.8914 9.16292 17.6629 5.51184 17.6629Z" fill="white"/>
</svg>
