<svg width="34" height="34" viewBox="0 0 34 34" fill="none" xmlns="http://www.w3.org/2000/svg">
<circle cx="17" cy="17" r="17" fill="#02AD8F" fill-opacity="0.16"/>
<path d="M17 15.3333C18.6108 15.3333 19.9167 14.0275 19.9167 12.4167C19.9167 10.8058 18.6108 9.5 17 9.5C15.3892 9.5 14.0833 10.8058 14.0833 12.4167C14.0833 14.0275 15.3892 15.3333 17 15.3333Z" stroke="#02AD8F" stroke-width="1.66667" stroke-linecap="round" stroke-linejoin="round"/>
<path d="M9.5 23.9998V24.4998H24.5V23.9998C24.5 22.133 24.5 21.1996 24.1367 20.4865C23.8171 19.8593 23.3072 19.3494 22.68 19.0298C21.9669 18.6665 21.0335 18.6665 19.1667 18.6665H14.8333C12.9665 18.6665 12.0331 18.6665 11.32 19.0298C10.6928 19.3494 10.1829 19.8593 9.86331 20.4865C9.5 21.1996 9.5 22.133 9.5 23.9998Z" stroke="#02AD8F" stroke-width="1.66667" stroke-linecap="round" stroke-linejoin="round"/>
</svg>
