<svg width="23" height="23" viewBox="0 0 23 23" fill="none" xmlns="http://www.w3.org/2000/svg">
<g clip-path="url(#clip0)">
<path d="M0 7.06293V8.54196H23.0071V7.06293H0ZM12.6381 14.9182H11.3438L9.95351 17.6462H11.28L12.6381 14.9182ZM15.514 14.9182H14.2197L12.8938 17.6462H14.2197L15.514 14.9182ZM20.8825 14.9182H17.0476L15.769 17.6462H19.5396L20.8825 14.9182ZM20.3067 2.62585C20.6675 2.63106 21.0237 2.70868 21.3539 2.85412C21.6842 2.99956 21.9819 3.20985 22.2294 3.47251C22.7381 4.0117 23.017 4.72767 23.0071 5.46887V17.5311C23.0171 18.2726 22.7382 18.9888 22.2294 19.5282C21.9819 19.7907 21.6842 20.0009 21.3539 20.1462C21.0236 20.2915 20.6675 20.369 20.3067 20.3742H2.73192C2.37112 20.369 2.01502 20.2915 1.68474 20.1462C1.35446 20.0009 1.05673 19.7907 0.809191 19.5282C0.300421 18.9888 0.0215273 18.2726 0.0315525 17.5311V5.46887C0.0131256 4.73658 0.285028 4.02671 0.78795 3.49411C1.29087 2.96151 1.984 2.6494 2.71615 2.62585H20.3067Z" fill="white"/>
</g>
<defs>
<clipPath id="clip0">
<rect width="23" height="23" fill="white"/>
</clipPath>
</defs>
</svg>
