<svg width="16" height="16" viewBox="0 0 16 16" fill="none" xmlns="http://www.w3.org/2000/svg">
<path d="M8.73759 1.03608C4.28916 0.57983 0.576656 4.29233 1.03291 8.74077C1.35009 11.8314 4.16728 14.6486 7.25791 14.9658C11.7063 15.422 15.4188 11.7095 14.9626 7.26108C14.6454 4.17046 11.8282 1.35327 8.73759 1.03608ZM13.0001 4.66577L13.6673 6.00014C12.7735 5.83139 12.5267 5.83921 11.6657 6.00014C11.1563 6.13452 10.8907 6.49858 10.7657 6.74858C10.7017 6.87671 10.6704 7.01889 10.6767 7.16264C10.6938 7.58764 10.6767 8.72358 9.99853 9.00171C9.69853 9.12514 9.33134 8.70327 9.33134 8.33452C9.37822 6.23296 10.3282 5.82202 10.5876 5.68764C10.8595 5.54702 11.6657 5.00014 11.6657 5.00014C12.2501 4.70327 13.0001 4.66577 13.0001 4.66577ZM4.99697 2.99858L5.41416 3.41577C5.52509 3.52671 5.49697 3.71421 5.35791 3.78764C4.97197 3.99389 4.28916 4.52514 3.72197 5.85639C3.68447 5.94233 3.60009 5.99858 3.50634 5.99858H2.66259C2.66259 6.00014 2.71884 4.2392 4.99697 2.99858ZM4.92822 13.1376L3.43603 11.8876C3.60478 11.5501 3.95947 11.3236 4.36572 11.3361C4.88603 11.3533 5.31103 11.7751 5.33134 12.2955C5.34228 12.6408 5.18134 12.9486 4.92822 13.1376ZM7.99697 14.0033C7.24541 14.0033 6.52978 13.8595 5.86728 13.608C6.15322 13.2611 6.32978 12.8205 6.32978 12.3361C6.32978 11.2314 5.43447 10.3345 4.32822 10.3345C3.72509 10.3345 3.18603 10.6048 2.81884 11.0267C2.29697 10.1376 1.99384 9.10483 1.99384 8.00014C1.99384 7.75014 2.01416 7.50483 2.04384 7.26108L4.29697 7.03608C4.50166 7.01577 4.66884 6.86577 4.70947 6.66421C4.99384 5.27358 6.24384 4.39233 7.02353 3.96733C7.31416 3.80952 7.35322 3.40796 7.10009 3.19546L6.05478 2.32514C6.66416 2.11577 7.31572 1.99858 7.99697 1.99858C9.63447 1.99858 11.1173 2.65639 12.2001 3.71889L10.747 4.30014C10.747 4.30014 7.32978 6.05483 8.33134 8.66733C8.66728 9.4517 9.27041 9.93296 9.81884 9.93296C11.0298 9.93296 11.7235 8.85483 11.6657 7.33295C11.8923 7.10014 11.9626 7.10952 12.3329 7.00014C13.1095 6.87046 13.3642 7.10483 13.9595 7.31733C13.9845 7.54233 14.0017 7.76889 14.0017 8.00014C14.0001 11.3158 11.3126 14.0033 7.99697 14.0033Z" fill="#868D9A"/>
</svg>
