<svg width="16" height="16" viewBox="0 0 16 16" fill="none" xmlns="http://www.w3.org/2000/svg">
<path d="M14 1H2C1.4485 1 1 1.4485 1 2V14C1 14.5515 1.4485 15 2 15H11.25C11.3826 15 11.5098 14.9473 11.6036 14.8536C11.6973 14.7598 11.75 14.6326 11.75 14.5C11.75 14.3674 11.6973 14.2402 11.6036 14.1464C11.5098 14.0527 11.3826 14 11.25 14H2V2H14V11.25C14 11.3826 14.0527 11.5098 14.1464 11.6036C14.2402 11.6973 14.3674 11.75 14.5 11.75C14.6326 11.75 14.7598 11.6973 14.8536 11.6036C14.9473 11.5098 15 11.3826 15 11.25V2C15 1.4485 14.5515 1 14 1Z" fill="#868D9A"/>
<path d="M12.371 11.664C12.7793 11.1094 12.9997 10.4387 13 9.75C13 7.958 11.542 6.5 9.75 6.5C7.958 6.5 6.5 7.958 6.5 9.75C6.5 11.542 7.958 13 9.75 13C10.4387 12.9997 11.1094 12.7793 11.664 12.371L13.3965 14.1035C13.4428 14.1501 13.4979 14.1871 13.5586 14.2123C13.6192 14.2375 13.6843 14.2505 13.75 14.2505C13.8157 14.2505 13.8808 14.2375 13.9414 14.2123C14.0021 14.1871 14.0572 14.1501 14.1035 14.1035C14.15 14.0571 14.1868 14.002 14.212 13.9413C14.2372 13.8807 14.2501 13.8157 14.2501 13.75C14.2501 13.6843 14.2372 13.6193 14.212 13.5587C14.1868 13.498 14.15 13.4429 14.1035 13.3965L12.371 11.664ZM7.5 9.75C7.5 8.5095 8.5095 7.5 9.75 7.5C10.9905 7.5 12 8.5095 12 9.75C12 10.9905 10.9905 12 9.75 12C8.5095 12 7.5 10.9905 7.5 9.75ZM12.5 4.125C12.5 3.99239 12.4473 3.86521 12.3536 3.77145C12.2598 3.67768 12.1326 3.625 12 3.625H4C3.86739 3.625 3.74021 3.67768 3.64645 3.77145C3.55268 3.86521 3.5 3.99239 3.5 4.125C3.5 4.25761 3.55268 4.38479 3.64645 4.47855C3.74021 4.57232 3.86739 4.625 4 4.625H12C12.1326 4.625 12.2598 4.57232 12.3536 4.47855C12.4473 4.38479 12.5 4.25761 12.5 4.125ZM4 6.604C3.86739 6.604 3.74021 6.65668 3.64645 6.75045C3.55268 6.84421 3.5 6.97139 3.5 7.104C3.5 7.23661 3.55268 7.36379 3.64645 7.45755C3.74021 7.55132 3.86739 7.604 4 7.604H5.5C5.63261 7.604 5.75979 7.55132 5.85355 7.45755C5.94732 7.36379 6 7.23661 6 7.104C6 6.97139 5.94732 6.84421 5.85355 6.75045C5.75979 6.65668 5.63261 6.604 5.5 6.604H4Z" fill="#868D9A"/>
</svg>
