<svg width="93" height="64" viewBox="0 0 93 64" fill="none" xmlns="http://www.w3.org/2000/svg">
<path d="M86.6527 63.1555V61.9489H91.7875V56.8432H93V63.1555H86.6527ZM91.7875 1.20669H86.6527V0H93V6.30774H91.7875V1.20669ZM87.2623 5.02278C87.5875 5.34397 87.8455 5.72668 88.0213 6.14861C88.197 6.57054 88.287 7.02324 88.2861 7.48032V54.8851C88.2853 56.8025 86.7217 58.3572 84.7924 58.3587H7.61669C5.68771 58.356 4.12493 56.8021 4.12302 54.8851V7.48032C4.12573 5.56373 5.68851 4.01107 7.61669 4.00872H84.7939C85.7235 4.00872 86.6 4.36833 87.2623 5.02278ZM84.7958 5.54553H7.61669V5.54677C6.54176 5.54794 5.67062 6.41358 5.66951 7.48192V54.8867C5.66951 55.9532 6.5433 56.8235 7.61669 56.8235H84.7924C85.8657 56.8235 86.7411 55.9547 86.7411 54.8867V7.48032C86.7411 6.96379 86.5384 6.47675 86.1707 6.11091C85.8035 5.75064 85.3103 5.5478 84.7958 5.54553ZM56.2786 45.4805C56.3421 42.4483 56.9036 37.2736 59.9397 34.641L64.1196 34.6789L68.0342 41.0975L68.7719 36.2979L68.2384 35.4276L68.2783 34.5332C69.0529 34.4821 69.83 34.4832 70.6045 34.5363L70.6478 35.4307L70.1158 36.3006L70.8567 41.139L73.897 34.6483L78.521 34.4918C80.9108 36.7373 82.4434 42.0287 82.0675 45.4805H56.2786V45.4805ZM75.7218 27.6741C75.4033 28.8052 75.0308 29.8534 74.4973 30.7323C73.8877 31.7467 73.0817 32.5271 71.9425 32.9472C71.4333 33.1301 70.1328 33.2177 68.8816 33.196C67.6754 33.1809 66.4629 33.0611 65.9804 32.8394C64.9443 32.3675 64.2157 31.57 63.6667 30.5788C63.1935 29.7317 62.8579 28.7452 62.5623 27.7032C62.0783 27.4513 61.7148 27.0223 61.4687 26.4368C61.2014 25.8005 61.0793 24.9643 61.0948 23.9731L61.0995 23.6348L61.3824 23.4473C61.4528 23.3996 61.5251 23.3546 61.5989 23.3124C61.2804 19.4177 61.4009 17.9777 62.8564 16.3316C65.6941 14.0229 72.199 14.1046 75.0723 16.1975C77.0304 18.0359 77.1664 20.0954 76.565 23.2737C76.6606 23.3284 76.7545 23.3863 76.8463 23.4473L77.1292 23.6363L77.1326 23.9731C77.1493 24.9442 77.0319 25.7668 76.7754 26.4016C76.5386 26.9809 76.1906 27.413 75.7218 27.6741V27.6741ZM75.6865 24.299C75.579 24.2606 75.465 24.2433 75.351 24.2482L74.7739 24.2851L74.6674 23.7208C74.5489 23.0876 74.3476 22.4726 74.0687 21.8919C72.2285 22.2502 69.4927 22.5638 67.3304 21.3528C66.4969 20.887 65.2794 21.8415 64.2809 21.743C63.9649 22.3676 63.738 23.0333 63.6066 23.7208L63.495 24.3063L62.9041 24.2498C62.7876 24.2411 62.6706 24.2552 62.5596 24.2912C62.5053 24.3095 62.452 24.3305 62.3999 24.3544C62.4139 25.0027 62.5049 25.539 62.6754 25.942C62.8238 26.2954 63.0296 26.5244 63.2989 26.6089L63.6449 26.7166L63.7407 27.0622C64.0317 28.1275 64.3533 29.1373 64.8113 29.9561C65.2348 30.7156 65.7778 31.3224 66.5244 31.6638C66.8402 31.8079 67.8454 31.8882 68.8955 31.9037C70.012 31.9191 71.1241 31.8622 71.4922 31.7266C72.3195 31.424 72.9167 30.8353 73.3789 30.067C73.8738 29.2415 74.228 28.1934 74.5387 27.0437L74.6287 26.7135L74.9564 26.5996C75.2161 26.5089 75.4187 26.2721 75.5656 25.9156C75.7264 25.5193 75.8148 24.9903 75.8318 24.3559C75.785 24.3332 75.7364 24.3141 75.6865 24.299ZM20.5181 28.1872H38.3373V31.2287H20.5181V28.1871V28.1872ZM20.5181 20.6162H38.3373V23.6581H20.5181V20.6162ZM20.5181 13.0456H38.3373V16.0871H20.5181V13.0456ZM12.4236 28.1872H18.3407V31.2287H12.4236V28.1871V28.1872ZM12.4236 20.6162H18.3407V23.6581H12.4236V20.6162ZM12.4236 13.0456H18.3407V16.0871H12.4236V13.0456ZM28.1348 51.0334H12.4236V47.9904H28.1348V51.0334ZM56.7707 51.0334H29.972V47.9904H56.7707V51.0334ZM1.21403 6.30774H0V0H6.34882V1.20669H1.21403V6.3078V6.30774ZM1.21403 61.9489H6.34882V63.1555H0V56.8432H1.21403V61.9489Z" fill="#02AD8F"/>
</svg>
