<svg width="36" height="36" viewBox="0 0 36 36" fill="none" xmlns="http://www.w3.org/2000/svg">
<path d="M4.80617 28.9423L4.80617 7.87868C4.80617 5.93648 6.37937 4.36328 8.32157 4.36328L14.699 4.36328L14.699 32.4595L8.32157 32.4595C6.38117 32.4577 4.80617 30.8827 4.80617 28.9423Z" fill="#02AD8F"/>
<path d="M33.0481 28.5822L33.0481 7.58698C33.0481 5.00578 30.9493 2.90698 28.3681 2.90698L7.8553 2.90698C5.2741 2.90698 3.17529 5.00578 3.17529 7.58698L3.17529 28.5822C3.17529 31.1634 5.2741 33.2622 7.8553 33.2622L28.3681 33.2622C30.9475 33.2622 33.0481 31.1616 33.0481 28.5822ZM7.8553 31.1022C6.4657 31.1022 5.33529 29.9718 5.33529 28.5822L5.33529 7.58698C5.33529 6.19738 6.4657 5.06698 7.8553 5.06698L28.3681 5.06698C29.7577 5.06698 30.8881 6.19738 30.8881 7.58698L30.8881 28.5822C30.8881 29.9718 29.7577 31.1022 28.3681 31.1022L7.8553 31.1022Z" fill="white"/>
<path d="M22.4317 25.5978L22.4317 12.6072L24.8383 14.5764C25.0603 14.7533 25.343 14.8357 25.6253 14.8057C25.9075 14.7757 26.1666 14.6357 26.3465 14.4161C26.5263 14.1965 26.6124 13.915 26.5862 13.6323C26.56 13.3497 26.4235 13.0888 26.2063 12.906L22.0357 9.49321C21.7135 9.22861 21.2671 9.17461 20.8891 9.35281C20.5111 9.53101 20.2717 9.91081 20.2717 10.3284L20.2717 25.5978C20.2717 26.1936 20.7559 26.6778 21.3517 26.6778C21.9475 26.6778 22.4317 26.1954 22.4317 25.5978ZM15.7789 25.5978L15.7789 10.3284C15.7789 9.73261 15.2947 9.24841 14.6989 9.24841C14.1031 9.24841 13.6189 9.73261 13.6189 10.3284L13.6189 23.3424L11.1367 21.3444C10.978 21.2166 10.7864 21.1362 10.584 21.1126C10.3816 21.089 10.1766 21.1232 9.99277 21.211C9.80892 21.2989 9.65365 21.437 9.54489 21.6093C9.43614 21.7817 9.37833 21.9812 9.37812 22.185C9.37812 22.5 9.51672 22.8132 9.78132 23.0274L14.0203 26.4402C14.3443 26.7012 14.7889 26.7534 15.1633 26.5734C15.5395 26.3934 15.7789 26.0136 15.7789 25.5978Z" fill="white"/>
</svg>
