<svg width="14" height="14" viewBox="0 0 14 14" fill="none" xmlns="http://www.w3.org/2000/svg">
<path d="M1.64062 1.09375C1.33908 1.09375 1.09375 1.33908 1.09375 1.64062V12.3594C1.09375 12.6609 1.33908 12.9062 1.64062 12.9062H9.57031C9.87186 12.9062 10.1172 12.6609 10.1172 12.3594V1.64062C10.1172 1.33908 9.87186 1.09375 9.57031 1.09375H1.64062ZM1.64062 0H9.57031C10.4764 0 11.2109 0.734535 11.2109 1.64062V12.3594C11.2109 13.2655 10.4764 14 9.57031 14H1.64062C0.734535 14 0 13.2655 0 12.3594V1.64062C0 0.734535 0.734535 0 1.64062 0Z" fill="#686F82"/>
<path d="M9.625 6.34375C7.81572 6.34375 6.34375 7.81572 6.34375 9.625C6.34375 11.4343 7.81572 12.9062 9.625 12.9062C11.4343 12.9062 12.9062 11.4343 12.9062 9.625C12.9062 7.81572 11.4343 6.34375 9.625 6.34375ZM9.625 5.25C12.0413 5.25 14 7.20874 14 9.625C14 12.0413 12.0413 14 9.625 14C7.20874 14 5.25 12.0413 5.25 9.625C5.25 7.20874 7.20874 5.25 9.625 5.25Z" fill="#686F82"/>
<path d="M3.08984 2.87109H8.12109C8.26613 2.87109 8.40523 2.92871 8.50779 3.03127C8.61035 3.13383 8.66797 3.27293 8.66797 3.41797C8.66797 3.56301 8.61035 3.70211 8.50779 3.80467C8.40523 3.90723 8.26613 3.96484 8.12109 3.96484H3.08984C2.9448 3.96484 2.8057 3.90723 2.70314 3.80467C2.60059 3.70211 2.54297 3.56301 2.54297 3.41797C2.54297 3.27293 2.60059 3.13383 2.70314 3.03127C2.8057 2.92871 2.9448 2.87109 3.08984 2.87109Z" fill="#686F82"/>
<path d="M3.08984 5.33203H5.49609C5.64113 5.33203 5.78023 5.38965 5.88279 5.49221C5.98535 5.59477 6.04297 5.73387 6.04297 5.87891C6.04297 6.02395 5.98535 6.16305 5.88279 6.26561C5.78023 6.36816 5.64113 6.42578 5.49609 6.42578H3.08984C2.9448 6.42578 2.8057 6.36816 2.70314 6.26561C2.60059 6.16305 2.54297 6.02395 2.54297 5.87891C2.54297 5.73387 2.60059 5.59477 2.70314 5.49221C2.8057 5.38965 2.9448 5.33203 3.08984 5.33203Z" fill="#686F82"/>
<path d="M7.35547 10.2578H9.21484C9.30912 10.2578 9.39953 10.2953 9.4662 10.3619C9.53286 10.4286 9.57031 10.519 9.57031 10.6133C9.57031 10.7076 9.53286 10.798 9.4662 10.8646C9.39953 10.9313 9.30912 10.9688 9.21484 10.9688H7.35547C7.26119 10.9688 7.17078 10.9313 7.10411 10.8646C7.03745 10.798 7 10.7076 7 10.6133C7 10.519 7.03745 10.4286 7.10411 10.3619C7.17078 10.2953 7.26119 10.2578 7.35547 10.2578Z" fill="#02AD8F"/>
<path d="M7.71094 9.35547V10.6133C7.71094 10.7076 7.67349 10.798 7.60682 10.8646C7.54016 10.9313 7.44974 10.9688 7.35547 10.9688C7.26119 10.9688 7.17078 10.9313 7.10411 10.8646C7.03745 10.798 7 10.7076 7 10.6133V9.35547C7 9.26119 7.03745 9.17078 7.10411 9.10411C7.17078 9.03745 7.26119 9 7.35547 9C7.44974 9 7.54016 9.03745 7.60682 9.10411C7.67349 9.17078 7.71094 9.26119 7.71094 9.35547Z" fill="#02AD8F"/>
</svg>
