<svg width="24" height="24" viewBox="0 0 24 24" fill="none" xmlns="http://www.w3.org/2000/svg">
<path d="M15.6643 2.78616C15.4173 2.62978 15.1345 2.53897 14.8426 2.52232C14.5507 2.50567 14.2594 2.56372 13.9963 2.691L6.73038 6.17568C6.71568 6.1828 6.69956 6.18649 6.68322 6.18648H3.04782C2.5899 6.18648 2.15071 6.36824 1.82671 6.69183C1.50271 7.01543 1.3204 7.4544 1.31982 7.91232V16.107C1.3204 16.5649 1.50271 17.0039 1.82671 17.3275C2.15071 17.6511 2.5899 17.8328 3.04782 17.8328H6.71706C6.73277 17.8329 6.74828 17.8363 6.76254 17.8429L14.0186 21.1991C14.2817 21.3209 14.5712 21.3745 14.8605 21.355C15.1498 21.3355 15.4295 21.2435 15.6739 21.0875C15.9182 20.9315 16.1194 20.7165 16.2589 20.4623C16.3983 20.2081 16.4715 19.9229 16.4717 19.633V4.24692C16.4726 3.95484 16.3989 3.66737 16.2576 3.41175C16.1163 3.15612 15.9121 2.94079 15.6643 2.78616V2.78616ZM2.93898 16.107V7.91232C2.93898 7.88367 2.95036 7.8562 2.97062 7.83595C2.99087 7.81569 3.01834 7.80432 3.04698 7.80432H5.90718V16.2156H3.04782C3.03352 16.2157 3.01934 16.213 3.0061 16.2076C2.99286 16.2021 2.98083 16.1942 2.9707 16.1841C2.96057 16.1739 2.95256 16.1619 2.94711 16.1487C2.94167 16.1355 2.9389 16.1213 2.93898 16.107V16.107ZM14.8527 19.633C14.8528 19.6512 14.8483 19.6691 14.8395 19.6851C14.8308 19.7011 14.8182 19.7147 14.8028 19.7245C14.7875 19.7343 14.7699 19.74 14.7517 19.7412C14.7335 19.7424 14.7154 19.739 14.6989 19.7312L7.52634 16.4136V7.58832L14.6975 4.14948C14.714 4.14147 14.7323 4.1378 14.7506 4.13879C14.7689 4.13979 14.7866 4.14543 14.8021 4.15517C14.8177 4.16492 14.8304 4.17845 14.8393 4.1945C14.8481 4.21055 14.8528 4.22859 14.8527 4.24692V19.633V19.633ZM21.9903 11.2199H18.4688C18.2543 11.2199 18.0486 11.3051 17.8969 11.4568C17.7452 11.6084 17.66 11.8142 17.66 12.0287C17.66 12.2432 17.7452 12.4489 17.8969 12.6006C18.0486 12.7523 18.2543 12.8375 18.4688 12.8375H21.9903C22.2048 12.8375 22.4105 12.7523 22.5622 12.6006C22.7139 12.4489 22.7991 12.2432 22.7991 12.0287C22.7991 11.8142 22.7139 11.6084 22.5622 11.4568C22.4105 11.3051 22.2048 11.2199 21.9903 11.2199V11.2199ZM18.9844 8.45988C19.0907 8.46002 19.196 8.43918 19.2942 8.39855C19.3924 8.35792 19.4816 8.2983 19.5567 8.22312L22.0468 5.73588C22.1978 5.58393 22.2823 5.37832 22.282 5.16414C22.2816 4.94995 22.1963 4.74465 22.0448 4.59324C21.8933 4.44184 21.6879 4.35667 21.4737 4.35643C21.2595 4.35618 21.054 4.44086 20.9021 4.59191L18.412 7.07988C18.2991 7.19305 18.2223 7.33715 18.1912 7.49397C18.1602 7.65079 18.1763 7.81329 18.2376 7.96095C18.2988 8.10862 18.4024 8.23482 18.5354 8.32362C18.6683 8.41242 18.8246 8.45983 18.9844 8.45988V8.45988ZM19.5567 15.8335C19.4816 15.7584 19.3924 15.6987 19.2942 15.658C19.1961 15.6173 19.0908 15.5964 18.9846 15.5964C18.8783 15.5963 18.7731 15.6172 18.6749 15.6579C18.5767 15.6985 18.4875 15.7581 18.4123 15.8332C18.3372 15.9083 18.2775 15.9975 18.2368 16.0957C18.1962 16.1939 18.1752 16.2991 18.1752 16.4053C18.1751 16.5116 18.196 16.6168 18.2367 16.715C18.2773 16.8132 18.3369 16.9024 18.412 16.9776L20.9021 19.4652C21.054 19.6163 21.2595 19.7009 21.4737 19.7007C21.6879 19.7004 21.8933 19.6153 22.0448 19.4639C22.1963 19.3125 22.2816 19.1072 22.282 18.893C22.2823 18.6788 22.1978 18.4732 22.0468 18.3212L19.5567 15.8335Z" fill="#868D9A"/>
<path d="M21.9905 11.2199H18.469C18.2544 11.2199 18.0487 11.3051 17.897 11.4568C17.7454 11.6085 17.6602 11.8142 17.6602 12.0287C17.6602 12.2432 17.7454 12.4489 17.897 12.6006C18.0487 12.7523 18.2544 12.8375 18.469 12.8375H21.9905C22.205 12.8375 22.4107 12.7523 22.5624 12.6006C22.7141 12.4489 22.7993 12.2432 22.7993 12.0287C22.7993 11.8142 22.7141 11.6085 22.5624 11.4568C22.4107 11.3051 22.205 11.2199 21.9905 11.2199ZM18.9846 8.4599C19.0909 8.46004 19.1961 8.4392 19.2943 8.39857C19.3925 8.35794 19.4818 8.29832 19.5569 8.22314L22.047 5.7359C22.198 5.58395 22.2825 5.37834 22.2821 5.16416C22.2817 4.94997 22.1965 4.74467 22.0449 4.59326C21.8934 4.44186 21.6881 4.35669 21.4739 4.35645C21.2597 4.3562 21.0542 4.44088 20.9023 4.59193L18.4122 7.0799C18.2993 7.19307 18.2225 7.33717 18.1914 7.49399C18.1604 7.65081 18.1765 7.81331 18.2377 7.96097C18.299 8.10864 18.4026 8.23484 18.5355 8.32364C18.6685 8.41244 18.8247 8.45985 18.9846 8.4599ZM19.5569 15.8335C19.4818 15.7584 19.3926 15.6987 19.2944 15.6581C19.1962 15.6174 19.091 15.5964 18.9847 15.5964C18.8785 15.5964 18.7733 15.6173 18.6751 15.6579C18.5769 15.6985 18.4877 15.7581 18.4125 15.8332C18.3373 15.9084 18.2777 15.9975 18.237 16.0957C18.1963 16.1939 18.1754 16.2991 18.1753 16.4054C18.1753 16.5116 18.1962 16.6169 18.2369 16.715C18.2775 16.8132 18.3371 16.9025 18.4122 16.9776L20.9023 19.4652C21.0542 19.6163 21.2597 19.701 21.4739 19.7007C21.6881 19.7005 21.8934 19.6153 22.0449 19.4639C22.1965 19.3125 22.2817 19.1072 22.2821 18.893C22.2825 18.6788 22.198 18.4732 22.047 18.3213L19.5569 15.8335Z" fill="#02AD8F"/>
</svg>
