<svg width="16" height="16" viewBox="0 0 16 16" fill="none" xmlns="http://www.w3.org/2000/svg">
<path d="M7.40398 12.2517C7.51325 12.2517 7.61803 12.2951 7.6953 12.3724C7.77256 12.4497 7.81596 12.5545 7.81596 12.6637C7.81596 12.773 7.77256 12.8778 7.6953 12.955C7.61803 13.0323 7.51325 13.0757 7.40398 13.0757H4.37047C3.36277 13.0757 2.54541 12.2614 2.54541 11.2561V3.90538C2.54541 2.90016 3.36277 2.08582 4.37047 2.08582H10.5597C11.5674 2.08582 12.3848 2.90016 12.3848 3.90538V6.87243C12.3848 6.92654 12.3741 6.98012 12.3534 7.03011C12.3327 7.0801 12.3024 7.12552 12.2641 7.16379C12.2259 7.20205 12.1805 7.2324 12.1305 7.25311C12.0805 7.27382 12.0269 7.28448 11.9728 7.28448C11.9187 7.28448 11.8651 7.27382 11.8151 7.25311C11.7651 7.2324 11.7197 7.20205 11.6815 7.16379C11.6432 7.12552 11.6129 7.0801 11.5922 7.03011C11.5715 6.98012 11.5608 6.92654 11.5608 6.87243V3.90538C11.5608 3.35608 11.1131 2.90977 10.5597 2.90977H4.37047C3.81704 2.90977 3.36936 3.3558 3.36936 3.90538V11.2561C3.36936 11.8054 3.81704 12.2517 4.37047 12.2517H7.40398ZM5.19057 5.19267C5.08131 5.19267 4.97652 5.14926 4.89926 5.072C4.822 4.99474 4.7786 4.88995 4.7786 4.78069C4.7786 4.67143 4.822 4.56664 4.89926 4.48938C4.97652 4.41212 5.08131 4.36871 5.19057 4.36871H9.71242C9.82169 4.36871 9.92648 4.41212 10.0037 4.48938C10.081 4.56664 10.1244 4.67143 10.1244 4.78069C10.1244 4.88995 10.081 4.99474 10.0037 5.072C9.92648 5.14926 9.82169 5.19267 9.71242 5.19267H5.1903H5.19057ZM5.19057 7.4448C5.08131 7.4448 4.97652 7.4014 4.89926 7.32414C4.822 7.24688 4.7786 7.14209 4.7786 7.03283C4.7786 6.92356 4.822 6.81878 4.89926 6.74152C4.97652 6.66426 5.08131 6.62085 5.19057 6.62085H9.71242C9.82169 6.62085 9.92648 6.66426 10.0037 6.74152C10.081 6.81878 10.1244 6.92356 10.1244 7.03283C10.1244 7.14209 10.081 7.24688 10.0037 7.32414C9.92648 7.4014 9.82169 7.4448 9.71242 7.4448H5.1903H5.19057ZM5.19057 9.69612C5.08131 9.69612 4.97652 9.65271 4.89926 9.57545C4.822 9.49819 4.7786 9.3934 4.7786 9.28414C4.7786 9.17488 4.822 9.07009 4.89926 8.99283C4.97652 8.91557 5.08131 8.87216 5.19057 8.87216H6.88627C6.99553 8.87216 7.10032 8.91557 7.17758 8.99283C7.25484 9.07009 7.29824 9.17488 7.29824 9.28414C7.29824 9.3934 7.25484 9.49819 7.17758 9.57545C7.10032 9.65271 6.99553 9.69612 6.88627 9.69612H5.19057ZM10.9711 13.8398C9.29853 13.8398 7.9423 12.4885 7.9423 10.8211C7.9423 9.15368 9.29853 7.8024 10.9711 7.8024C12.6438 7.8024 14 9.15368 14 10.8208C14 12.4885 12.6438 13.8398 10.9711 13.8398ZM10.9711 13.1257C12.2499 13.1257 13.2859 12.0935 13.2859 10.8211C13.2859 9.54863 12.2499 8.51649 10.9711 8.51649C9.69237 8.51649 8.65639 9.54863 8.65639 10.8208C8.65639 12.0935 9.69237 13.1257 10.9711 13.1257ZM10.4273 11.2883L12.0041 9.71836C12.0712 9.65153 12.1622 9.6141 12.2569 9.61431C12.3516 9.61451 12.4424 9.65234 12.5092 9.71946C12.576 9.78659 12.6135 9.87751 12.6133 9.97223C12.613 10.067 12.5752 10.1577 12.5081 10.2245L10.6844 12.04C10.6184 12.1057 10.5293 12.1429 10.4362 12.1439C10.343 12.1448 10.2532 12.1093 10.1859 12.0449L9.1785 11.0828C9.11003 11.0174 9.07035 10.9275 9.06819 10.8328C9.06602 10.7381 9.10156 10.6465 9.16697 10.578C9.23238 10.5095 9.32231 10.4699 9.41698 10.4677C9.51165 10.4655 9.6033 10.5011 9.67178 10.5665L10.4271 11.288L10.4273 11.2883Z" fill="#21252F"/>
</svg>
