<svg width="32" height="32" viewBox="0 0 32 32" fill="none" xmlns="http://www.w3.org/2000/svg">
<rect width="32" height="32" rx="4" fill="#3961F1"/>
<path d="M19.2276 18.6013C19.2276 18.6013 19.7776 17.779 20.3637 16.1651C20.9498 14.554 21.0331 13.6651 21.0331 13.6651L16.4054 13.6263V12.0457L22.0109 12.0068V10.8901H16.4054V8.3457H13.6581V10.8901H8.43037V12.0068L13.6581 11.9679V13.6651H9.4637V14.554H18.097C18.097 14.554 18.0026 15.2735 17.672 16.1651C17.3415 17.0596 16.9998 17.8429 16.9998 17.8429C16.9998 17.8429 12.947 16.4235 10.8081 16.4235C8.67203 16.4235 6.07481 17.2818 5.82203 19.7707C5.57203 22.2596 7.03315 23.6096 9.09148 24.1068C11.1498 24.604 13.0498 24.1013 14.7054 23.2901C16.3609 22.4818 17.9831 20.6401 17.9831 20.6401L26.5665 24.8096C26.5665 24.8096 27.1054 23.9957 27.4943 23.2374C27.8831 22.4818 28.2054 21.6179 28.2054 21.6179L19.2276 18.6013ZM10.3693 22.7457C7.34148 22.7457 6.70537 21.2596 6.70537 20.1901C6.70537 19.1207 7.33592 17.9596 9.91092 17.7901C12.4887 17.6235 15.9665 19.6151 15.9665 19.6151C15.9665 19.6151 13.3998 22.7457 10.3693 22.7457Z" fill="white"/>
</svg>
