<svg width="16" height="16" viewBox="0 0 16 16" fill="none" xmlns="http://www.w3.org/2000/svg">
<path d="M10.5546 2.1488H11.9737C12.4657 2.1488 13.0647 2.63043 13.0647 3.02328V13.054C13.0647 13.5008 12.7275 13.8513 12.2882 13.8513H5.05345C4.88752 13.8513 4.59298 13.8509 4.59298 13.0544V5.49196C4.59298 5.21444 4.37146 4.99001 4.11094 4.99001C3.85043 4.99001 3.62891 5.21444 3.62891 5.49196V13.0544C3.62891 14.1811 4.16487 14.8448 5.05345 14.8448H12.2882C13.2564 14.8448 13.9998 14.0633 13.9998 13.0544V3.02328C13.9998 1.98287 12.898 1.15527 11.9737 1.15527H10.555C10.2941 1.15527 10.0829 1.37514 10.0829 1.65225C10.0829 1.92894 10.2945 2.1488 10.5546 2.1488Z" fill="#21252F"/>
<path d="M11.0015 6.64019C10.9402 6.58117 10.8584 6.5482 10.7734 6.5482C10.6883 6.5482 10.6065 6.58117 10.5452 6.64019L8.81451 8.32276L7.08382 6.64019C7.02252 6.58117 6.94074 6.5482 6.85566 6.5482C6.77057 6.5482 6.68879 6.58117 6.6275 6.64019C6.59756 6.66888 6.57373 6.70333 6.55746 6.74147C6.54118 6.77961 6.53279 6.82065 6.53279 6.86212C6.53279 6.90359 6.54118 6.94463 6.55746 6.98277C6.57373 7.02091 6.59756 7.05537 6.6275 7.08406L8.08772 8.50363H6.87847C6.83681 8.50269 6.79537 8.51001 6.75655 8.52518C6.71773 8.54034 6.68229 8.56303 6.65229 8.59196C6.62229 8.62088 6.59831 8.65546 6.58173 8.6937C6.56516 8.73194 6.55632 8.77308 6.55573 8.81475C6.55573 8.98774 6.70009 9.12505 6.87847 9.12505H8.5038V10.0576H6.87847C6.83681 10.0567 6.79537 10.064 6.75655 10.0791C6.71773 10.0943 6.68229 10.117 6.65229 10.1459C6.62229 10.1749 6.59831 10.2094 6.58173 10.2477C6.56516 10.2859 6.55632 10.3271 6.55573 10.3687C6.55573 10.5417 6.70009 10.6794 6.87847 10.6794H8.5038V11.6273C8.5038 11.8003 8.64484 11.941 8.82322 11.941C8.86487 11.9416 8.90622 11.9339 8.94489 11.9184C8.98356 11.903 9.01878 11.88 9.04852 11.8508C9.07826 11.8217 9.10193 11.7869 9.11815 11.7485C9.13438 11.7102 9.14284 11.669 9.14306 11.6273V10.6794H10.7505C10.9289 10.6794 11.0733 10.5417 11.0733 10.3683C11.0726 10.3267 11.0638 10.2856 11.0472 10.2474C11.0306 10.2092 11.0066 10.1747 10.9766 10.1458C10.9466 10.1169 10.9112 10.0942 10.8724 10.0791C10.8336 10.064 10.7922 10.0567 10.7505 10.0576H9.14306V9.12505H10.7505C10.9289 9.12505 11.0733 8.98774 11.0733 8.81434C11.0727 8.77267 11.0639 8.73152 11.0473 8.69328C11.0307 8.65505 11.0067 8.62047 10.9767 8.59154C10.9467 8.56262 10.9113 8.53992 10.8725 8.52476C10.8336 8.5096 10.7922 8.50228 10.7505 8.50321H9.5413L11.0015 7.08364C11.0315 7.05495 11.0553 7.0205 11.0716 6.98236C11.0878 6.94422 11.0962 6.90318 11.0962 6.86171C11.0962 6.82024 11.0878 6.7792 11.0716 6.74106C11.0553 6.70292 11.0315 6.66846 11.0015 6.63977V6.64019ZM2.44845 4.36191H8.6129L7.79692 5.24717C7.61024 5.44961 7.61024 5.77816 7.79692 5.98143C7.98359 6.18387 8.28642 6.18387 8.47393 5.98143L10.0337 4.29014C10.1731 4.20054 10.2664 4.03709 10.2664 3.84793C10.2664 3.66955 10.1835 3.51357 10.0561 3.42189L8.48886 1.72231C8.44616 1.67476 8.39399 1.63665 8.33569 1.61043C8.2774 1.58421 8.21427 1.57047 8.15036 1.57007C8.02798 1.57007 7.9056 1.62068 7.81185 1.72231C7.72162 1.82323 7.67174 1.95386 7.67174 2.08923C7.67174 2.22461 7.72162 2.35524 7.81185 2.45616L8.62161 3.33395H2.44845C2.1842 3.33395 1.96973 3.56128 1.96973 3.84834C1.96973 4.13458 2.1842 4.36232 2.44845 4.36232V4.36191Z" fill="#21252F"/>
</svg>
