<svg width="26" height="26" viewBox="0 0 26 26" fill="none" xmlns="http://www.w3.org/2000/svg">
<path d="M20.3542 17.6605V12.0771C20.3589 10.715 19.965 9.38126 19.2209 8.24033C18.4768 7.09939 17.4151 6.20113 16.1667 5.65629C16.1667 4.91589 15.8725 4.20582 15.349 3.68228C14.8255 3.15875 14.1154 2.86462 13.375 2.86462C12.6346 2.86462 11.9245 3.15875 11.401 3.68228C10.8775 4.20582 10.5833 4.91589 10.5833 5.65629C9.33492 6.20113 8.27322 7.09939 7.52913 8.24033C6.78505 9.38126 6.39109 10.715 6.39583 12.0771V17.6605L5 20.4521H21.75L20.3542 17.6605ZM11.9792 5.09796C11.9792 4.72776 12.1262 4.37272 12.388 4.11095C12.6498 3.84918 13.0048 3.70212 13.375 3.70212C13.7452 3.70212 14.1002 3.84918 14.362 4.11095C14.6238 4.37272 14.7708 4.72776 14.7708 5.09796C14.7733 5.14445 14.7733 5.19105 14.7708 5.23754C13.8501 5.04601 12.8999 5.04601 11.9792 5.23754C11.9767 5.19105 11.9767 5.14445 11.9792 5.09796ZM7.26125 19.0563L7.65208 18.2886L7.79167 17.9955V12.0771C7.79167 10.5963 8.37991 9.17619 9.42699 8.12911C10.4741 7.08203 11.8942 6.49379 13.375 6.49379C14.8558 6.49379 16.2759 7.08203 17.323 8.12911C18.3701 9.17619 18.9583 10.5963 18.9583 12.0771V17.9955L19.1119 18.2886L19.5027 19.0563H7.26125ZM9.1875 21.848H17.5625V23.2438H9.1875V21.848Z" fill="#727988"/>
<path d="M9.1875 21.8479H17.5625V23.2437H9.1875V21.8479Z" fill="#02AD8F"/>
</svg>
