<svg width="32" height="32" viewBox="0 0 32 32" fill="none" xmlns="http://www.w3.org/2000/svg">
<rect width="32" height="32" rx="4" fill="#565D6C"/>
<path d="M22.9415 16.5268H17.0645V22.8409C17.0645 23.4296 16.5868 23.9073 15.9981 23.9073C15.4088 23.9073 14.9317 23.4296 14.9317 22.8409V16.5268H9.05413C8.47182 16.5268 8 16.055 8 15.4727C8 14.8903 8.47182 14.4185 9.05413 14.4185H14.9317V9.15906C14.9317 8.57035 15.4088 8.09265 15.9981 8.09265C16.5868 8.09265 17.0645 8.57035 17.0645 9.15906V14.4185H22.9415C23.5238 14.4185 23.9961 14.8903 23.9961 15.4727C23.9961 16.055 23.5238 16.5268 22.9415 16.5268Z" fill="white"/>
</svg>
