<svg width="28" height="28" viewBox="0 0 28 28" fill="none" xmlns="http://www.w3.org/2000/svg">
<path d="M28 0H0V28H28V0Z" fill="white" fill-opacity="0.01"/>
<path d="M8.16665 10.4997C10.4218 10.4997 12.25 8.67151 12.25 6.41634C12.25 4.16118 10.4218 2.33301 8.16665 2.33301C5.91148 2.33301 4.08331 4.16118 4.08331 6.41634C4.08331 8.67151 5.91148 10.4997 8.16665 10.4997Z" stroke="#DADEE5" stroke-width="2.33333" stroke-linejoin="round"/>
<path d="M19.8333 10.4997C22.0885 10.4997 23.9167 8.67151 23.9167 6.41634C23.9167 4.16118 22.0885 2.33301 19.8333 2.33301C17.5782 2.33301 15.75 4.16118 15.75 6.41634C15.75 8.67151 17.5782 10.4997 19.8333 10.4997Z" stroke="#DADEE5" stroke-width="2.33333" stroke-linejoin="round"/>
<path d="M2.33331 25.6663C2.33331 25.1478 2.33331 23.3978 2.33331 20.4163C2.33331 17.1947 4.53261 14.583 7.24562 14.583C8.55555 14.583 9.538 14.583 10.193 14.583C12.5759 14.583 14 16.932 14 16.932" stroke="#DADEE5" stroke-width="2.33333" stroke-linecap="round" stroke-linejoin="round"/>
<path d="M25.6666 25.6663C25.6666 25.1478 25.6666 23.3978 25.6666 20.4163C25.6666 17.1947 23.4411 14.583 20.6958 14.583C19.3703 14.583 18.3762 14.583 17.7134 14.583C15.4027 14.583 13.9953 16.932 13.9998 16.932" stroke="#DADEE5" stroke-width="2.33333" stroke-linecap="round" stroke-linejoin="round"/>
<path d="M6.41669 23.333H22.1667" stroke="#DADEE5" stroke-width="2.33333" stroke-linecap="round" stroke-linejoin="round"/>
<path d="M20.0056 21.1504L20.7287 21.8779L22.1749 23.3329L20.7287 24.8271L20.0056 25.5743" stroke="#DADEE5" stroke-width="2.33333" stroke-linecap="round" stroke-linejoin="round"/>
<path d="M8.35887 21.1353L7.62434 21.8665L6.15527 23.329L7.62434 24.8157L8.35887 25.5591" stroke="#DADEE5" stroke-width="2.33333" stroke-linecap="round" stroke-linejoin="round"/>
</svg>
