<svg width="20" height="20" viewBox="0 0 20 20" fill="none" xmlns="http://www.w3.org/2000/svg">
<circle cx="10" cy="10" r="9.25" fill="#02AD8F" stroke="#02AD8F" stroke-width="1.5"/>
<path d="M7.98905 9.68916C6.98905 9.68916 6.17499 8.8751 6.17499 7.8751C6.17499 6.8751 6.98905 6.06104 7.98905 6.06104C8.98905 6.06104 9.80311 6.8751 9.80311 7.8751C9.80311 8.8751 8.98905 9.68916 7.98905 9.68916ZM7.98905 7.27041C7.65624 7.27041 7.38436 7.54229 7.38436 7.8751C7.38436 8.20791 7.65624 8.47979 7.98905 8.47979C8.32186 8.47979 8.59374 8.20947 8.59374 7.8751C8.59374 7.54072 8.32342 7.27041 7.98905 7.27041ZM12.2219 13.922C11.2219 13.922 10.4078 13.1079 10.4078 12.1079C10.4078 11.1079 11.2219 10.2938 12.2219 10.2938C13.2219 10.2938 14.0359 11.1079 14.0359 12.1079C14.0359 13.1079 13.2219 13.922 12.2219 13.922ZM12.2219 11.5032C11.8891 11.5032 11.6172 11.7751 11.6172 12.1079C11.6172 12.4407 11.8891 12.7126 12.2219 12.7126C12.5547 12.7126 12.8266 12.4407 12.8266 12.1079C12.8266 11.7751 12.5547 11.5032 12.2219 11.5032ZM7.0453 13.5063C6.89061 13.5063 6.73593 13.447 6.61718 13.3298C6.38124 13.0938 6.38124 12.711 6.61718 12.4751L12.5125 6.57822C12.7484 6.34229 13.1312 6.34229 13.3672 6.57822C13.6031 6.81416 13.6031 7.19697 13.3672 7.43291L7.47186 13.3282C7.35468 13.447 7.19999 13.5063 7.0453 13.5063Z" fill="white"/>
</svg>
