<svg width="20" height="20" viewBox="0 0 20 20" fill="none" xmlns="http://www.w3.org/2000/svg">
<path d="M20 0H0V20H20V0Z" fill="white" fill-opacity="0.01"/>
<path d="M6.04166 3.33325C5.76691 3.49014 5.50258 3.66285 5.24999 3.85013C4.8177 4.17063 4.41974 4.53384 4.06249 4.93334C2.83073 6.31088 2.08333 8.12038 2.08333 10.1022C2.08333 14.418 5.62774 17.9166 9.99999 17.9166C14.3722 17.9166 17.9167 14.418 17.9167 10.1022C17.9167 8.12038 17.1692 6.31088 15.9375 4.93334C15.5802 4.53384 15.1823 4.17063 14.75 3.85013C14.4974 3.66285 14.2331 3.49014 13.9583 3.33325" stroke="#B9CFD1" stroke-width="1.66667" stroke-linecap="round" stroke-linejoin="round"/>
<path d="M10 1.66675V10.0001" stroke="#B9CFD1" stroke-width="1.66667" stroke-linecap="round" stroke-linejoin="round"/>
</svg>
