<svg width="34" height="34" viewBox="0 0 34 34" fill="none" xmlns="http://www.w3.org/2000/svg">
<circle cx="17" cy="17" r="17" fill="#02AD8F" fill-opacity="0.16"/>
<path d="M27 7H7V27H27V7Z" fill="white" fill-opacity="0.01"/>
<path d="M17 25.3332C21.6024 25.3332 25.3333 21.6022 25.3333 16.9998C25.3333 12.3975 21.6024 8.6665 17 8.6665C12.3976 8.6665 8.66667 12.3975 8.66667 16.9998C8.66667 21.6022 12.3976 25.3332 17 25.3332Z" stroke="#02AD8F" stroke-width="1.66667" stroke-linecap="round" stroke-linejoin="round"/>
<path d="M17.4167 13.6667V12M15.3333 13.6667V17H18.25C19.1705 17 19.9167 16.2538 19.9167 15.3333C19.9167 14.4129 19.1705 13.6667 18.25 13.6667H17.4167H15.3333ZM15.3333 13.6667H13.6667H15.3333ZM15.3333 13.6667V12V13.6667ZM15.3333 13.6667H17.4167H15.3333Z" stroke="#02AD8F" stroke-width="1.66667" stroke-linecap="round" stroke-linejoin="round"/>
<path d="M17.4167 20.3333V22M15.3333 20.3333V17H19.0833C20.0038 17 20.75 17.7462 20.75 18.6667C20.75 19.5871 20.0038 20.3333 19.0833 20.3333H17.4167H15.3333ZM15.3333 20.3333V22V20.3333ZM15.3333 20.3333H13.6667H17.4167H15.3333ZM15.3333 20.3333H17.4167H15.3333Z" stroke="#02AD8F" stroke-width="1.66667" stroke-linecap="round" stroke-linejoin="round"/>
</svg>
