<svg width="13" height="9" viewBox="0 0 13 9" fill="none" xmlns="http://www.w3.org/2000/svg">
<path d="M0.524684 0.474121H12.2245C12.3253 0.474206 12.4239 0.503266 12.5085 0.557834C12.5932 0.612402 12.6604 0.690174 12.7021 0.781877C12.7438 0.87358 12.7583 0.975341 12.7437 1.07503C12.7292 1.17471 12.6863 1.26811 12.6201 1.34408L6.77021 8.07097C6.72092 8.12744 6.66011 8.1727 6.59188 8.2037C6.52364 8.23471 6.44956 8.25076 6.37461 8.25076C6.29966 8.25076 6.22558 8.23471 6.15735 8.2037C6.08911 8.1727 6.02831 8.12744 5.97902 8.07097L0.129087 1.34408C0.0629354 1.26811 0.0200329 1.17471 0.00549634 1.07503C-0.00904025 0.975341 0.00540261 0.87358 0.0471024 0.781877C0.0888021 0.690174 0.155999 0.612402 0.240678 0.557834C0.325357 0.503266 0.423945 0.474206 0.524684 0.474121Z" fill="#A5A9B0"/>
</svg>
