<svg width="20" height="20" viewBox="0 0 20 20" fill="none" xmlns="http://www.w3.org/2000/svg">
<path fill-rule="evenodd" clip-rule="evenodd" d="M5.18468 15.4644C6.42441 16.2886 8.00624 16.875 10 16.875C15.6525 16.875 18.0156 12.1175 18.6244 10.66C18.7919 10.2294 18.7919 9.77125 18.6244 9.34C18.3597 8.7063 17.7634 7.44875 16.7092 6.22965L15.746 7.00154C16.6997 8.08722 17.2338 9.22532 17.4613 9.80187C17.5132 9.93813 17.5132 10.0887 17.4613 10.225C16.95 11.4938 14.8906 15.625 10 15.625C8.47865 15.625 7.23127 15.2252 6.21923 14.6354L5.18468 15.4644ZM3.62652 14.1501C2.35869 12.8205 1.66795 11.3598 1.37565 10.66C1.20812 10.2359 1.20812 9.76405 1.37565 9.34C1.9844 7.8825 4.32127 3.125 10 3.125C12.2248 3.125 13.94 3.862 15.2392 4.84471L14.2332 5.65085C13.1477 4.90786 11.7564 4.375 10 4.375C5.1094 4.375 3.05002 8.50625 2.53877 9.775C2.48681 9.91126 2.48681 10.0619 2.53877 10.1981C2.79245 10.841 3.42726 12.182 4.59997 13.37L3.62652 14.1501ZM7.16677 11.3132C6.97962 10.913 6.87502 10.4677 6.87502 10C6.87502 8.2875 8.27752 6.875 10 6.875C10.713 6.875 11.3712 7.11704 11.8978 7.5222L10.8743 8.34237C10.6125 8.20356 10.3147 8.125 10 8.125C8.97252 8.125 8.12502 8.9625 8.12502 10C8.12502 10.1707 8.1477 10.3361 8.19023 10.4931L7.16677 11.3132ZM9.69477 11.8504L8.55161 12.7664C8.98488 12.9951 9.47774 13.125 10 13.125C11.7225 13.125 13.125 11.7125 13.125 10C13.125 9.71974 13.0875 9.44752 13.0171 9.18821L11.8721 10.1057C11.8175 11.0938 11.0021 11.875 10 11.875C9.89605 11.875 9.79408 11.8666 9.69477 11.8504Z" fill="white"/>
<line x1="17.3657" y1="4.45303" x2="3.38476" y2="15.6561" stroke="white" stroke-width="1.2" stroke-linecap="round"/>
</svg>
