<svg width="51" height="48" viewBox="0 0 51 48" fill="none" xmlns="http://www.w3.org/2000/svg">
<path fill-rule="evenodd" clip-rule="evenodd" d="M45.7075 47.9992L51 20.0935H44.7452L45.7075 47.9992Z" fill="url(#paint0_linear)"/>
<path fill-rule="evenodd" clip-rule="evenodd" d="M14.4339 0.848145H44.2641H48.1131C46.5094 0.848145 45.7075 2.13116 45.7075 4.6972C45.7075 7.26324 45.7075 21.5368 45.7075 47.518H9.62256V5.65947C9.62256 3.00225 11.7767 0.848145 14.4339 0.848145Z" fill="url(#paint1_linear)"/>
<path fill-rule="evenodd" clip-rule="evenodd" d="M48.3537 0.848145C49.8152 0.848145 50.9999 2.0329 50.9999 3.49437V8.54626H45.7075V3.49437C45.7075 2.0329 46.8922 0.848145 48.3537 0.848145Z" fill="#4A5162"/>
<path opacity="0.5" d="M38.0094 7.10278H15.8773V9.98958H38.0094V7.10278Z" stroke="#777F93" stroke-width="0.962264"/>
<path opacity="0.5" d="M15.8773 13.8386H38.4905" stroke="#777F93" stroke-width="0.962264"/>
<path opacity="0.5" d="M23.5754 17.2065H38.4905" stroke="#777F93" stroke-width="0.962264"/>
<path fill-rule="evenodd" clip-rule="evenodd" d="M-6.10352e-05 19.6123L12.7324 19.6123L17.761 23.8957H41.3773L45.7075 47.9991H2.4056L-6.10352e-05 19.6123Z" fill="url(#paint2_linear)"/>
<path d="M25.2276 42.7429V41.0183H26.1633C26.7993 41.0183 27.206 40.8624 27.3833 40.5505C27.4873 40.3671 27.5392 40.1102 27.5392 39.78V37.5601C27.5392 36.973 27.3283 36.6153 26.9063 36.4869C26.7473 36.438 26.5608 36.4135 26.3468 36.4135H26.1174C25.5854 36.4135 25.2827 36.6826 25.2093 37.2207C25.2032 37.2391 25.2001 37.2544 25.2001 37.2666L25.0992 36.5052H23.9159V42.7429H25.2276ZM25.2276 37.5968C25.2399 37.5173 25.2827 37.4745 25.3561 37.4684H26.1266C26.2061 37.4806 26.2489 37.5234 26.255 37.5968V39.8167C26.2428 39.8962 26.2 39.939 26.1266 39.9451H25.2276V37.5968ZM30.4838 37.5143C30.5633 37.5265 30.6061 37.5693 30.6122 37.6427V39.8625C30.6 39.942 30.5572 39.9849 30.4838 39.991H29.7133C29.6338 39.9787 29.5909 39.9359 29.5848 39.8625V37.6427C29.5971 37.5632 29.6399 37.5204 29.7133 37.5143H30.4838ZM28.2731 39.7158C28.2731 40.3946 28.5269 40.8165 29.0344 40.9817C29.2546 41.055 29.5206 41.0917 29.8325 41.0917H30.3645C31.1534 41.0917 31.6396 40.8532 31.823 40.3762C31.8903 40.1928 31.9239 39.9726 31.9239 39.7158V37.7894C31.9239 37.1106 31.6702 36.6887 31.1626 36.5236C30.9485 36.4502 30.6825 36.4135 30.3645 36.4135H29.8325C29.0436 36.4135 28.5575 36.652 28.374 37.129C28.3067 37.3124 28.2731 37.5326 28.2731 37.7894V39.7158ZM34.8685 37.5143C34.948 37.5265 34.9908 37.5693 34.9969 37.6427V39.8625C34.9847 39.942 34.9419 39.9849 34.8685 39.991H34.098C34.0185 39.9787 33.9756 39.9359 33.9695 39.8625V37.6427C33.9818 37.5632 34.0246 37.5204 34.098 37.5143H34.8685ZM32.6578 39.7158C32.6578 40.3946 32.9116 40.8165 33.4191 40.9817C33.6393 41.055 33.9053 41.0917 34.2172 41.0917H34.7492C35.5381 41.0917 36.0243 40.8532 36.2077 40.3762C36.275 40.1928 36.3086 39.9726 36.3086 39.7158V37.7894C36.3086 37.1106 36.0549 36.6887 35.5473 36.5236C35.3333 36.4502 35.0672 36.4135 34.7492 36.4135H34.2172C33.4283 36.4135 32.9422 36.652 32.7587 37.129C32.6914 37.3124 32.6578 37.5326 32.6578 37.7894V39.7158ZM38.4827 41V34.8082H37.1801V41H38.4827Z" fill="white"/>
<path d="M21.128 33.3607C21.0669 33.3576 21.0058 33.3576 20.9448 33.3607H20.9276C20.854 33.3607 20.771 33.3701 20.7053 33.3795H20.674C20.6019 33.3968 20.5393 33.4093 20.4736 33.4234L20.4266 33.4343C20.3671 33.45 20.3076 33.4672 20.2497 33.486L20.1871 33.5063C20.1338 33.5251 20.0837 33.547 20.0305 33.569C20.0055 33.5799 19.9789 33.5893 19.9538 33.6018C19.9288 33.6144 19.8614 33.6504 19.8145 33.677C19.7675 33.7036 19.7612 33.7036 19.7362 33.7193C19.7112 33.7349 19.6423 33.7819 19.5969 33.8132L19.5515 33.8445L19.3495 33.63L18.9503 34.0042L19.1491 34.2202C18.8228 34.5982 18.6196 35.0669 18.5668 35.5634C18.5555 35.6522 18.5498 35.7416 18.5495 35.8311H18.6826L19.0896 35.9C19.2223 35.5028 19.4354 35.1372 19.7158 34.8261L21.1781 36.4088L21.5835 36.0331L20.1166 34.4566C20.4487 34.2014 20.8297 34.017 21.236 33.9149L21.1874 33.3607H21.1264H21.128Z" fill="#71C4B6"/>
<path d="M9.99026 39.78H7.99054C7.91105 39.7678 7.86824 39.725 7.86212 39.6516V36.5236C7.87435 36.4441 7.91716 36.4013 7.99054 36.3951H9.99026V35.1751H8.13731C7.04267 35.1874 6.49229 35.6766 6.48617 36.6428V39.5323C6.4984 40.5047 7.04878 40.9939 8.13731 41H9.99026V39.78ZM12.678 37.5143C12.7575 37.5265 12.8003 37.5693 12.8064 37.6427V39.8625C12.7941 39.942 12.7513 39.9849 12.678 39.991H11.9074C11.8279 39.9787 11.7851 39.9359 11.779 39.8625V37.6427C11.7912 37.5632 11.834 37.5204 11.9074 37.5143H12.678ZM10.4673 39.7158C10.4673 40.3946 10.721 40.8165 11.2286 40.9817C11.4488 41.055 11.7148 41.0917 12.0267 41.0917H12.5587C13.3476 41.0917 13.8338 40.8532 14.0172 40.3762C14.0845 40.1928 14.1181 39.9726 14.1181 39.7158V37.7894C14.1181 37.1106 13.8643 36.6887 13.3568 36.5236C13.1427 36.4502 12.8767 36.4135 12.5587 36.4135H12.0267C11.2378 36.4135 10.7516 36.652 10.5682 37.129C10.5009 37.3124 10.4673 37.5326 10.4673 37.7894V39.7158ZM16.3013 41V36.5052H14.9987V41H16.3013ZM16.3013 35.9365V34.8357H14.9987V35.9365H16.3013ZM19.466 36.4135C18.9278 36.4257 18.6221 36.6948 18.5487 37.2207L18.457 36.5052H17.2736L17.292 41H18.5946L18.5762 37.5968C18.5884 37.5173 18.6312 37.4745 18.7046 37.4684H19.466C19.5455 37.4806 19.5883 37.5234 19.5944 37.5968V41H20.897V37.5601C20.897 36.973 20.686 36.6153 20.264 36.4869C20.105 36.438 19.9185 36.4135 19.7045 36.4135H19.466Z" fill="#02AD8F"/>
<path fill-rule="evenodd" clip-rule="evenodd" d="M38.8825 28.1836V29.1459H26.3731V28.1836H38.8825ZM24.4485 28.1836V29.1459H21.5617V28.1836H24.4485Z" fill="#4C546B"/>
<defs>
<linearGradient id="paint0_linear" x1="48.0297" y1="20.0935" x2="41.7259" y2="48.0246" gradientUnits="userSpaceOnUse">
<stop stop-color="#323846"/>
<stop offset="1" stop-color="#3C4457"/>
</linearGradient>
<linearGradient id="paint1_linear" x1="28.9213" y1="0.848129" x2="8.09038" y2="43.789" gradientUnits="userSpaceOnUse">
<stop stop-color="#4A5162"/>
<stop offset="1" stop-color="#21252F"/>
</linearGradient>
<linearGradient id="paint2_linear" x1="39.1961" y1="29.8454" x2="0.559751" y2="59.5892" gradientUnits="userSpaceOnUse">
<stop stop-color="#333A4D"/>
<stop offset="1" stop-color="#343A48"/>
</linearGradient>
</defs>
</svg>
