<svg width="20" height="20" viewBox="0 0 20 20" fill="none" xmlns="http://www.w3.org/2000/svg">
<path d="M5.59063 15.7989C5.02601 15.7989 4.61549 15.335 4.61549 14.7653V10.3392C4.61549 10.1952 4.49875 10.0789 4.35505 10.0789C4.21109 10.0789 4.0946 10.1952 4.0946 10.3392V14.7653C4.0946 15.6224 4.73883 16.3198 5.59061 16.3198C5.73431 16.3198 5.85105 16.2033 5.85105 16.0593C5.85107 15.9154 5.73433 15.7989 5.59063 15.7989Z" fill="#02AD8F" stroke="#02AD8F" stroke-width="0.3"/>
<path d="M6.86152 15.8086H6.60108C6.45738 15.8086 6.34064 15.9251 6.34064 16.069C6.34064 16.213 6.45738 16.3295 6.60108 16.3295H6.86152C7.00549 16.3295 7.12197 16.213 7.12197 16.069C7.12197 15.9251 7.00549 15.8086 6.86152 15.8086Z" fill="#02AD8F"/>
<path d="M16.9158 9.55803H15.8563V7.17667C15.8563 6.36216 15.2352 5.67318 14.457 5.45949C14.4731 5.37043 14.4664 5.27603 14.4325 5.18508L13.3086 2.17004C13.2602 2.04057 13.1626 1.93554 13.0369 1.87818C12.911 1.82082 12.7678 1.81548 12.6384 1.86405L3.61855 5.2311C3.52816 5.26484 3.45279 5.32104 3.39618 5.39096H2.97891C1.98342 5.39096 1.27155 6.19211 1.27155 7.17667V16.328C1.27155 17.3342 1.98344 18.1526 2.97891 18.1526H13.9533C14.9488 18.1526 15.8563 17.3342 15.8563 16.328V14.246H16.9158C17.9128 14.246 18.7211 13.4377 18.7211 12.4407V11.3633C18.7211 10.3662 17.9128 9.55803 16.9158 9.55803ZM12.5145 3.02218L13.3974 5.39096H6.16887L12.5145 3.02218ZM14.8145 16.328C14.8145 16.7523 14.3671 17.1108 13.9533 17.1108H2.97891C2.56509 17.1108 2.3133 16.7523 2.3133 16.328V7.17667C2.3133 6.75955 2.55086 6.43273 2.97891 6.43273H13.9533C14.3814 6.43273 14.8145 6.75955 14.8145 7.17667V9.55803H13.2341C12.237 9.55803 11.4288 10.3662 11.4288 11.3633V12.4407C11.4288 13.4377 12.237 14.246 13.2341 14.246H14.8145V16.328ZM17.6794 12.4407C17.6794 12.8624 17.3375 13.2042 16.9158 13.2042H13.2341C12.8123 13.2042 12.4705 12.8624 12.4705 12.4407V11.3633C12.4705 10.9417 12.8124 10.5997 13.2341 10.5997H16.9158C17.3375 10.5997 17.6794 10.9417 17.6794 11.3633V12.4407Z" fill="#727988"/>
<path d="M13.7837 11.3832C13.508 11.3832 13.2844 11.607 13.2844 11.8827C13.2844 12.1584 13.508 12.3817 13.7837 12.3817C14.0591 12.3817 14.2829 12.1584 14.2829 11.8827C14.2829 11.607 14.0591 11.3832 13.7837 11.3832Z" fill="#727988"/>
</svg>
