<svg width="26" height="26" viewBox="0 0 26 26" fill="none" xmlns="http://www.w3.org/2000/svg">
<path d="M13.9535 12.9305C13.8211 12.879 13.6871 12.8308 13.5515 12.7861C14.253 12.3564 14.8324 11.7539 15.2342 11.0362C15.6361 10.3184 15.847 9.50957 15.8468 8.68699C15.8468 6.03048 13.6939 3.87744 11.0382 3.87744C8.38256 3.87744 6.22967 6.03048 6.22967 8.68699C6.22943 9.50954 6.44032 10.3184 6.84215 11.0361C7.24399 11.7538 7.82332 12.3564 8.52469 12.7861C5.36887 13.8237 3.07588 16.7623 3 20.2473H4.30923C4.3375 19.2129 4.60369 18.1989 5.08713 17.284C5.57058 16.3691 6.25829 15.5779 7.09691 14.9717C7.93553 14.3655 8.90253 13.9607 9.92289 13.7886C10.9432 13.6165 11.9895 13.6818 12.9806 13.9793C13.2547 13.5863 13.5822 13.2333 13.9535 12.9305L13.9535 12.9305ZM11.0382 12.1851C10.229 12.1848 9.44492 11.9039 8.81956 11.3903C8.19421 10.8767 7.76625 10.1622 7.6086 9.36851C7.45095 8.5748 7.57335 7.75098 7.95496 7.0374C8.33657 6.32381 8.95378 5.7646 9.70145 5.45503C10.4491 5.14547 11.281 5.10469 12.0553 5.33965C12.8297 5.57461 13.4986 6.07077 13.9482 6.74361C14.3978 7.41646 14.6002 8.22435 14.5209 9.02968C14.4416 9.835 14.0856 10.5879 13.5135 11.1602C13.1892 11.4863 12.8034 11.7448 12.3785 11.9207C11.9537 12.0966 11.4981 12.1865 11.0382 12.1851Z" fill="#727988"/>
<path d="M11.0388 16.4741L12.2985 14.7437H9.7793L11.0388 16.4741H11.0388ZM10.5609 16.9964L10.1391 20.9644L11.0388 22.1224L11.9387 20.9644L11.5169 16.9964H10.5609ZM17.1746 13.1577C15.062 13.1577 13.3492 14.8703 13.3492 16.9831C13.3492 19.0959 15.062 20.8085 17.1746 20.8085C19.2871 20.8085 21 19.0959 21 16.9831C21 14.8703 19.2873 13.1577 17.1746 13.1577ZM18.9543 18.7628C18.5428 19.1746 18.0013 19.4309 17.422 19.4881C16.8427 19.5454 16.2615 19.4 15.7773 19.0767C15.2932 18.7535 14.9362 18.2724 14.767 17.7154C14.5978 17.1584 14.627 16.56 14.8496 16.0221C15.0722 15.4842 15.4743 15.0401 15.9876 14.7655C16.5009 14.4909 17.0935 14.4028 17.6645 14.5161C18.2355 14.6295 18.7495 14.9373 19.119 15.3871C19.4884 15.837 19.6905 16.401 19.6907 16.9831C19.6917 17.3136 19.627 17.6411 19.5006 17.9465C19.3741 18.2519 19.1883 18.5291 18.9539 18.7622L18.9543 18.7628Z" fill="#727988"/>
<path d="M17.6656 15.1416H16.6836V16.4917H15.3335V17.4737H16.6836V18.8238H17.6656V17.4737H19.0157V16.4917H17.6656V15.1416Z" fill="#727988"/>
<path d="M13.9535 12.9305C13.8211 12.879 13.6871 12.8308 13.5515 12.7861C14.253 12.3564 14.8324 11.7539 15.2342 11.0362C15.6361 10.3184 15.847 9.50957 15.8468 8.68699C15.8468 6.03048 13.6939 3.87744 11.0382 3.87744C8.38256 3.87744 6.22967 6.03048 6.22967 8.68699C6.22943 9.50954 6.44032 10.3184 6.84215 11.0361C7.24399 11.7538 7.82332 12.3564 8.52469 12.7861C5.36887 13.8237 3.07588 16.7623 3 20.2473H4.30923C4.3375 19.2129 4.60369 18.1989 5.08713 17.284C5.57058 16.3691 6.25829 15.5779 7.09691 14.9717C7.93553 14.3655 8.90253 13.9607 9.92289 13.7886C10.9432 13.6165 11.9895 13.6818 12.9806 13.9793C13.2547 13.5863 13.5822 13.2333 13.9535 12.9305L13.9535 12.9305ZM11.0382 12.1851C10.229 12.1848 9.44492 11.9039 8.81956 11.3903C8.19421 10.8767 7.76625 10.1622 7.6086 9.36851C7.45095 8.5748 7.57335 7.75098 7.95496 7.0374C8.33657 6.32381 8.95378 5.7646 9.70145 5.45503C10.4491 5.14547 11.281 5.10469 12.0553 5.33965C12.8297 5.57461 13.4986 6.07077 13.9482 6.74361C14.3978 7.41646 14.6002 8.22435 14.5209 9.02968C14.4416 9.835 14.0856 10.5879 13.5135 11.1602C13.1892 11.4863 12.8034 11.7448 12.3785 11.9207C11.9537 12.0966 11.4981 12.1865 11.0382 12.1851Z" fill="#727988"/>
<path d="M11.0388 16.4741L12.2985 14.7437H9.7793L11.0388 16.4741H11.0388ZM10.5609 16.9964L10.1391 20.9644L11.0388 22.1224L11.9387 20.9644L11.5169 16.9964H10.5609ZM17.1746 13.1577C15.062 13.1577 13.3492 14.8703 13.3492 16.9831C13.3492 19.0959 15.062 20.8085 17.1746 20.8085C19.2871 20.8085 21 19.0959 21 16.9831C21 14.8703 19.2873 13.1577 17.1746 13.1577ZM18.9543 18.7628C18.5428 19.1746 18.0013 19.4309 17.422 19.4881C16.8427 19.5454 16.2615 19.4 15.7773 19.0767C15.2932 18.7535 14.9362 18.2724 14.767 17.7154C14.5978 17.1584 14.627 16.56 14.8496 16.0221C15.0722 15.4842 15.4743 15.0401 15.9876 14.7655C16.5009 14.4909 17.0935 14.4028 17.6645 14.5161C18.2355 14.6295 18.7495 14.9373 19.119 15.3871C19.4884 15.837 19.6905 16.401 19.6907 16.9831C19.6917 17.3136 19.627 17.6411 19.5006 17.9465C19.3741 18.2519 19.1883 18.5291 18.9539 18.7622L18.9543 18.7628Z" fill="#727988"/>
<path d="M17.6656 15.1416H16.6836V16.4917H15.3335V17.4737H16.6836V18.8238H17.6656V17.4737H19.0157V16.4917H17.6656V15.1416Z" fill="#02AD8F"/>
</svg>
