<svg width="18" height="18" viewBox="0 0 18 18" fill="none" xmlns="http://www.w3.org/2000/svg">
<path d="M5.69982 9.19993C5.69982 9.09993 5.69982 9.09993 5.69982 9.19993L13.6998 1.19993C13.8998 0.999927 14.2998 0.799927 14.5998 0.799927C14.9998 0.799927 15.3998 0.999927 15.6998 1.29993L16.3998 1.99993C16.6998 2.29993 16.8998 2.69993 16.8998 3.09993C16.8998 3.39993 16.7998 3.79993 16.4998 3.99993L8.59982 11.9999H8.49982L5.49982 12.7999H5.39982C5.29982 12.7999 5.09982 12.6999 4.99982 12.6999C4.89982 12.5999 4.79982 12.3999 4.89982 12.1999L5.69982 9.19993ZM14.4998 2.09993L7.29982 9.29993L8.39982 10.3999L15.6998 3.09993L14.4998 2.09993ZM5.99982 11.6999L7.39982 11.2999L6.39982 10.1999L5.99982 11.6999Z" fill="#868D9A"/>
<path d="M17.1998 7.59993V15.1999C17.1998 16.2999 16.2998 17.0999 15.2998 17.0999H2.6998C1.6998 17.0999 0.799805 16.1999 0.799805 15.1999V2.79993C0.799805 1.69993 1.6998 0.799927 2.6998 0.799927H10.7998C11.1998 0.799927 11.4998 1.09993 11.4998 1.59993C11.4998 1.99993 11.1998 2.39993 10.7998 2.39993H2.7998C2.4998 2.39993 2.2998 2.59993 2.2998 2.89993V15.1999C2.2998 15.4999 2.4998 15.6999 2.7998 15.6999H15.1998C15.4998 15.6999 15.6998 15.4999 15.6998 15.1999V7.59993C15.6998 7.19993 15.9998 6.79993 16.4998 6.79993C16.8998 6.89993 17.1998 7.19993 17.1998 7.59993Z" fill="#868D9A"/>
</svg>
