<svg width="24" height="24" viewBox="0 0 24 24" fill="none" xmlns="http://www.w3.org/2000/svg">
<path d="M5.92969 19.8164C5.67188 19.8164 5.46094 19.6055 5.46094 19.3477V4.34766C5.46094 4.08984 5.67188 3.87891 5.92969 3.87891C6.1875 3.87891 6.39844 4.08984 6.39844 4.34766V19.3477C6.39844 19.6055 6.1875 19.8164 5.92969 19.8164Z" fill="white"/>
<path d="M7.19531 8.87109H4.66406C4.58672 8.87109 4.52344 8.93438 4.52344 9.01172V14.6367C4.52344 14.7398 4.60781 14.8242 4.71094 14.8242H7.14844C7.25156 14.8242 7.33594 14.7398 7.33594 14.6367V9.01172C7.33594 8.93438 7.27266 8.87109 7.19531 8.87109Z" fill="#02AD8F"/>
<path d="M7.80469 7.93359H4.05469C3.79688 7.93359 3.58594 8.14453 3.58594 8.40234V15.293C3.58594 15.5508 3.79688 15.7617 4.05469 15.7617H7.80469C8.0625 15.7617 8.27344 15.5508 8.27344 15.293V8.40234C8.27344 8.14453 8.0625 7.93359 7.80469 7.93359ZM7.33594 14.6367C7.33594 14.7398 7.25156 14.8242 7.14844 14.8242H4.71094C4.60781 14.8242 4.52344 14.7398 4.52344 14.6367V9.01172C4.52344 8.93438 4.58672 8.87109 4.66406 8.87109H7.19531C7.27266 8.87109 7.33594 8.93438 7.33594 9.01172V14.6367Z" fill="#1E1E1E"/>
<path d="M12.1406 21.2227C11.8828 21.2227 11.6719 21.0117 11.6719 20.7539V5.75391C11.6719 5.49609 11.8828 5.28516 12.1406 5.28516C12.3984 5.28516 12.6094 5.49609 12.6094 5.75391V20.7539C12.6094 21.0117 12.3984 21.2227 12.1406 21.2227Z" fill="white"/>
<path d="M13.4062 10.2773H10.875C10.7977 10.2773 10.7344 10.3406 10.7344 10.418V16.043C10.7344 16.1461 10.8187 16.2305 10.9219 16.2305H13.3594C13.4625 16.2305 13.5469 16.1461 13.5469 16.043V10.418C13.5469 10.3406 13.4836 10.2773 13.4062 10.2773Z" fill="#CB374E"/>
<path d="M14.0156 9.33984H10.2656C10.0078 9.33984 9.79688 9.55078 9.79688 9.80859V16.6992C9.79688 16.957 10.0078 17.168 10.2656 17.168H14.0156C14.2734 17.168 14.4844 16.957 14.4844 16.6992V9.80859C14.4844 9.55078 14.2734 9.33984 14.0156 9.33984ZM13.5469 16.043C13.5469 16.1461 13.4625 16.2305 13.3594 16.2305H10.9219C10.8188 16.2305 10.7344 16.1461 10.7344 16.043V10.418C10.7344 10.3406 10.7977 10.2773 10.875 10.2773H13.4062C13.4836 10.2773 13.5469 10.3406 13.5469 10.418V16.043Z" fill="#1E1E1E"/>
<path d="M18.3516 18.8789C18.0938 18.8789 17.8828 18.668 17.8828 18.4102V3.41016C17.8828 3.15234 18.0938 2.94141 18.3516 2.94141C18.6094 2.94141 18.8203 3.15234 18.8203 3.41016V18.4102C18.8203 18.668 18.6094 18.8789 18.3516 18.8789Z" fill="white"/>
<path d="M19.6172 7.93359H17.0859C17.0086 7.93359 16.9453 7.99688 16.9453 8.07422V13.6992C16.9453 13.8023 17.0297 13.8867 17.1328 13.8867H19.5703C19.6734 13.8867 19.7578 13.8023 19.7578 13.6992V8.07422C19.7578 7.99688 19.6945 7.93359 19.6172 7.93359Z" fill="#02AD8F"/>
<path d="M20.2266 6.99609H16.4766C16.2188 6.99609 16.0078 7.20703 16.0078 7.46484V14.3555C16.0078 14.6133 16.2188 14.8242 16.4766 14.8242H20.2266C20.4844 14.8242 20.6953 14.6133 20.6953 14.3555V7.46484C20.6953 7.20703 20.4844 6.99609 20.2266 6.99609ZM19.7578 13.6992C19.7578 13.8023 19.6734 13.8867 19.5703 13.8867H17.1328C17.0297 13.8867 16.9453 13.8023 16.9453 13.6992V8.07422C16.9453 7.99688 17.0086 7.93359 17.0859 7.93359H19.6172C19.6945 7.93359 19.7578 7.99688 19.7578 8.07422V13.6992Z" fill="#1E1E1E"/>
</svg>
