<svg width="20" height="21" viewBox="0 0 20 21" fill="none" xmlns="http://www.w3.org/2000/svg">
<path d="M10 17.375C4.32127 17.375 1.9844 12.6175 1.37565 11.16C1.20812 10.7359 1.20812 10.2641 1.37565 9.84C1.9844 8.3825 4.32127 3.625 10 3.625C15.6525 3.625 18.0156 8.3825 18.6244 9.84C18.7919 10.2713 18.7919 10.7294 18.6244 11.16C18.0156 12.6175 15.6525 17.375 10 17.375ZM2.53877 10.275C2.48681 10.4113 2.48681 10.5619 2.53877 10.6981C3.05002 11.9937 5.1094 16.125 10 16.125C14.8906 16.125 16.95 11.9938 17.4613 10.725C17.5132 10.5887 17.5132 10.4381 17.4613 10.3019C16.95 9.00625 14.8906 4.875 10 4.875C5.1094 4.875 3.05002 9.00625 2.53877 10.275ZM10 13.625C8.27752 13.625 6.87502 12.2125 6.87502 10.5C6.87502 8.7875 8.27752 7.375 10 7.375C11.7225 7.375 13.125 8.7875 13.125 10.5C13.125 12.2125 11.7225 13.625 10 13.625ZM10 8.625C8.97252 8.625 8.12502 9.4625 8.12502 10.5C8.12502 11.5375 8.96252 12.375 10 12.375C11.0375 12.375 11.875 11.5375 11.875 10.5C11.875 9.4625 11.0275 8.625 10 8.625Z" fill="white"/>
</svg>
