<svg width="21" height="22" viewBox="0 0 21 22" fill="none" xmlns="http://www.w3.org/2000/svg">
<circle cx="10.5" cy="10.5" r="10.5" fill="#5B6888"/>
<path d="M15.0714 12.875C14.9107 14.25 14.4018 15.3125 13.5446 16.0625C12.6935 16.8065 11.5595 17.1786 10.1429 17.1786C8.60714 17.1786 7.375 16.628 6.44643 15.5268C5.52381 14.4256 5.0625 12.9524 5.0625 11.1071V9.85714C5.0625 8.64881 5.27679 7.58631 5.70536 6.66964C6.13988 5.75298 6.75298 5.05059 7.54464 4.5625C8.33631 4.06845 9.25298 3.82143 10.2946 3.82143C11.6756 3.82143 12.7827 4.20833 13.6161 4.98214C14.4494 5.75 14.9345 6.81548 15.0714 8.17857H13.3482C13.1994 7.14286 12.875 6.39286 12.375 5.92857C11.881 5.46429 11.1875 5.23214 10.2946 5.23214C9.1994 5.23214 8.33929 5.6369 7.71429 6.44643C7.09524 7.25595 6.78571 8.40774 6.78571 9.90179V11.1607C6.78571 12.5714 7.08036 13.6935 7.66964 14.5268C8.25893 15.3601 9.08333 15.7768 10.1429 15.7768C11.0952 15.7768 11.8244 15.5625 12.3304 15.1339C12.8423 14.6994 13.1815 13.9464 13.3482 12.875H15.0714Z" fill="white"/>
<path d="M11.0674 13.2469V10.4709C11.0423 9.464 10.9909 9.24457 9.90742 9.19314V9H13.0286C14.8217 9 15.5189 9.65829 15.5189 10.7806C15.5189 11.9029 14.4343 12.4309 13.8537 12.5737L11.0674 13.2469ZM12.6937 12.5211C14.1257 12.5211 14.7314 11.9154 14.7314 10.896C14.7314 10.3246 14.5246 9.25829 12.6286 9.25829C12.3917 9.25312 12.1548 9.26152 11.9189 9.28343C11.8286 9.29714 11.7646 9.32229 11.7646 9.568V12.5211H12.6937Z" fill="white"/>
<path d="M11.7714 11.7806V14.5566C11.7977 15.5634 11.8492 15.7829 12.9326 15.8343V16.0229H9.80459C8.01144 16.0229 7.3143 15.3692 7.3143 14.2469C7.3143 13.1246 8.39887 12.5943 8.97944 12.4537L11.7714 11.7806ZM10.1406 12.5063C8.70859 12.5063 8.10173 13.112 8.10173 14.1314C8.10173 14.7029 8.30859 15.7692 10.2046 15.7692C10.4414 15.7743 10.6784 15.7659 10.9143 15.744C11.0046 15.7303 11.0686 15.7052 11.0686 15.4594V12.5063H10.1406Z" fill="#D4DCDB"/>
</svg>
