<svg width="24" height="24" viewBox="0 0 24 24" fill="none" xmlns="http://www.w3.org/2000/svg">
<path d="M21.4711 20.7328H20.9789V8.15816C20.9789 7.5986 20.5308 7.14525 19.979 7.14525H16.6423C16.0905 7.14525 15.6423 7.5986 15.6423 8.15816V20.7328H14.6761V3.35264C14.6761 2.76976 14.2279 2.29828 13.6735 2.29828H10.3291C9.77469 2.29828 9.32652 2.76976 9.32652 3.35264V20.7328H8.36283V13.0233C8.36283 12.4559 7.91466 11.9948 7.36286 11.9948H4.0262C3.47441 11.9948 3.02624 12.4559 3.02624 13.0233V20.7328H2.52885C2.26202 20.7328 2.04441 20.9504 2.04441 21.2173C2.04441 21.4841 2.26202 21.7017 2.52885 21.7017H21.4711C21.7406 21.7017 21.9556 21.4841 21.9556 21.2173C21.9556 20.9504 21.7406 20.7328 21.4711 20.7328Z" fill="#8A92A5"/>
<rect x="9.33203" y="13.9463" width="5.31867" height="6.81379" fill="#5B6888"/>
<rect x="3.03516" y="16.9741" width="5.32316" height="3.7822" fill="#5B6888"/>
</svg>
