<svg width="24" height="24" viewBox="0 0 24 24" fill="none" xmlns="http://www.w3.org/2000/svg">
<path d="M1.78 11C1.78 11.9879 2.17245 12.9354 2.87103 13.634C3.5696 14.3325 4.51707 14.725 5.505 14.725C6.49293 14.725 7.4404 14.3325 8.13897 13.634C8.83754 12.9354 9.23 11.9879 9.23 11C9.23 10.0121 8.83754 9.06459 8.13897 8.36602C7.4404 7.66745 6.49293 7.27499 5.505 7.27499C4.51707 7.27499 3.5696 7.66745 2.87103 8.36602C2.17245 9.06459 1.78 10.0121 1.78 11Z" fill="#7286B9"/>
<path d="M14.605 18.335L6.00499 16.465C5.51399 16.3582 5.07426 16.0867 4.75869 15.6957C4.44313 15.3046 4.2707 14.8175 4.26999 14.315V7.685C4.26999 6.65 4.98999 5.755 6.00499 5.535L14.605 3.665C15.975 3.365 17.27 4.41 17.27 5.815V16.18C17.27 17.585 15.975 18.63 14.605 18.335Z" fill="#465B8E"/>
<path d="M20.95 12.3H19.495C18.795 12.3 18.225 11.73 18.225 11.03V10.745C18.225 10.045 18.795 9.475 19.495 9.475H20.95C21.65 9.475 22.22 10.045 22.22 10.745V11.03C22.22 11.73 21.655 12.3 20.95 12.3ZM20.95 16.67H19.495C18.795 16.67 18.225 16.1 18.225 15.4V15.115C18.225 14.415 18.795 13.845 19.495 13.845H20.95C21.65 13.845 22.22 14.415 22.22 15.115V15.4C22.22 16.1 21.655 16.67 20.95 16.67ZM20.95 7.935H19.495C18.795 7.935 18.225 7.365 18.225 6.665V6.38C18.225 5.68 18.795 5.11 19.495 5.11H20.95C21.65 5.11 22.22 5.68 22.22 6.38V6.665C22.22 7.365 21.655 7.935 20.95 7.935Z" fill="#02AD8F"/>
</svg>
