<svg width="18" height="18" viewBox="0 0 18 18" fill="none" xmlns="http://www.w3.org/2000/svg">
<path d="M14.9759 9.7439C15.6122 9.7439 16.1279 10.2597 16.1279 10.8959V15.4079C16.1279 16.0441 15.6122 16.5599 14.9759 16.5599H10.8959C10.2597 16.5599 9.74393 16.0441 9.74393 15.4079V10.8959C9.74393 10.2597 10.2597 9.7439 10.8959 9.7439H14.9759ZM2.63994 12.2879C3.03757 12.2879 3.35994 12.6103 3.35994 13.0079V15.6959C3.35994 16.0936 3.03757 16.4159 2.63994 16.4159C2.24229 16.4159 1.91994 16.0936 1.91994 15.6959V13.0079C1.91994 12.6103 2.24229 12.2879 2.63994 12.2879ZM7.63193 12.2879C8.02959 12.2879 8.35193 12.6103 8.35193 13.0079V15.6959C8.35193 16.0936 8.02959 16.4159 7.63193 16.4159C7.23428 16.4159 6.91193 16.0936 6.91193 15.6959V13.0079C6.91193 12.6103 7.23428 12.2879 7.63193 12.2879ZM5.13593 12.9119C5.53358 12.9119 5.85593 13.2343 5.85593 13.6319V15.0719C5.85593 15.4696 5.53358 15.7919 5.13593 15.7919C4.73829 15.7919 4.41593 15.4696 4.41593 15.0719V13.6319C4.41593 13.2343 4.73829 12.9119 5.13593 12.9119ZM14.6879 11.1839H11.1839V15.1199H14.6879V11.1839ZM7.63193 9.7439C8.02959 9.7439 8.35193 10.0663 8.35193 10.4639C8.35193 10.8616 8.02959 11.1839 7.63193 11.1839H2.63992C2.2423 11.1839 1.91992 10.8616 1.91992 10.4639C1.91992 10.0663 2.2423 9.7439 2.63992 9.7439H7.63193ZM7.15193 1.48792C7.78817 1.48792 8.30393 2.00367 8.30393 2.63991V7.1519C8.30393 7.78814 7.78817 8.3039 7.15193 8.3039H3.07194C2.4357 8.3039 1.91994 7.78814 1.91994 7.1519V2.63991C1.91994 2.00367 2.4357 1.48792 3.07194 1.48792H7.15193ZM14.9759 1.48792C15.6122 1.48792 16.1279 2.00367 16.1279 2.63991V7.1519C16.1279 7.78814 15.6122 8.3039 14.9759 8.3039H10.8959C10.2597 8.3039 9.74393 7.78814 9.74393 7.1519V2.63991C9.74393 2.00367 10.2597 1.48792 10.8959 1.48792H14.9759ZM6.86393 2.92791H3.35994V6.8639H6.86393V2.92791ZM14.6879 2.92791H11.1839V6.8639H14.6879V2.92791Z" fill="#868D9A"/>
<path d="M2.63994 12.2879C3.03757 12.2879 3.35994 12.6103 3.35994 13.0079V15.6959C3.35994 16.0936 3.03757 16.4159 2.63994 16.4159C2.24229 16.4159 1.91994 16.0936 1.91994 15.6959V13.0079C1.91994 12.6103 2.24229 12.2879 2.63994 12.2879ZM7.63193 12.2879C8.02959 12.2879 8.35193 12.6103 8.35193 13.0079V15.6959C8.35193 16.0936 8.02959 16.4159 7.63193 16.4159C7.23428 16.4159 6.91193 16.0936 6.91193 15.6959V13.0079C6.91193 12.6103 7.23428 12.2879 7.63193 12.2879ZM5.13593 12.9119C5.53358 12.9119 5.85593 13.2343 5.85593 13.6319V15.0719C5.85593 15.4695 5.53358 15.7919 5.13593 15.7919C4.73829 15.7919 4.41593 15.4695 4.41593 15.0719V13.6319C4.41593 13.2343 4.73829 12.9119 5.13593 12.9119ZM7.63193 9.7439C8.02959 9.7439 8.35193 10.0663 8.35193 10.4639C8.35193 10.8615 8.02959 11.1839 7.63193 11.1839H2.63992C2.2423 11.1839 1.91992 10.8615 1.91992 10.4639C1.91992 10.0663 2.2423 9.7439 2.63992 9.7439H7.63193Z" fill="#02AD8F"/>
</svg>
