<svg width="22" height="23" viewBox="0 0 22 23" fill="none" xmlns="http://www.w3.org/2000/svg">
<path fill-rule="evenodd" clip-rule="evenodd" d="M3 11.982V9.80761C3 8.88776 3.52451 8.14209 4.17232 8.14209H7.41333V14.3521H6.92209C6.70289 14.3521 6.52479 14.5302 6.52479 14.7494C6.52479 14.9686 6.70289 15.1467 6.92209 15.1467H7.41333V16.0959H6.92209C6.70289 16.0959 6.52479 16.274 6.52479 16.4932C6.52479 16.7124 6.70289 16.8905 6.92209 16.8905H7.41529V18.0726C7.41529 18.6832 6.92013 19.1764 6.31147 19.1764C5.70084 19.1764 5.20764 18.6812 5.20764 18.0726V13.6475H4.17232C3.52451 13.6475 3 12.9018 3 11.982ZM19.0054 3.72876H17.8859V18.0608H19.0054V3.72876ZM7.97503 13.6592V8.14209H9.99674C11.8501 8.14209 17.3712 3.72876 17.3712 3.72876L17.3634 18.0726C17.3634 18.0726 11.8071 13.6592 10.0222 13.6592H7.97503ZM15 7.73895L11 9.92077V12.1026L15 13.9208V7.73895Z" fill="#636A7D"/>
</svg>
