<svg width="15" height="15" viewBox="0 0 15 15" fill="none" xmlns="http://www.w3.org/2000/svg">
<path d="M10.7602 8.43797C10.8505 8.43364 10.9399 8.45792 11.0156 8.50734C11.1281 8.57953 11.2036 8.69625 11.2345 8.82562C11.267 8.95823 11.2504 9.0981 11.1877 9.21937L9.78141 10.9894C9.65156 11.2388 9.36469 11.3241 9.14062 11.1802C8.91656 11.0363 8.83969 10.7175 8.96906 10.4681L9.76594 9.465H4.26422C4.12796 9.465 3.99729 9.41087 3.90094 9.31453C3.8046 9.21818 3.75047 9.08751 3.75047 8.95125C3.75047 8.815 3.8046 8.68432 3.90094 8.58797C3.99729 8.49163 4.12796 8.4375 4.26422 8.4375H10.7367L10.7606 8.43797H10.7602ZM4.23984 6.5625C4.14951 6.56683 4.06011 6.54255 3.98438 6.49312C3.87299 6.41933 3.79453 6.30526 3.76547 6.17484C3.733 6.04224 3.74965 5.90237 3.81234 5.78109L5.21906 4.01109C5.34844 3.76172 5.63531 3.67641 5.85938 3.82031C6.08344 3.96422 6.16031 4.28297 6.03094 4.53234L5.23406 5.53547H10.7362C10.8037 5.53547 10.8705 5.54876 10.9329 5.57458C10.9952 5.60039 11.0518 5.63824 11.0995 5.68594C11.1472 5.73365 11.1851 5.79028 11.2109 5.85261C11.2367 5.91495 11.25 5.98175 11.25 6.04922C11.25 6.11669 11.2367 6.18349 11.2109 6.24582C11.1851 6.30815 11.1472 6.36479 11.0995 6.41249C11.0518 6.4602 10.9952 6.49804 10.9329 6.52386C10.8705 6.54968 10.8037 6.56297 10.7362 6.56297H4.26375L4.24031 6.5625H4.23984ZM0.9375 1.87031C0.9375 1.35516 1.35938 0.9375 1.87078 0.9375H13.1297C13.6448 0.9375 14.0625 1.35938 14.0625 1.87078V13.1297C14.0625 13.6453 13.6406 14.063 13.1292 14.063H1.87031C1.35516 14.0625 0.9375 13.6406 0.9375 13.1292V1.87031ZM1.875 2.34375V12.6553C1.87488 12.7169 1.88691 12.778 1.91041 12.835C1.93391 12.892 1.96842 12.9437 2.01196 12.9874C2.0555 13.031 2.10722 13.0656 2.16415 13.0892C2.22108 13.1128 2.28211 13.125 2.34375 13.125H12.6562C12.7806 13.125 12.8998 13.0756 12.9877 12.9877C13.0756 12.8998 13.125 12.7806 13.125 12.6562V2.34375C13.125 2.21943 13.0756 2.1002 12.9877 2.01229C12.8998 1.92439 12.7806 1.875 12.6562 1.875H2.34375C2.21943 1.875 2.1002 1.92439 2.01229 2.01229C1.92439 2.1002 1.875 2.21943 1.875 2.34375Z" fill="white"/>
</svg>
