<svg width="27" height="27" viewBox="0 0 27 27" fill="none" xmlns="http://www.w3.org/2000/svg">
<circle cx="13.5" cy="13.5" r="13.5" fill="#828998"/>
<path d="M11.5883 13.0297C11.5883 14.1835 12.0466 15.2901 12.8625 16.106C13.6784 16.9219 14.785 17.3803 15.9389 17.3803C17.0927 17.3803 18.1993 16.9219 19.0152 16.106C19.8311 15.2901 20.2894 14.1835 20.2894 13.0297C20.2894 11.8758 19.8311 10.7693 19.0152 9.95336C18.1993 9.13747 17.0927 8.67911 15.9389 8.67911C14.785 8.67911 13.6784 9.13747 12.8625 9.95336C12.0466 10.7693 11.5883 11.8758 11.5883 13.0297Z" fill="#02AD8F"/>
<path d="M12.6695 18.1731C11.2193 18.1731 9.85527 17.6088 8.82871 16.5822C7.80215 15.5557 7.23789 14.1934 7.23789 12.7414C7.23789 11.2895 7.80215 9.92717 8.82871 8.9006C9.85527 7.87404 11.2176 7.30978 12.6695 7.30978C14.1215 7.30978 15.4838 7.87404 16.5104 8.9006C17.5369 9.92717 18.1012 11.2895 18.1012 12.7414C18.1012 14.1934 17.5352 15.5557 16.5086 16.5822C15.482 17.6088 14.1197 18.1731 12.6695 18.1731ZM12.6695 8.89357C11.6412 8.89357 10.6744 9.29435 9.94844 10.0203C9.2207 10.7481 8.82168 11.7131 8.82168 12.7414C8.82168 13.7697 9.22246 14.7365 9.94844 15.4625C10.6744 16.1885 11.6412 16.5893 12.6695 16.5893C13.6979 16.5893 14.6646 16.1885 15.3906 15.4625C16.1166 14.7365 16.5174 13.7697 16.5174 12.7414C16.5174 11.7131 16.1166 10.7463 15.3906 10.0203C14.6629 9.2926 13.6979 8.89357 12.6695 8.89357ZM18.3789 20.6885H7.62109C7.1834 20.6885 6.83008 20.3352 6.83008 19.8975C6.83008 19.4598 7.1834 19.1065 7.62109 19.1065H18.3789C18.8166 19.1065 19.1699 19.4598 19.1699 19.8975C19.1699 20.3352 18.8166 20.6885 18.3789 20.6885Z" fill="white"/>
</svg>
