<svg width="16" height="16" viewBox="0 0 16 16" fill="none" xmlns="http://www.w3.org/2000/svg">
<rect x="0.511719" y="0.00012207" width="15.4778" height="15.4778" rx="1.71976" fill="#02AD8F"/>
<path d="M7.28901 8.8234C6.80699 9.11477 6.73525 8.65977 6.73525 8.65977L6.13088 7.13263C5.89846 6.40689 6.33233 6.80538 6.33233 6.80538C6.33233 6.80538 6.70429 7.11003 6.98682 7.29625C7.26935 7.48198 7.59119 7.35079 7.59119 7.35079L11.5407 5.37602C10.8121 4.3933 9.60822 3.75159 8.24519 3.75159C6.0213 3.75159 4.21851 5.46053 4.21851 7.56945C4.21851 8.78212 4.81502 9.86115 5.74516 10.5608L5.5776 11.605C5.5776 11.605 5.49555 11.9096 5.77906 11.7686C5.97217 11.6723 6.46402 11.3264 6.75687 11.1166C7.23274 11.2958 7.73716 11.3874 8.24568 11.3868C10.4696 11.3868 12.2729 9.67787 12.2729 7.56896C12.2729 6.95869 12.1205 6.38183 11.8518 5.86984C10.5934 6.68991 7.66588 8.5959 7.28901 8.8229V8.8234Z" fill="white"/>
</svg>
